<?xml version="1.0" standalone="no"?>
<!DOCTYPE svg PUBLIC "-//W3C//DTD SVG 1.1//EN" "http://www.w3.org/Graphics/SVG/1.1/DTD/svg11.dtd" >
<svg>
<metadata>
Created by FontForge 20090622 at Wed Feb  7 02:42:12 2018
 By deploy user
Copyright (c) 2012 by atipo. All rights reserved.
</metadata>
<defs>
<font id="Bariol-Regular" horiz-adv-x="518" >
  <font-face 
    font-family="Bariol Regular"
    font-weight="400"
    font-stretch="normal"
    units-per-em="1000"
    panose-1="2 0 5 6 4 0 0 2 0 3"
    ascent="787"
    descent="-213"
    x-height="454"
    cap-height="681"
    bbox="-166 -252 1036 1016"
    underline-thickness="20"
    underline-position="-113"
    unicode-range="U+0020-U+FB06"
  />
<missing-glyph horiz-adv-x="580" 
d="M309 124h-55v55h55v-55zM305 229h-47v39q0 37 16.5 68t36.5 48t36.5 41t16.5 49q0 33 -22 51.5t-54 18.5q-79 0 -79 -81h-48q0 66 35.5 98.5t92.5 32.5q55 0 90 -30t35 -86q0 -29 -11 -52.5t-27 -40l-32.5 -32t-27.5 -37.5t-11 -48v-39zM88 48h404v603h-404v-603zM40 700
h500v-700h-500v700z" />
    <glyph glyph-name="ellipsis" unicode="&#x2e;&#x2e;&#x2e;" horiz-adv-x="703" 
d="M80 -8q-47 0 -47 47q0 48 47 48t47 -48q0 -47 -47 -47zM351 -8q-47 0 -47 47q0 48 47 48t47 -48q0 -47 -47 -47zM623 -8q-47 0 -47 47q0 48 47 48t47 -48q0 -47 -47 -47z" />
    <glyph glyph-name="f_f" unicode="ff" horiz-adv-x="556" 
d="M352 394h-203v-370q0 -14 -9.5 -23t-22.5 -9t-22.5 9t-9.5 23v370h-34q-13 0 -21.5 8.5t-8.5 21.5t8.5 21.5t21.5 8.5h34v59q0 74 43.5 123t129.5 49q13 0 21.5 -8.5t8.5 -21.5t-8.5 -21.5t-21.5 -8.5q-56 0 -82.5 -30t-26.5 -82v-59h203v59q0 74 43.5 123t129.5 49
q13 0 21.5 -8.5t8.5 -21.5t-8.5 -21.5t-21.5 -8.5q-56 0 -82.5 -30t-26.5 -82v-59h91q13 0 21.5 -8.5t8.5 -21.5t-8.5 -21.5t-21.5 -8.5h-91v-370q0 -14 -9 -23t-23 -9t-23 9t-9 23v370z" />
    <glyph glyph-name="fi" unicode="fi" horiz-adv-x="472" 
d="M85 394h-34q-13 0 -21.5 8.5t-8.5 21.5t8.5 21.5t21.5 8.5h34v59q0 74 43.5 123t129.5 49q66 0 106 -22q18 -11 18 -28q0 -13 -8.5 -21.5t-21.5 -8.5q-5 0 -21 6q-38 14 -73 14q-56 0 -82.5 -30t-26.5 -82v-59h226q13 0 22.5 -9t9.5 -23v-398q0 -14 -9.5 -23t-22.5 -9
t-22.5 9t-9.5 23v370h-194v-370q0 -14 -9.5 -23t-22.5 -9t-22.5 9t-9.5 23v370z" />
    <glyph glyph-name="fl" unicode="fl" horiz-adv-x="497" 
d="M85 394h-34q-13 0 -21.5 8.5t-8.5 21.5t8.5 21.5t21.5 8.5h34v59q0 74 43.5 123t129.5 49q75 0 127 -26q22 -11 22 -31v-519q0 -57 40 -57q12 0 21 -8.5t9 -21.5t-9 -21.5t-21 -8.5q-104 0 -104 117v285h-194v-370q0 -14 -9.5 -23t-22.5 -9t-22.5 9t-9.5 23v370zM149 513
v-59h194v156q-41 15 -85 15q-56 0 -82.5 -30t-26.5 -82z" />
    <glyph glyph-name="f_f_i" unicode="ffi" horiz-adv-x="739" 
d="M352 394h-203v-370q0 -14 -9.5 -23t-22.5 -9t-22.5 9t-9.5 23v370h-34q-13 0 -21.5 8.5t-8.5 21.5t8.5 21.5t21.5 8.5h34v59q0 74 43.5 123t129.5 49q13 0 21.5 -8.5t8.5 -21.5t-8.5 -21.5t-21.5 -8.5q-56 0 -82.5 -30t-26.5 -82v-59h203v59q0 74 43.5 123t129.5 49
q66 0 106 -22q18 -11 18 -28q0 -13 -8.5 -21.5t-21.5 -8.5q-5 0 -21 6q-38 14 -73 14q-56 0 -82.5 -30t-26.5 -82v-59h226q14 0 23 -9t9 -23v-398q0 -14 -9 -23t-23 -9t-23 9t-9 23v370h-194v-370q0 -14 -9 -23t-23 -9t-23 9t-9 23v370z" />
    <glyph glyph-name="f_f_l" unicode="ffl" horiz-adv-x="764" 
d="M352 394h-203v-370q0 -14 -9.5 -23t-22.5 -9t-22.5 9t-9.5 23v370h-34q-13 0 -21.5 8.5t-8.5 21.5t8.5 21.5t21.5 8.5h34v59q0 74 43.5 123t129.5 49q13 0 21.5 -8.5t8.5 -21.5t-8.5 -21.5t-21.5 -8.5q-56 0 -82.5 -30t-26.5 -82v-59h203v59q0 74 43.5 123t129.5 49
q75 0 127 -26q22 -11 22 -31v-519q0 -57 40 -57q12 0 21 -8.5t9 -21.5t-9 -21.5t-21 -8.5q-104 0 -104 117v285h-194v-370q0 -14 -9 -23t-23 -9t-23 9t-9 23v370zM416 513v-59h194v156q-41 15 -85 15q-56 0 -82.5 -30t-26.5 -82z" />
    <glyph glyph-name="f_j" unicode="fj" horiz-adv-x="472" 
d="M343 -35v429h-194v-370q0 -14 -9.5 -23t-22.5 -9t-22.5 9t-9.5 23v370h-34q-13 0 -21.5 8.5t-8.5 21.5t8.5 21.5t21.5 8.5h34v59q0 74 43.5 123t129.5 49q66 0 106 -22q18 -11 18 -28q0 -13 -8.5 -21.5t-21.5 -8.5q-5 0 -21 6q-38 14 -73 14q-56 0 -82.5 -30t-26.5 -82
v-59h226q13 0 22.5 -9t9.5 -23v-457q0 -64 -41.5 -107t-104.5 -43q-13 0 -21.5 8.5t-8.5 21.5t8.5 21.5t21.5 8.5q36 0 59 26t23 64z" />
    <glyph glyph-name="f_b" unicode="fb" horiz-adv-x="779" 
d="M407 322v-138q0 -69 36 -104t96 -35q141 0 141 183q0 182 -141 182q-26 0 -49.5 -9t-38 -22t-25 -26t-14.5 -22zM343 184v426q-41 15 -85 15q-56 0 -82.5 -30t-26.5 -82v-59h91q13 0 21.5 -8.5t8.5 -21.5t-8.5 -21.5t-21.5 -8.5h-91v-370q0 -14 -9.5 -23t-22.5 -9
t-22.5 9t-9.5 23v370h-34q-13 0 -21.5 8.5t-8.5 21.5t8.5 21.5t21.5 8.5h34v59q0 74 43.5 123t129.5 49q75 0 127 -26q22 -11 22 -31v-225q19 27 55 46t81 19q201 0 201 -240q0 -121 -53 -181t-152 -60q-89 0 -142.5 50.5t-53.5 146.5z" />
    <glyph glyph-name="f_f_b" unicode="ffb" horiz-adv-x="1046" 
d="M610 184v426q-41 15 -85 15q-56 0 -82.5 -30t-26.5 -82v-59h91q13 0 21.5 -8.5t8.5 -21.5t-8.5 -21.5t-21.5 -8.5h-91v-370q0 -14 -9 -23t-23 -9t-23 9t-9 23v370h-203v-370q0 -14 -9.5 -23t-22.5 -9t-22.5 9t-9.5 23v370h-34q-13 0 -21.5 8.5t-8.5 21.5t8.5 21.5
t21.5 8.5h34v59q0 74 43.5 123t129.5 49q13 0 21.5 -8.5t8.5 -21.5t-8.5 -21.5t-21.5 -8.5q-56 0 -82.5 -30t-26.5 -82v-59h203v59q0 74 43.5 123t129.5 49q75 0 127 -26q22 -11 22 -31v-225q19 27 55 46t81 19q201 0 201 -240q0 -121 -53 -181t-152 -60q-89 0 -142.5 50.5
t-53.5 146.5zM674 322v-138q0 -69 36 -104t96 -35q141 0 141 183q0 182 -141 182q-26 0 -49.5 -9t-38 -22t-25 -26t-15.5 -22z" />
    <glyph glyph-name="f_h" unicode="fh" horiz-adv-x="779" 
d="M343 24v586q-41 15 -85 15q-56 0 -82.5 -30t-26.5 -82v-59h91q13 0 21.5 -8.5t8.5 -21.5t-8.5 -21.5t-21.5 -8.5h-91v-370q0 -14 -9.5 -23t-22.5 -9t-22.5 9t-9.5 23v370h-34q-13 0 -21.5 8.5t-8.5 21.5t8.5 21.5t21.5 8.5h34v59q0 74 43.5 123t129.5 49q75 0 127 -26
q22 -11 22 -31v-230q15 30 50.5 50t82.5 20q184 0 184 -177v-267q0 -14 -9 -23t-23 -9t-23 9t-9 23v254q0 65 -26 99t-94 34q-133 0 -133 -140v-247q0 -14 -9.5 -23t-22.5 -9t-22.5 9t-9.5 23z" />
    <glyph glyph-name="f_f_h" unicode="ffh" horiz-adv-x="1046" 
d="M610 24v586q-41 15 -85 15q-56 0 -82.5 -30t-26.5 -82v-59h91q13 0 21.5 -8.5t8.5 -21.5t-8.5 -21.5t-21.5 -8.5h-91v-370q0 -14 -9 -23t-23 -9t-23 9t-9 23v370h-203v-370q0 -14 -9.5 -23t-22.5 -9t-22.5 9t-9.5 23v370h-34q-13 0 -21.5 8.5t-8.5 21.5t8.5 21.5
t21.5 8.5h34v59q0 74 43.5 123t129.5 49q13 0 21.5 -8.5t8.5 -21.5t-8.5 -21.5t-21.5 -8.5q-56 0 -82.5 -30t-26.5 -82v-59h203v59q0 74 43.5 123t129.5 49q75 0 127 -26q22 -11 22 -31v-230q15 30 50.5 50t82.5 20q184 0 184 -177v-267q0 -14 -9.5 -23t-22.5 -9t-22.5 9
t-9.5 23v254q0 65 -26 99t-94 34q-133 0 -133 -140v-247q0 -14 -9 -23t-23 -9t-23 9t-9 23z" />
    <glyph glyph-name="f_k" unicode="fk" horiz-adv-x="731" 
d="M343 24v586q-41 15 -85 15q-56 0 -82.5 -30t-26.5 -82v-59h91q13 0 21.5 -8.5t8.5 -21.5t-8.5 -21.5t-21.5 -8.5h-91v-370q0 -14 -9.5 -23t-22.5 -9t-22.5 9t-9.5 23v370h-34q-13 0 -21.5 8.5t-8.5 21.5t8.5 21.5t21.5 8.5h34v59q0 74 43.5 123t129.5 49q75 0 127 -26
q22 -11 22 -31v-367l236 193q9 8 22 8t22.5 -9t9.5 -23q0 -16 -13 -26l-164 -131l178 -229q7 -8 7 -20q0 -14 -9.5 -23t-22.5 -9q-16 0 -28 15l-177 227l-61 -49v-161q0 -14 -9.5 -23t-22.5 -9t-22.5 9t-9.5 23z" />
    <glyph glyph-name="f_f_k" unicode="ffk" horiz-adv-x="998" 
d="M674 628v-367l236 193q9 8 22 8q14 0 23 -9t9 -23q0 -16 -13 -26l-164 -131l178 -229q7 -8 7 -20q0 -14 -9 -23t-23 -9q-16 0 -28 15l-177 227l-61 -49v-161q0 -14 -9 -23t-23 -9t-23 9t-9 23v586q-41 15 -85 15q-56 0 -82.5 -30t-26.5 -82v-59h91q13 0 21.5 -8.5
t8.5 -21.5t-8.5 -21.5t-21.5 -8.5h-91v-370q0 -14 -9 -23t-23 -9t-23 9t-9 23v370h-203v-370q0 -14 -9.5 -23t-22.5 -9t-22.5 9t-9.5 23v370h-34q-13 0 -21.5 8.5t-8.5 21.5t8.5 21.5t21.5 8.5h34v59q0 74 43.5 123t129.5 49q13 0 21.5 -8.5t8.5 -21.5t-8.5 -21.5
t-21.5 -8.5q-56 0 -82.5 -30t-26.5 -82v-59h203v59q0 74 43.5 123t129.5 49q75 0 127 -26q22 -11 22 -31z" />
    <glyph glyph-name="f_f_j" unicode="ffj" horiz-adv-x="739" 
d="M610 -35v429h-194v-370q0 -14 -9 -23t-23 -9t-23 9t-9 23v370h-203v-370q0 -14 -9.5 -23t-22.5 -9t-22.5 9t-9.5 23v370h-34q-13 0 -21.5 8.5t-8.5 21.5t8.5 21.5t21.5 8.5h34v59q0 74 43.5 123t129.5 49q13 0 21.5 -8.5t8.5 -21.5t-8.5 -21.5t-21.5 -8.5
q-56 0 -82.5 -30t-26.5 -82v-59h203v59q0 74 43.5 123t129.5 49q66 0 106 -22q18 -11 18 -28q0 -13 -8.5 -21.5t-21.5 -8.5q-5 0 -21 6q-38 14 -73 14q-56 0 -82.5 -30t-26.5 -82v-59h226q14 0 23 -9t9 -23v-457q0 -64 -41.5 -107t-104.5 -43q-13 0 -21.5 8.5t-8.5 21.5
t8.5 21.5t21.5 8.5q36 0 59 26t23 64z" />
    <glyph glyph-name=".notdef" horiz-adv-x="580" 
d="M309 124h-55v55h55v-55zM305 229h-47v39q0 37 16.5 68t36.5 48t36.5 41t16.5 49q0 33 -22 51.5t-54 18.5q-79 0 -79 -81h-48q0 66 35.5 98.5t92.5 32.5q55 0 90 -30t35 -86q0 -29 -11 -52.5t-27 -40l-32.5 -32t-27.5 -37.5t-11 -48v-39zM88 48h404v603h-404v-603zM40 700
h500v-700h-500v700z" />
    <glyph glyph-name=".null" horiz-adv-x="0" 
 />
    <glyph glyph-name="nonmarkingreturn" horiz-adv-x="333" 
 />
    <glyph glyph-name="space" unicode=" " horiz-adv-x="238" 
 />
    <glyph glyph-name="exclam" unicode="!" horiz-adv-x="208" 
d="M104 681q36 0 35 -35l-15 -471q0 -18 -20 -18t-20 18l-15 471q-1 35 35 35zM104 -8q-47 0 -47 47q0 48 47 48t47 -48q0 -47 -47 -47z" />
    <glyph glyph-name="quotedbl" unicode="&#x22;" horiz-adv-x="280" 
d="M84 681q15 0 22 -7.5t6 -19.5l-9 -172q-2 -17 -19 -17t-19 17l-9 172q-1 12 6 19.5t22 7.5zM196 681q15 0 22 -7.5t6 -19.5l-9 -172q-2 -17 -19 -17t-19 17l-9 172q-1 12 6 19.5t22 7.5z" />
    <glyph glyph-name="numbersign" unicode="#" horiz-adv-x="550" 
d="M104 23l29 189h-63q-10 0 -17 7t-7 17t7 17t17 7h71l21 136h-70q-10 0 -17 7t-7 17t7 17t17 7h78l28 187q4 21 25 21q11 0 18 -7t7 -18q0 -4 -1 -9l-26 -174h139l28 187q4 21 25 21q11 0 18 -7t7 -18q0 -4 -1 -9l-26 -174h69q10 0 17 -7t7 -17t-7 -17t-17 -7h-77
l-21 -136h76q10 0 17 -7t7 -17t-7 -17t-17 -7h-84l-31 -202q-3 -21 -25 -21q-10 0 -17.5 7.5t-7.5 17.5q0 4 1 9l29 189h-139l-31 -202q-3 -21 -25 -21q-10 0 -17.5 7.5t-7.5 17.5q0 4 1 9zM213 396l-21 -136h139l21 136h-139z" />
    <glyph glyph-name="dollar" unicode="$" horiz-adv-x="558" 
d="M443 546q-64 79 -162 79q-74 0 -109.5 -31t-35.5 -78q0 -45 39 -74.5t94.5 -47t111 -39t94.5 -65t39 -110.5q0 -87 -54 -136.5t-155 -56.5v-75q0 -10 -7.5 -18t-18.5 -8t-18.5 8t-7.5 18v75q-74 4 -130 38.5t-82 83.5q-5 10 -5 18q0 13 9 22.5t23 9.5q18 0 28 -16
q58 -95 178 -95q83 0 127.5 33.5t44.5 98.5q0 43 -28 73t-70 44.5l-91 32t-91 35.5t-70 57t-28 94q0 68 47 115.5t138 54.5v76q0 10 7.5 18t18.5 8t18.5 -8t7.5 -18v-76q126 -9 190 -102q6 -9 6 -19q0 -13 -9.5 -22.5t-22.5 -9.5q-16 0 -26 13z" />
    <glyph glyph-name="percent" unicode="%" horiz-adv-x="746" 
d="M535 681q11 0 18 -7.5t7 -17.5q0 -6 -2 -10l-326 -641q-6 -13 -22 -13q-10 0 -17.5 7t-7.5 18q0 6 2 10l326 641q7 13 22 13zM188 407q97 0 97 117t-97 117q-96 0 -96 -117t96 -117zM188 687q77 0 112 -44.5t35 -118.5t-35 -118.5t-112 -44.5q-76 0 -111 44.5t-35 118.5
t35 118.5t111 44.5zM558 33q97 0 97 117t-97 117q-96 0 -96 -117t96 -117zM558 313q77 0 112 -44.5t35 -118.5t-35 -118.5t-112 -44.5q-76 0 -111 44.5t-35 118.5t35 118.5t111 44.5z" />
    <glyph glyph-name="ampersand" unicode="&#x26;" horiz-adv-x="616" 
d="M172 533q0 -78 33 -141q48 32 81.5 77.5t33.5 83.5q0 36 -20 56t-50 20q-38 0 -58 -26.5t-20 -69.5zM392 93q-76 59 -124.5 106.5t-82.5 103.5q-77 -50 -77 -128q0 -59 44 -95t106 -36q77 0 134 49zM444 53q-74 -67 -186 -67q-93 0 -153.5 50t-60.5 139q0 104 110 183
q-46 86 -46 175q0 67 38 110.5t104 43.5q59 0 96.5 -36t37.5 -98q0 -60 -38 -109t-111 -104q62 -98 199 -201q26 38 41 101q6 23 30 23q13 0 22 -9t9 -22q0 -10 -3 -20q-17 -63 -48 -111q30 -19 98 -49q20 -9 20 -29q0 -13 -9 -22t-22 -9q-18 0 -60 21t-68 40z" />
    <glyph glyph-name="quotesingle" unicode="'" horiz-adv-x="168" 
d="M84 681q15 0 22 -7.5t6 -19.5l-9 -172q-2 -17 -19 -17t-19 17l-9 172q-1 12 6 19.5t22 7.5z" />
    <glyph glyph-name="parenleft" unicode="(" horiz-adv-x="294" 
d="M60 296q0 207 37 302t133 137q8 3 13 3q11 0 19.5 -8.5t8.5 -19.5q0 -18 -18 -26q-31 -15 -52.5 -34t-36 -47t-22.5 -55t-12 -71.5t-5 -81t-1 -99.5t1 -99.5t5 -81t12 -71.5t22.5 -55t36 -47t52.5 -34q18 -8 18 -26q0 -11 -8.5 -19.5t-19.5 -8.5q-5 0 -13 3
q-96 42 -133 137t-37 302z" />
    <glyph glyph-name="parenright" unicode=")" horiz-adv-x="294" 
d="M234 296q0 -207 -37 -302t-133 -137q-7 -3 -13 -3q-11 0 -19.5 8.5t-8.5 19.5q0 18 18 26q31 15 52.5 34t36 47t22.5 55t12 71.5t5 81t1 99.5t-1 99.5t-5 81t-12 71.5t-22.5 55t-36 47t-52.5 34q-18 8 -18 26q0 11 8.5 19.5t19.5 8.5q5 0 13 -3q96 -42 133 -137t37 -302z
" />
    <glyph glyph-name="asterisk" unicode="*" horiz-adv-x="357" 
d="M240 441l-62 93l-62 -93q-12 -19 -29 -6q-18 13 -6 29l64 88l-101 23q-20 5 -15 27t26 15l105 -31l-4 106q0 20 22 20t22 -20l-4 -106l105 31q21 7 26 -15t-15 -27l-101 -23l64 -88q12 -16 -6 -29q-17 -13 -29 6z" />
    <glyph glyph-name="plus" unicode="+" horiz-adv-x="454" 
d="M454 218q0 -11 -8 -19t-19 -8h-171v-170q0 -12 -8.5 -20.5t-20.5 -8.5t-20.5 8.5t-8.5 20.5v170h-171q-11 0 -19 8t-8 19t8 19t19 8h171v171q0 12 8.5 20.5t20.5 8.5t20.5 -8.5t8.5 -20.5v-171h171q11 0 19 -8t8 -19z" />
    <glyph glyph-name="comma" unicode="," horiz-adv-x="162" 
d="M129 23q0 -104 -72 -179q-6 -6 -13 -6q-15 0 -15 15q0 5 3 9q37 51 37 91q0 19 -18 42t-18 44q0 48 47 48q49 0 49 -64z" />
    <glyph glyph-name="hyphen" unicode="-" horiz-adv-x="364" 
d="M309 252q0 -11 -8 -19t-19 -8h-200q-11 0 -19 8t-8 19t8 19t19 8h200q11 0 19 -8t8 -19z" />
    <glyph glyph-name="period" unicode="." horiz-adv-x="160" 
d="M80 -8q-47 0 -47 47q0 48 47 48t47 -48q0 -47 -47 -47z" />
    <glyph glyph-name="slash" unicode="/" horiz-adv-x="407" 
d="M41 -51l264 779q7 23 31 23q14 0 23 -9.5t9 -22.5q0 -6 -3 -15l-264 -779q-7 -23 -31 -23q-14 0 -23 9t-9 23q0 6 3 15z" />
    <glyph glyph-name="zero" unicode="0" horiz-adv-x="602" 
d="M301 46q94 0 137.5 68.5t43.5 222.5t-43.5 222t-137.5 68t-137.5 -68t-43.5 -222t43.5 -222.5t137.5 -68.5zM301 687q126 0 186.5 -85t60.5 -265t-60.5 -265.5t-186.5 -85.5t-186.5 85.5t-60.5 265.5t60.5 265t186.5 85z" />
    <glyph glyph-name="one" unicode="1" horiz-adv-x="351" 
d="M195 589l-107 -77q-9 -6 -19 -6q-13 0 -22.5 9.5t-9.5 22.5q0 18 14 27l157 109q10 7 20 7q14 0 23.5 -9.5t9.5 -23.5v-623q0 -13 -9.5 -23t-23.5 -10t-23.5 10t-9.5 23v564z" />
    <glyph glyph-name="two" unicode="2" horiz-adv-x="532" 
d="M67 557q21 62 72.5 96t127.5 34q99 0 156.5 -53t57.5 -142q0 -56 -27.5 -106.5t-68.5 -85t-89.5 -68.5t-89.5 -59t-68.5 -54t-27.5 -57h349q13 0 22 -9t9 -22t-9 -22t-22 -9h-386q-13 0 -22 9t-9 22q0 61 38.5 110.5t93 85.5l109 71.5t93 84.5t38.5 109t-39 97.5
t-108 37.5q-100 0 -142 -92q-9 -20 -29 -20q-13 0 -22 9t-9 22q0 5 2 11z" />
    <glyph glyph-name="three" unicode="3" horiz-adv-x="542" 
d="M264 408h10q113 0 162.5 -60.5t49.5 -155.5q0 -99 -59 -152.5t-172 -53.5q-147 0 -215 113q-5 8 -5 17q0 13 8.5 21.5t21.5 8.5q17 0 27 -16q51 -84 163 -84q82 0 123.5 37.5t41.5 108.5q0 156 -151 156h-70q-13 0 -21.5 8.5t-8.5 21.5q0 11 8 21l184 214h-258
q-13 0 -21.5 8.5t-8.5 21.5t8.5 21.5t21.5 8.5h326q13 0 21.5 -8.5t8.5 -21.5q0 -12 -8 -21z" />
    <glyph glyph-name="four" unicode="4" horiz-adv-x="540" 
d="M415 217h57q14 0 23 -8.5t9 -21.5t-9 -22.5t-23 -9.5h-57v-130q0 -13 -9.5 -23t-23.5 -10t-23.5 10t-9.5 23v130h-292q-13 0 -22 9t-9 22q0 10 7 20l322 460q11 14 27 14q14 0 23.5 -10t9.5 -23v-430zM115 217h234v336z" />
    <glyph glyph-name="five" unicode="5" horiz-adv-x="555" 
d="M272 446q107 0 169.5 -57.5t62.5 -171.5q0 -116 -62.5 -173.5t-169.5 -57.5q-81 0 -140.5 35t-90.5 100q-4 8 -4 15q0 13 9 22t22 9q18 0 28 -17q32 -54 73 -78t103 -24q77 0 121.5 41.5t44.5 127.5q0 84 -45 126t-121 42q-54 0 -90 -14t-70 -47q-13 -13 -27 -13
q-13 0 -22 9t-9 22q0 3 2 13l58 294q2 9 10 16.5t20 7.5h304q13 0 22 -9t9 -22t-9 -22t-22 -9h-282l-40 -205q57 40 146 40z" />
    <glyph glyph-name="six" unicode="6" horiz-adv-x="566" 
d="M291 433q103 0 165 -56t62 -166q0 -116 -62 -170.5t-171 -54.5q-120 0 -178.5 90t-58.5 245q0 366 251 366q55 0 98 -16.5t63 -38.5q10 -10 10 -23t-9 -22t-22 -9q-10 0 -21 8q-55 41 -119 41q-185 0 -185 -282q24 35 70.5 61.5t106.5 26.5zM285 46q167 0 167 165
q0 82 -44.5 122t-116.5 40q-111 0 -172 -109q0 -98 43.5 -158t122.5 -60z" />
    <glyph glyph-name="seven" unicode="7" horiz-adv-x="483" 
d="M111 24q0 92 29 172t70.5 135t83 101.5t70.5 92t29 86.5h-337q-13 0 -22 9t-9 22t9 22t22 9h373q13 0 22 -9t9 -22q0 -62 -29.5 -118.5t-71 -104.5l-83.5 -100t-71.5 -128.5t-29.5 -166.5q0 -14 -9.5 -23t-22.5 -9t-22.5 9t-9.5 23z" />
    <glyph glyph-name="eight" unicode="8" horiz-adv-x="554" 
d="M277 -14q-107 0 -170.5 52.5t-63.5 151.5q0 64 31 110.5t87 67.5q-88 47 -88 145q0 87 54.5 130.5t149.5 43.5t149.5 -43.5t54.5 -130.5q0 -98 -88 -145q56 -21 87 -67.5t31 -110.5q0 -99 -63.5 -151.5t-170.5 -52.5zM277 627q-66 0 -102 -28.5t-36 -85.5q0 -58 36.5 -88
t101.5 -30t101.5 30t36.5 88q0 57 -36 85.5t-102 28.5zM277 335q-81 0 -124.5 -36t-43.5 -109q0 -72 45 -108t123 -36t123 36t45 108q0 73 -43.5 109t-124.5 36z" />
    <glyph glyph-name="nine" unicode="9" horiz-adv-x="566" 
d="M275 240q-103 0 -165 56t-62 166q0 116 62 170.5t171 54.5q120 0 178.5 -90t58.5 -245q0 -366 -251 -366q-55 0 -98 16.5t-63 38.5q-10 10 -10 23t9 22t22 9q10 0 21 -8q55 -41 119 -41q185 0 185 282q-24 -35 -70.5 -61.5t-106.5 -26.5zM281 627q-167 0 -167 -165
q0 -82 44.5 -122t116.5 -40q111 0 172 109q0 98 -43.5 158t-122.5 60z" />
    <glyph glyph-name="colon" unicode=":" horiz-adv-x="160" 
d="M80 -8q-47 0 -47 47q0 48 47 48t47 -48q0 -47 -47 -47zM80 361q-47 0 -47 47q0 48 47 48t47 -48q0 -47 -47 -47z" />
    <glyph glyph-name="semicolon" unicode=";" horiz-adv-x="160" 
d="M129 23q0 -104 -72 -179q-6 -6 -13 -6q-15 0 -15 15q0 5 3 9q37 51 37 91q0 19 -18 42t-18 44q0 48 47 48q49 0 49 -64zM80 361q-47 0 -47 47q0 48 47 48t47 -48q0 -47 -47 -47z" />
    <glyph glyph-name="less" unicode="&#x3c;" horiz-adv-x="337" 
d="M0 235q0 14 13 23l281 222q7 5 16 5q11 0 19 -8t8 -19q0 -14 -11 -22l-260 -201l260 -201q11 -8 11 -22q0 -11 -8 -19t-19 -8q-9 0 -16 5l-281 222q-13 9 -13 23z" />
    <glyph glyph-name="equal" unicode="=" horiz-adv-x="454" 
d="M454 294q0 -11 -8 -19t-19 -8h-400q-11 0 -19 8t-8 19t8 19t19 8h400q11 0 19 -8t8 -19zM454 141q0 -11 -8 -19t-19 -8h-400q-11 0 -19 8t-8 19t8 19t19 8h400q11 0 19 -8t8 -19z" />
    <glyph glyph-name="greater" unicode="&#x3e;" horiz-adv-x="337" 
d="M337 235q0 -14 -13 -23l-281 -222q-7 -5 -16 -5q-11 0 -19 8t-8 19q0 14 11 22l260 201l-260 201q-11 8 -11 22q0 11 8 19t19 8q9 0 16 -5l281 -222q13 -9 13 -23z" />
    <glyph glyph-name="question" unicode="?" horiz-adv-x="461" 
d="M185 158q-32 32 -32 85q0 36 21.5 64t52.5 47.5l61.5 39.5t52 51.5t21.5 72.5q0 54 -35 82t-99 28q-60 0 -94 -30t-34 -90q0 -14 -10 -23.5t-23 -9.5t-23 9.5t-10 23.5q0 84 51 131.5t143 47.5q93 0 145.5 -44t52.5 -125q0 -49 -21 -87.5t-51.5 -62t-61 -43t-51.5 -40
t-21 -42.5q0 -19 14 -40q8 -12 8 -22q0 -15 -10.5 -24t-22.5 -9q-14 0 -24 10zM205 -8q-47 0 -47 47q0 48 47 48t47 -48q0 -47 -47 -47z" />
    <glyph glyph-name="at" unicode="@" horiz-adv-x="801" 
d="M494 54q-39 -61 -119 -61q-58 0 -96 29t-38 80q0 50 34.5 79t95.5 29h116v25q0 37 -25.5 57t-67.5 20q-52 0 -88 -41q-9 -9 -20 -9q-10 0 -17 7t-7 17q0 8 5 15q43 58 127 58q69 0 105 -35t36 -94v-122q0 -40 16 -56.5t49 -16.5q56 0 83.5 36t27.5 124q0 150 -82.5 223
t-229.5 73q-150 0 -229.5 -75.5t-79.5 -243.5q0 -169 79.5 -243.5t229.5 -74.5q149 0 231 55q6 4 13 4q9 0 16 -6.5t7 -16.5q0 -12 -10 -19q-99 -61 -257 -61q-173 0 -266 90t-93 272t93 272.5t266 90.5q163 0 262.5 -87t99.5 -253q0 -29 -3.5 -54.5t-14 -53.5t-27.5 -48
t-47 -33t-69 -13q-80 0 -106 61zM379 37q43 0 75.5 25.5t32.5 71.5v33h-116q-80 0 -80 -65q0 -31 22.5 -48t65.5 -17z" />
    <glyph glyph-name="A" unicode="A" horiz-adv-x="613" 
d="M425 261l-119 306l-118 -306h237zM446 199h-279l-73 -183q-9 -24 -33 -24q-14 0 -24 10t-10 24q0 9 3 15l244 617q10 23 32 23q23 0 33 -23l244 -617q3 -7 3 -15q0 -14 -10 -24t-25 -10q-24 0 -33 23z" />
    <glyph glyph-name="B" unicode="B" horiz-adv-x="561" 
d="M148 611v-232h135q66 0 101 31t35 85q0 116 -136 116h-135zM148 321v-259h165q67 0 102 34t35 96q0 61 -36.5 95t-100.5 34h-165zM314 0h-200q-14 0 -24 10t-10 24v605q0 14 10 24t24 10h170q103 0 153.5 -47t50.5 -131q0 -49 -27 -86.5t-70 -49.5q58 -14 93 -56t35 -111
q0 -88 -53.5 -140t-151.5 -52z" />
    <glyph glyph-name="C" unicode="C" horiz-adv-x="631" 
d="M356 -14q-312 0 -312 350q0 174 81.5 262.5t230.5 88.5q71 0 130 -28.5t95 -77.5q7 -10 7 -21q0 -14 -9 -23t-23 -9q-16 0 -26 13q-27 37 -73.5 60.5t-100.5 23.5q-117 0 -179.5 -72t-62.5 -217q0 -151 61 -219.5t181 -68.5q52 0 99 21t75 61q9 13 26 13q14 0 23 -9.5
t9 -22.5q0 -10 -6 -19q-33 -48 -95 -77t-131 -29z" />
    <glyph glyph-name="D" unicode="D" horiz-adv-x="608" 
d="M148 611v-549h107q118 0 179 62.5t61 211.5q0 148 -61 211.5t-179 63.5h-107zM114 673h141q150 0 229.5 -79.5t79.5 -257.5t-79.5 -257t-229.5 -79h-141q-14 0 -24 10t-10 24v605q0 14 10 24t24 10z" />
    <glyph glyph-name="E" unicode="E" 
d="M446 0h-332q-14 0 -24 10t-10 24v605q0 14 10 24t24 10h321q13 0 22 -9t9 -22t-9 -22t-22 -9h-287v-241h220q13 0 22 -9t9 -22t-9 -22t-22 -9h-220v-246h298q13 0 22 -9t9 -22t-9 -22t-22 -9z" />
    <glyph glyph-name="F" unicode="F" 
d="M148 300v-274q0 -14 -10 -24t-24 -10t-24 10t-10 24v613q0 14 10 24t24 10h321q13 0 22 -9t9 -22t-9 -22t-22 -9h-287v-249h220q13 0 22 -9t9 -22t-9 -22t-22 -9h-220z" />
    <glyph glyph-name="G" unicode="G" horiz-adv-x="663" 
d="M356 48q122 0 186 80v145h-167q-13 0 -22 9t-9 22t9 22t22 9h202q12 0 21.5 -9t9.5 -22v-175q0 -17 -13 -33q-94 -110 -239 -110q-312 0 -312 350q0 174 81.5 262.5t230.5 88.5q71 0 130 -28.5t95 -77.5q7 -10 7 -21q0 -14 -9 -23t-23 -9q-16 0 -26 13q-27 37 -73 60.5
t-101 23.5q-117 0 -179.5 -72t-62.5 -217q0 -151 61 -219.5t181 -68.5z" />
    <glyph glyph-name="H" unicode="H" horiz-adv-x="644" 
d="M496 314h-348v-288q0 -14 -10 -24t-24 -10t-24 10t-10 24v621q0 14 10 24t24 10t24 -10t10 -24v-271h348v271q0 14 10 24t24 10t24 -10t10 -24v-621q0 -14 -10 -24t-24 -10t-24 10t-10 24v288z" />
    <glyph glyph-name="I" unicode="I" horiz-adv-x="228" 
d="M148 647v-621q0 -14 -10 -24t-24 -10t-24 10t-10 24v621q0 14 10 24t24 10t24 -10t10 -24z" />
    <glyph glyph-name="J" unicode="J" horiz-adv-x="413" 
d="M35 10q-19 11 -19 30q0 14 10 23.5t23 9.5q7 0 20 -6q32 -16 74 -16q63 0 92.5 41t29.5 111v444q0 14 10 24t24 10t24 -10t10 -24v-444q0 -99 -45.5 -157.5t-144.5 -58.5q-68 0 -108 23z" />
    <glyph glyph-name="K" unicode="K" horiz-adv-x="554" 
d="M148 335l291 333q10 13 27 13q14 0 24.5 -10.5t10.5 -24.5q0 -12 -10 -24l-209 -234l242 -341q7 -11 7 -21q0 -14 -10 -24t-24 -10q-18 0 -29 16l-232 330l-88 -99v-213q0 -14 -10 -24t-24 -10t-24 10t-10 24v621q0 14 10 24t24 10t24 -10t10 -24v-312z" />
    <glyph glyph-name="L" unicode="L" horiz-adv-x="483" 
d="M148 64h274q14 0 23 -9t9 -23t-9 -23t-23 -9h-308q-14 0 -24 10t-10 24v613q0 14 10 24t24 10t24 -10t10 -24v-583z" />
    <glyph glyph-name="M" unicode="M" horiz-adv-x="761" 
d="M375 109q-21 0 -30 19l-209 389v-492q0 -13 -10 -23t-23 -10t-23 10t-10 23v623q0 14 10 23.5t23 9.5q21 0 30 -19l242 -453l243 453q11 19 30 19q14 0 23.5 -9.5t9.5 -23.5v-623q0 -13 -9.5 -23t-23.5 -10t-23.5 10t-9.5 23v492l-210 -389q-10 -19 -30 -19z" />
    <glyph glyph-name="N" unicode="N" horiz-adv-x="620" 
d="M517 681q13 0 23 -9.5t10 -23.5v-622q0 -14 -10 -24t-24 -10q-17 0 -28 14l-352 531v-512q0 -13 -10 -23t-23 -10t-23 10t-10 23v623q0 14 10 23.5t23 9.5q17 0 27 -14l354 -532v513q0 14 10 23.5t23 9.5z" />
    <glyph glyph-name="O" unicode="O" horiz-adv-x="712" 
d="M356 -14q-148 0 -230 88.5t-82 261.5q0 174 81.5 262.5t230.5 88.5t230.5 -88.5t81.5 -262.5q0 -173 -82 -261.5t-230 -88.5zM356 625q-117 0 -179.5 -72t-62.5 -217q0 -144 62.5 -216t179.5 -72t179.5 72t62.5 216q0 145 -62.5 217t-179.5 72z" />
    <glyph glyph-name="P" unicode="P" horiz-adv-x="544" 
d="M148 611v-267h155q62 0 97 35t35 99q0 65 -35.5 99t-96.5 34h-155zM148 282v-256q0 -14 -10 -24t-24 -10t-24 10t-10 24v613q0 14 10 24t24 10h199q85 0 138 -49.5t53 -145.5q0 -95 -53 -145.5t-138 -50.5h-165z" />
    <glyph glyph-name="Q" unicode="Q" horiz-adv-x="712" 
d="M356 -14q-148 0 -230 88.5t-82 261.5q0 174 81.5 262.5t230.5 88.5t230.5 -88.5t81.5 -262.5q0 -249 -166 -323q46 -20 72 -52q10 -13 10 -25q0 -14 -10 -23.5t-24 -9.5t-25 11q-37 41 -69.5 56.5t-99.5 15.5zM356 625q-117 0 -179.5 -72t-62.5 -217q0 -144 62.5 -216
t179.5 -72t179.5 72t62.5 216q0 145 -62.5 217t-179.5 72z" />
    <glyph glyph-name="R" unicode="R" horiz-adv-x="546" 
d="M148 611v-258h167q52 0 86 37t34 92q0 56 -34.5 92.5t-88.5 36.5h-164zM148 291v-265q0 -14 -10 -24t-24 -10t-24 10t-10 24v613q0 14 10 24t24 10h199q83 0 137 -55t54 -136q0 -79 -49.5 -133t-129.5 -58l183 -244q7 -8 7 -21q0 -14 -10 -24t-24 -10q-18 0 -29 16
l-203 283h-101z" />
    <glyph glyph-name="S" unicode="S" horiz-adv-x="558" 
d="M443 546q-64 79 -162 79q-74 0 -109.5 -31t-35.5 -78q0 -45 39 -74.5t94.5 -47t111 -39t94.5 -65t39 -110.5q0 -94 -62 -144t-178 -50q-81 0 -143.5 35.5t-89.5 87.5q-5 10 -5 18q0 13 9 22.5t23 9.5q18 0 28 -16q58 -95 178 -95q83 0 127.5 33.5t44.5 98.5q0 43 -28 73
t-70 44.5l-91 32t-91 35.5t-70 57t-28 94q0 74 54.5 122.5t158.5 48.5q70 0 126 -27.5t88 -75.5q6 -9 6 -19q0 -13 -9.5 -22.5t-22.5 -9.5q-16 0 -26 13z" />
    <glyph glyph-name="T" unicode="T" horiz-adv-x="538" 
d="M235 609h-179q-14 0 -23 9.5t-9 22.5t9 22.5t23 9.5h425q13 0 22.5 -9.5t9.5 -22.5t-9.5 -22.5t-22.5 -9.5h-178v-583q0 -14 -10 -24t-24 -10t-24 10t-10 24v583z" />
    <glyph glyph-name="U" unicode="U" horiz-adv-x="624" 
d="M315 -14q-235 0 -235 219v442q0 14 10 24t24 10t24 -10t10 -24v-442q0 -33 7 -58.5t24.5 -48.5t51.5 -35.5t84 -12.5q94 0 130 42.5t36 112.5v442q0 14 10 24t24 10t24 -10t10 -24v-442q0 -219 -234 -219z" />
    <glyph glyph-name="V" unicode="V" horiz-adv-x="576" 
d="M288 121l203 538q8 22 32 22q14 0 24 -10t10 -24q0 -6 -3 -15l-234 -617q-8 -23 -32 -23t-32 23l-234 617q-3 9 -3 15q0 14 10 24t24 10q24 0 32 -22z" />
    <glyph glyph-name="W" unicode="W" horiz-adv-x="818" 
d="M553 18l-144 509l-144 -509q-7 -26 -33 -26t-33 25l-177 618q-2 8 -2 12q0 14 10 24t24 10q26 0 33 -25l146 -517l143 517q6 25 33 25t33 -25l143 -517l146 517q7 25 33 25q14 0 24 -10t10 -24q0 -4 -2 -12l-177 -618q-7 -25 -33 -25t-33 26z" />
    <glyph glyph-name="X" unicode="X" horiz-adv-x="500" 
d="M432 5l-182 279l-182 -279q-8 -13 -27 -13q-14 0 -24 10t-10 24q0 10 5 18l200 301l-188 284q-5 7 -5 18q0 14 10 24t24 10q18 0 30 -17l167 -256l167 256q12 17 30 17q14 0 24 -10t10 -24q0 -11 -5 -18l-188 -284l200 -301q5 -8 5 -18q0 -14 -10 -24t-24 -10
q-19 0 -27 13z" />
    <glyph glyph-name="Y" unicode="Y" 
d="M259 -8q-14 0 -24 10t-10 24v287l-201 316q-5 8 -5 18q0 14 10 24t24 10q19 0 29 -16l177 -284l177 284q10 16 29 16q14 0 24 -10t10 -24q0 -10 -5 -18l-201 -316v-287q0 -14 -10 -24t-24 -10z" />
    <glyph glyph-name="Z" unicode="Z" horiz-adv-x="513" 
d="M469 0h-420q-13 0 -22.5 9t-9.5 23q0 10 6 19l372 558h-325q-14 0 -23 9.5t-9 22.5t9 22.5t23 9.5h384q14 0 23 -9.5t9 -22.5q0 -10 -6 -19l-369 -558h358q13 0 22.5 -9t9.5 -23t-9.5 -23t-22.5 -9z" />
    <glyph glyph-name="bracketleft" unicode="[" horiz-adv-x="259" 
d="M239 -120q0 -10 -7.5 -18t-18.5 -8h-101q-14 0 -23 9t-9 23v820q0 14 9 23t23 9h101q11 0 18.5 -8t7.5 -18t-7.5 -18t-18.5 -8h-69v-780h69q11 0 18.5 -8t7.5 -18z" />
    <glyph glyph-name="backslash" unicode="\" horiz-adv-x="407" 
d="M102 728l264 -779q3 -9 3 -15q0 -14 -9.5 -23t-22.5 -9q-24 0 -31 23l-264 779q-3 9 -3 15q0 13 9.5 22.5t22.5 9.5q24 0 31 -23z" />
    <glyph glyph-name="bracketright" unicode="]" horiz-adv-x="259" 
d="M20 -120q0 10 8 18t18 8h69v780h-69q-10 0 -18 8t-8 18t8 18t18 8h101q13 0 22.5 -9t9.5 -23v-820q0 -14 -9.5 -23t-22.5 -9h-101q-10 0 -18 8t-8 18z" />
    <glyph glyph-name="asciicircum" unicode="^" horiz-adv-x="468" 
d="M379 353l-145 261l-145 -261q-7 -13 -23 -13q-11 0 -19 8t-8 19q0 7 3 13l169 298q7 13 23 13t23 -13l169 -298q3 -6 3 -13q0 -11 -8 -19t-19 -8q-16 0 -23 13z" />
    <glyph glyph-name="underscore" unicode="_" horiz-adv-x="406" 
d="M427 -70q0 -11 -8 -19t-19 -8h-394q-11 0 -19 8t-8 19t8 19t19 8h394q11 0 19 -8t8 -19z" />
    <glyph glyph-name="grave" unicode="`" horiz-adv-x="370" 
d="M249 520q-15 -13 -30 2l-97 98q-18 18 3 38q22 20 38 0l89 -108q13 -17 -3 -30z" />
    <glyph glyph-name="a" unicode="a" horiz-adv-x="467" 
d="M232 408q-71 0 -116 -51q-13 -14 -26 -14q-12 0 -20.5 8.5t-8.5 20.5q0 9 5 17q50 79 166 79q86 0 133 -46t47 -124v-275q0 -13 -9 -22t-22 -9t-22 9t-9 22v36q-18 -34 -57 -53t-86 -19q-80 0 -126.5 37.5t-46.5 105.5q0 66 47 103.5t128 37.5h141v27q0 51 -31.5 80.5
t-86.5 29.5zM213 45q56 0 96.5 34t40.5 94v42h-141q-51 0 -80.5 -21.5t-29.5 -63.5q0 -85 114 -85z" />
    <glyph glyph-name="b" unicode="b" horiz-adv-x="501" 
d="M129 322v-138q0 -69 36 -104t96 -35q141 0 141 183q0 182 -141 182q-26 0 -49.5 -9t-38 -22t-25 -26t-14.5 -22zM265 468q201 0 201 -240q0 -121 -53 -181t-152 -60q-89 0 -142.5 50.5t-53.5 146.5v496q0 14 9.5 23t22.5 9t22.5 -9t9.5 -23v-277q19 27 55 46t81 19z" />
    <glyph glyph-name="c" unicode="c" horiz-adv-x="441" 
d="M35 228q0 121 53.5 180.5t152.5 59.5q58 0 97 -22t57 -47q7 -10 7 -19q0 -13 -8.5 -21t-20.5 -8q-13 0 -24 12q-41 47 -108 47q-141 0 -141 -182q0 -183 141 -183q58 0 116 43q10 7 19 7q12 0 20.5 -8.5t8.5 -20.5q0 -13 -13 -25q-66 -54 -151 -54q-99 0 -152.5 60
t-53.5 181z" />
    <glyph glyph-name="d" unicode="d" horiz-adv-x="501" 
d="M372 184v138q-2 4 -5 9.5t-14.5 21t-25.5 27t-37.5 21t-49.5 9.5q-141 0 -141 -182q0 -183 141 -183q60 0 96 35t36 104zM236 468q45 0 81 -19t55 -46v277q0 14 9 23t23 9t23 -9t9 -23v-496q0 -96 -53.5 -146.5t-142.5 -50.5q-99 0 -152 60t-53 181q0 240 201 240z" />
    <glyph glyph-name="e" unicode="e" horiz-adv-x="466" 
d="M35 228q0 115 54 177.5t152 62.5q46 0 81 -14t55.5 -35t33 -48.5t17 -51t4.5 -46.5q0 -15 -1 -23t-4 -19t-12 -16.5t-23 -5.5h-292q0 -75 40.5 -119t110.5 -44q63 0 120 43q9 6 18 6q12 0 20.5 -8.5t8.5 -20.5t-11 -23q-56 -56 -156 -56q-103 0 -159.5 59.5t-56.5 181.5z
M369 265q0 145 -128 145q-64 0 -100 -38.5t-41 -106.5h269z" />
    <glyph glyph-name="f" unicode="f" horiz-adv-x="289" 
d="M85 394h-34q-13 0 -21.5 8.5t-8.5 21.5t8.5 21.5t21.5 8.5h34v59q0 74 43.5 123t129.5 49q13 0 21.5 -8.5t8.5 -21.5t-8.5 -21.5t-21.5 -8.5q-56 0 -82.5 -30t-26.5 -82v-59h91q13 0 21.5 -8.5t8.5 -21.5t-8.5 -21.5t-21.5 -8.5h-91v-370q0 -14 -9.5 -23t-22.5 -9
t-22.5 9t-9.5 23v370z" />
    <glyph glyph-name="g" unicode="g" horiz-adv-x="478" 
d="M229 468q63 0 107 -25q14 26 34 40t55 14q12 0 20.5 -8.5t8.5 -20.5t-8.5 -20.5t-20.5 -8.5q-34 0 -48 -31q36 -44 36 -108q0 -77 -49 -122.5t-135 -45.5q-64 0 -108 25q-18 -15 -18 -36q0 -42 74 -42h103q77 0 126 -34.5t49 -101.5q0 -74 -59 -109t-156 -35
q-57 0 -102 11.5t-78 44t-33 84.5q0 70 76 101q-28 9 -45 30.5t-17 50.5q0 43 40 70q-36 45 -36 109q0 77 49 122.5t135 45.5zM229 190q57 0 88 30t31 80t-31 80t-88 30t-88 -30t-31 -80t31 -80t88 -30zM390 -57q0 76 -110 76h-104q-84 -14 -84 -80q0 -43 42 -63.5
t107 -20.5t107 21t42 67z" />
    <glyph glyph-name="h" unicode="h" horiz-adv-x="501" 
d="M262 468q184 0 184 -177v-267q0 -14 -9 -23t-23 -9t-23 9t-9 23v254q0 65 -26 99t-94 34q-133 0 -133 -140v-247q0 -14 -9.5 -23t-22.5 -9t-22.5 9t-9.5 23v656q0 14 9.5 23t22.5 9t22.5 -9t9.5 -23v-282q15 30 50.5 50t82.5 20z" />
    <glyph glyph-name="i" unicode="i" horiz-adv-x="193" 
d="M128 430v-406q0 -14 -9 -23t-23 -9t-23 9t-9 23v406q0 14 9 23t23 9t23 -9t9 -23zM96 556q-38 0 -38 38q0 40 38 40t38 -40q0 -38 -38 -38z" />
    <glyph glyph-name="j" unicode="j" horiz-adv-x="194" 
d="M65 -35v465q0 14 9.5 23t22.5 9t22.5 -9t9.5 -23v-465q0 -64 -41.5 -107t-104.5 -43q-13 0 -21.5 8.5t-8.5 21.5t8.5 21.5t21.5 8.5q36 0 59 26t23 64zM97 556q-38 0 -38 38q0 40 38 40t38 -40q0 -38 -38 -38z" />
    <glyph glyph-name="k" unicode="k" horiz-adv-x="453" 
d="M395 -8q-16 0 -28 15l-177 227l-61 -49v-161q0 -14 -9.5 -23t-22.5 -9t-22.5 9t-9.5 23v656q0 14 9.5 23t22.5 9t22.5 -9t9.5 -23v-419l236 193q9 8 22 8t22.5 -9t9.5 -23q0 -16 -13 -26l-164 -131l178 -229q7 -8 7 -20q0 -14 -9.5 -23t-22.5 -9z" />
    <glyph glyph-name="l" unicode="l" horiz-adv-x="219" 
d="M97 712q13 0 22.5 -9.5t9.5 -22.5v-571q0 -57 40 -57q12 0 21 -8.5t9 -21.5t-9 -21.5t-21 -8.5q-104 0 -104 117v571q0 13 9.5 22.5t22.5 9.5z" />
    <glyph glyph-name="m" unicode="m" horiz-adv-x="808" 
d="M564 468q189 0 189 -177v-267q0 -14 -9.5 -23t-22.5 -9t-22.5 9t-9.5 23v254q0 64 -28 98.5t-97 34.5q-63 0 -94 -31.5t-31 -88.5v-267q0 -14 -9.5 -23t-22.5 -9t-22.5 9t-9.5 23v254q0 65 -27 99t-96 34q-123 0 -123 -140v-247q0 -14 -9.5 -23t-22.5 -9t-22.5 9t-9.5 23
v406q0 14 9.5 23t22.5 9t22.5 -9t9.5 -23v-32q14 30 49 50t81 20q117 0 159 -70q45 70 146 70z" />
    <glyph glyph-name="n" unicode="n" horiz-adv-x="501" 
d="M262 468q184 0 184 -177v-267q0 -14 -9 -23t-23 -9t-23 9t-9 23v254q0 65 -26 99t-94 34q-133 0 -133 -140v-247q0 -14 -9.5 -23t-22.5 -9t-22.5 9t-9.5 23v406q0 14 9.5 23t22.5 9t22.5 -9t9.5 -23v-32q15 30 50.5 50t82.5 20z" />
    <glyph glyph-name="o" unicode="o" horiz-adv-x="490" 
d="M245 468q100 0 155 -60t55 -180t-55 -180.5t-155 -60.5q-99 0 -154.5 60.5t-55.5 180.5t55 180t155 60zM245 45q145 0 145 183q0 182 -145 182t-145 -182q0 -183 145 -183z" />
    <glyph glyph-name="p" unicode="p" horiz-adv-x="509" 
d="M97 462q13 0 22.5 -9.5t9.5 -22.5v-32q16 28 52.5 49t83.5 21q100 0 154.5 -60t54.5 -180t-54.5 -180.5t-154.5 -60.5q-47 0 -82.5 20.5t-53.5 49.5v-226q0 -13 -9.5 -22.5t-22.5 -9.5t-22.5 9.5t-9.5 22.5v599q0 13 9.5 22.5t22.5 9.5zM127 228q0 -92 38 -137.5
t100 -45.5q144 0 144 183q0 182 -146 182q-60 0 -98 -45t-38 -137z" />
    <glyph glyph-name="q" unicode="q" horiz-adv-x="490" 
d="M372 133v138q0 69 -36 104t-96 35q-141 0 -141 -183q0 -182 141 -182q26 0 49.5 9t38 22t25 26t15.5 22zM236 -13q-201 0 -201 240q0 121 53 181t152 60q89 0 142.5 -50.5t53.5 -146.5v-440q0 -13 -9 -22.5t-23 -9.5t-23 9.5t-9 22.5v221q-19 -27 -55 -46t-81 -19z" />
    <glyph glyph-name="r" unicode="r" horiz-adv-x="309" 
d="M129 430v-44q16 36 52.5 58t86.5 22q13 0 22 -9t9 -22t-9 -22t-22 -9q-67 0 -103 -42.5t-36 -113.5v-224q0 -14 -9.5 -23t-22.5 -9t-22.5 9t-9.5 23v406q0 14 9.5 23t22.5 9t22.5 -9t9.5 -23z" />
    <glyph glyph-name="s" unicode="s" horiz-adv-x="424" 
d="M207 406q-89 0 -89 -60q0 -29 27 -48t66 -31.5t77.5 -27.5t65.5 -45t27 -74q0 -65 -47.5 -98.5t-122.5 -33.5q-57 0 -103 22t-68 50q-7 10 -7 19q0 12 8.5 20.5t20.5 8.5t22 -10q49 -49 127 -49q47 0 76.5 17t29.5 54q0 28 -27 46.5t-65.5 31t-77.5 27.5t-66 45.5
t-27 75.5q0 60 42.5 90.5t110.5 30.5q104 0 152 -64q7 -9 7 -19q0 -12 -8.5 -20.5t-20.5 -8.5t-21 9q-44 42 -109 42z" />
    <glyph glyph-name="t" unicode="t" horiz-adv-x="279" 
d="M90 454v105q0 13 9.5 22.5t22.5 9.5t22.5 -9.5t9.5 -22.5v-105h65q13 0 21.5 -8.5t8.5 -21.5t-8.5 -21.5t-21.5 -8.5h-65v-276q0 -31 16 -48.5t42 -17.5q13 0 22 -8.5t9 -21.5t-9 -21.5t-22 -8.5q-58 0 -90 35t-32 91v276h-39q-13 0 -21.5 8.5t-8.5 21.5t8.5 21.5
t21.5 8.5h39z" />
    <glyph glyph-name="u" unicode="u" horiz-adv-x="482" 
d="M87 462q13 0 22.5 -9.5t9.5 -22.5v-261q0 -56 26 -88.5t96 -32.5t96 32.5t26 88.5v261q0 13 9.5 22.5t23.5 9.5q13 0 22 -9.5t9 -22.5v-261q0 -83 -40 -132.5t-146 -49.5t-146 49.5t-40 132.5v261q0 14 9.5 23t22.5 9z" />
    <glyph glyph-name="v" unicode="v" horiz-adv-x="438" 
d="M219 -8q-21 0 -30 20l-170 404q-3 9 -3 14q0 14 9 23t23 9q22 0 30 -21l141 -345l141 345q8 21 30 21q14 0 23 -9t9 -23q0 -5 -3 -14l-170 -404q-9 -20 -30 -20z" />
    <glyph glyph-name="w" unicode="w" horiz-adv-x="640" 
d="M412 15l-92 317l-92 -317q-7 -23 -31 -23q-22 0 -30 21l-147 403q-3 8 -3 14q0 14 9.5 23t22.5 9q22 0 30 -21l116 -331l95 331q6 21 30 21t30 -21l95 -331l116 331q8 21 30 21q13 0 22.5 -9t9.5 -23q0 -6 -3 -14l-147 -403q-8 -21 -30 -21q-24 0 -31 23z" />
    <glyph glyph-name="x" unicode="x" horiz-adv-x="412" 
d="M331 5l-125 177l-125 -177q-9 -13 -26 -13q-13 0 -22.5 9t-9.5 23q0 12 6 19l137 189l-133 179q-6 10 -6 19q0 14 9.5 23t22.5 9q16 0 26 -13l121 -166l121 166q10 13 26 13q13 0 22.5 -9t9.5 -23q0 -9 -6 -19l-133 -179l137 -189q6 -8 6 -19q0 -14 -9.5 -23t-22.5 -9
q-17 0 -26 13z" />
    <glyph glyph-name="y" unicode="y" horiz-adv-x="438" 
d="M35 -141q26 0 46 8t32.5 18t27 35.5t22 42t23.5 56.5l-167 397q-3 9 -3 14q0 14 9 23t23 9q22 0 30 -21l141 -345l141 345q8 21 30 21q14 0 23 -9t9 -23q0 -5 -3 -14l-197 -469q-32 -76 -75 -112t-112 -36q-13 0 -21.5 8.5t-8.5 21.5t8.5 21.5t21.5 8.5z" />
    <glyph glyph-name="z" unicode="z" horiz-adv-x="405" 
d="M38 424q0 13 8.5 21.5t21.5 8.5h274q13 0 21.5 -8.5t8.5 -21.5q0 -11 -7 -20l-249 -342h231q13 0 22 -9t9 -22t-9 -22t-22 -9h-293q-13 0 -21.5 8.5t-8.5 21.5q0 11 7 20l252 344h-215q-13 0 -21.5 8.5t-8.5 21.5z" />
    <glyph glyph-name="braceleft" unicode="{" horiz-adv-x="338" 
d="M312 -118q0 -11 -8.5 -19.5t-19.5 -8.5q-71 0 -106 34t-35 83q0 26 6 104t6 106q0 54 -26 73t-74 19h-7q-10 0 -16.5 6.5t-6.5 16.5t6.5 16.5t16.5 6.5h7q48 0 74 19t26 74q0 32 -6 94t-6 116q0 48 35.5 82t105.5 34q11 0 19.5 -8.5t8.5 -19.5t-8.5 -19.5t-19.5 -8.5
q-74 0 -74 -73q0 -23 4 -92t4 -97q0 -55 -31.5 -89.5t-89.5 -34.5q58 0 89.5 -34.5t31.5 -89.5q0 -24 -4 -95t-4 -94q0 -73 74 -73q11 0 19.5 -8.5t8.5 -19.5z" />
    <glyph glyph-name="bar" unicode="|" horiz-adv-x="216" 
d="M141 775v-902q0 -13 -9.5 -23t-23.5 -10t-23.5 10t-9.5 23v902q0 13 9.5 23t23.5 10t23.5 -10t9.5 -23z" />
    <glyph glyph-name="braceright" unicode="}" horiz-adv-x="338" 
d="M26 -118q0 11 8.5 19.5t19.5 8.5q74 0 74 73q0 23 -4 94t-4 95q0 55 31.5 89.5t89.5 34.5q-58 0 -89.5 34.5t-31.5 89.5q0 28 4 97t4 92q0 73 -74 73q-11 0 -19.5 8.5t-8.5 19.5t8.5 19.5t19.5 8.5q70 0 105.5 -34t35.5 -82q0 -54 -6 -116t-6 -94q0 -55 26 -74t74 -19h7
q10 0 16.5 -6.5t6.5 -16.5t-6.5 -16.5t-16.5 -6.5h-7q-48 0 -74 -19t-26 -73q0 -28 6 -106t6 -104q0 -49 -35 -83t-106 -34q-11 0 -19.5 8.5t-8.5 19.5z" />
    <glyph glyph-name="asciitilde" unicode="~" horiz-adv-x="477" 
d="M329 293q18 0 30.5 7.5t17 14t10.5 19.5q8 16 25 16q10 0 18 -8t8 -18q0 -6 -2 -12q-10 -31 -37 -51.5t-70 -20.5t-98.5 32.5t-83.5 32.5q-18 0 -30.5 -7.5t-17 -14t-10.5 -19.5q-8 -16 -25 -16q-10 0 -18 8t-8 18q0 6 2 12q10 31 37 51.5t70 20.5q41 0 97.5 -32.5
t84.5 -32.5z" />
    <glyph glyph-name="nbspace" unicode="&#xa0;" horiz-adv-x="283" 
 />
    <glyph glyph-name="exclamdown" unicode="&#xa1;" horiz-adv-x="208" 
d="M104 -221q-36 0 -35 35l15 471q0 18 20 18t20 -18l15 -471q1 -35 -35 -35zM104 468q47 0 47 -47q0 -48 -47 -48t-47 48q0 47 47 47z" />
    <glyph glyph-name="cent" unicode="&#xa2;" horiz-adv-x="441" 
d="M35 228q0 222 180 238v57q0 11 7.5 18.5t18.5 7.5t18.5 -7.5t7.5 -18.5v-57q48 -5 80 -25.5t48 -41.5q7 -10 7 -19q0 -13 -8.5 -21t-20.5 -8q-13 0 -24 12q-41 47 -108 47q-141 0 -141 -182q0 -183 141 -183q58 0 116 43q10 7 19 7q12 0 20.5 -8.5t8.5 -20.5
q0 -13 -13 -25q-57 -46 -125 -53v-69q0 -11 -7.5 -18.5t-18.5 -7.5t-18.5 7.5t-7.5 18.5v70q-180 16 -180 239z" />
    <glyph glyph-name="sterling" unicode="&#xa3;" horiz-adv-x="591" 
d="M524 119q14 0 23 -9.5t9 -22.5q0 -8 -4 -16q-44 -86 -145 -86q-32 0 -92.5 23.5t-93.5 23.5q-16 0 -30 -2.5t-25.5 -7.5t-18.5 -8.5t-15.5 -9.5t-9.5 -6q-12 -7 -20 -7q-14 0 -23 9.5t-9 22.5q0 14 14 27q28 23 54 68.5t26 80.5q0 36 -22 83h-48q-13 0 -21.5 8.5
t-8.5 21.5t8.5 21.5t21.5 8.5h19q-42 79 -42 155q0 83 59 136.5t156 53.5q168 0 222 -133q3 -8 3 -14q0 -14 -9.5 -23t-22.5 -9q-21 0 -31 23q-39 95 -162 95q-66 0 -108.5 -35t-42.5 -94q0 -66 51 -155h175q13 0 21.5 -8.5t8.5 -21.5t-8.5 -21.5t-21.5 -8.5h-149
q15 -33 15 -83q0 -70 -59 -123q22 13 52 13q40 0 98 -21.5t83 -21.5q67 0 94 55q9 18 29 18z" />
    <glyph glyph-name="currency" unicode="&#xa4;" horiz-adv-x="467" 
d="M235 126q-62 0 -108 35l-46 -46q-10 -10 -22 -10q-13 0 -21.5 9t-8.5 22t10 23l45 47q-31 47 -31 106q0 56 32 108l-47 48q-9 10 -9 22q0 13 8.5 22t21.5 9q12 0 22 -10l46 -48q52 35 108 35q60 0 106 -33l45 46q9 10 22 10t22 -9t9 -22q0 -12 -11 -23l-45 -46
q32 -47 32 -109q0 -57 -32 -107l45 -46q11 -13 11 -23q0 -13 -9 -22t-22 -9t-22 10l-44 45q-45 -34 -107 -34zM235 187q52 0 84.5 36t32.5 89t-32.5 89t-84.5 36q-51 0 -85 -36.5t-34 -88.5t34 -88.5t85 -36.5z" />
    <glyph glyph-name="yen" unicode="&#xa5;" 
d="M435 190q0 -11 -8 -19t-19 -8h-115v-137q0 -14 -10 -24t-24 -10t-24 10t-10 24v137h-115q-11 0 -19 8t-8 19t8 19t19 8h115v47h-115q-11 0 -19 8t-8 19t8 19t19 8h112l-198 311q-5 8 -5 18q0 14 10 24t24 10q19 0 29 -16l177 -284l177 284q10 16 29 16q14 0 24 -10
t10 -24q0 -10 -5 -18l-198 -311h112q11 0 19 -8t8 -19t-8 -19t-19 -8h-115v-47h115q11 0 19 -8t8 -19z" />
    <glyph glyph-name="brokenbar" unicode="&#xa6;" horiz-adv-x="216" 
d="M141 775v-386q0 -13 -9.5 -23t-23.5 -10t-23.5 10t-9.5 23v386q0 13 9.5 23t23.5 10t23.5 -10t9.5 -23zM141 260v-387q0 -13 -9.5 -23t-23.5 -10t-23.5 10t-9.5 23v387q0 14 9.5 23.5t23.5 9.5t23.5 -9.5t9.5 -23.5z" />
    <glyph glyph-name="section" unicode="&#xa7;" horiz-adv-x="504" 
d="M401 206q0 39 -30.5 67.5t-67 42t-87.5 30.5t-74 30q-40 -34 -40 -97q0 -39 30 -67.5t67 -41.5l88 -30t74 -30q40 34 40 96zM36 279q0 75 54 134q-39 47 -39 110q0 72 52 118t156 46q125 0 197 -90q7 -9 7 -19q0 -13 -9 -22t-22 -9t-24 11q-68 68 -149 68q-72 0 -107 -29
t-35 -74q0 -47 36 -76.5t87.5 -45t103 -34t87.5 -58.5t36 -103q0 -74 -54 -133q39 -47 39 -110q0 -72 -52 -118t-156 -46q-125 0 -197 90q-7 9 -7 19q0 13 9 22t22 9t24 -11q68 -68 149 -68q72 0 107 29t35 74q0 47 -36 76t-87.5 45t-103 34t-87.5 58t-36 103z" />
    <glyph glyph-name="dieresis" unicode="&#xa8;" horiz-adv-x="317" 
d="M80 534q-36 0 -36 37q0 38 36 38t36 -38q0 -37 -36 -37zM237 534q-36 0 -36 37q0 38 36 38t36 -38q0 -37 -36 -37z" />
    <glyph glyph-name="copyright" unicode="&#xa9;" horiz-adv-x="801" 
d="M397 155q-157 0 -157 182q0 183 157 183q44 0 78 -18.5t46 -40.5q3 -6 3 -12q0 -11 -7 -18t-18 -7t-20 9q-37 37 -82 37q-52 0 -77 -30.5t-25 -102.5q0 -132 102 -132q52 0 82 30q10 10 20 10q11 0 18 -7.5t7 -17.5q0 -8 -6 -16q-39 -49 -121 -49zM400 687
q170 0 259 -87.5t89 -263.5q0 -175 -89.5 -262.5t-258.5 -87.5q-167 0 -257 88t-90 262q0 175 90 263t257 88zM400 38q293 0 293 298q0 299 -293 299q-145 0 -217 -73.5t-72 -225.5t72 -225t217 -73z" />
    <glyph glyph-name="ordfeminine" unicode="&#xaa;" horiz-adv-x="342" 
d="M321 288q0 -8 -5.5 -13.5t-13.5 -5.5h-262q-8 0 -13.5 5.5t-5.5 13.5t5.5 13.5t13.5 5.5h262q8 0 13.5 -5.5t5.5 -13.5zM175 648q-40 0 -71 -33q-7 -7 -16 -7q-8 0 -14 6t-6 14q0 6 5 14q33 45 102 45q65 0 96.5 -29t31.5 -79v-192q0 -9 -6.5 -15.5t-15.5 -6.5t-15.5 6.5
t-6.5 15.5v19q-29 -45 -92 -45q-56 0 -88.5 26t-32.5 72q0 48 33.5 72.5t90.5 24.5h89v24q0 68 -84 68zM167 398q40 0 66 22t26 62v37h-89q-80 0 -80 -60q0 -61 77 -61z" />
    <glyph glyph-name="guillemotleft" unicode="&#xab;" horiz-adv-x="522" 
d="M78 212q0 9 7 18l163 192q8 9 18 9t17 -7t7 -17q0 -9 -7 -17l-153 -178l153 -178q7 -8 7 -17q0 -10 -7 -17t-17 -7t-18 9l-163 192q-7 9 -7 18zM232 212q0 9 7 18l163 192q8 9 18 9t17 -7t7 -17q0 -9 -7 -17l-153 -178l153 -178q7 -8 7 -17q0 -10 -7 -17t-17 -7t-18 9
l-163 192q-7 9 -7 18z" />
    <glyph glyph-name="logicalnot" unicode="&#xac;" horiz-adv-x="563" 
d="M527 279v-257q0 -13 -8.5 -21.5t-21.5 -8.5t-21.5 8.5t-8.5 21.5v233h-404q-11 0 -19 8t-8 19t8 19t19 8h434q13 0 21.5 -8.5t8.5 -21.5z" />
    <glyph glyph-name="registered" unicode="&#xae;" horiz-adv-x="377" 
d="M187 687q149 0 149 -152q0 -153 -149 -153q-70 0 -108.5 38.5t-38.5 114.5t38.5 114t108.5 38zM188 406q120 0 120 129q0 67 -30 97.5t-90 30.5q-120 0 -120 -128q0 -129 120 -129zM179 518h-23v-49q0 -13 -13 -13t-13 13v131q0 13 13 13h55q22 0 36 -13.5t14 -33.5
q0 -19 -12.5 -33.5t-28.5 -14.5l33 -41q3 -4 3 -8q0 -13 -12 -13q-7 0 -11 6zM156 540h42q24 0 24 26q0 25 -24 25h-42v-51z" />
    <glyph glyph-name="macron" unicode="&#xaf;" horiz-adv-x="382" 
d="M309 562q0 -10 -7.5 -17.5t-17.5 -7.5h-186q-10 0 -17.5 7.5t-7.5 17.5t7.5 17.5t17.5 7.5h186q10 0 17.5 -7.5t7.5 -17.5z" />
    <glyph glyph-name="degree" unicode="&#xb0;" horiz-adv-x="358" 
d="M315 550q0 -56 -40 -96t-97 -40q-56 0 -96 40t-40 96t40 96.5t96 40.5q57 0 97 -40.5t40 -96.5zM277 550q0 41 -28.5 70t-70.5 29q-41 0 -69.5 -29t-28.5 -70t28.5 -69.5t69.5 -28.5q42 0 70.5 28.5t28.5 69.5z" />
    <glyph glyph-name="plusminus" unicode="&#xb1;" horiz-adv-x="454" 
d="M454 307q0 -11 -8 -19t-19 -8h-171v-171q0 -12 -8.5 -20.5t-20.5 -8.5t-20.5 8.5t-8.5 20.5v171h-171q-11 0 -19 8t-8 19t8 19t19 8h171v170q0 12 8.5 20.5t20.5 8.5t20.5 -8.5t8.5 -20.5v-170h171q11 0 19 -8t8 -19zM454 27q0 -11 -8 -19t-19 -8h-400q-11 0 -19 8t-8 19
t8 19t19 8h400q11 0 19 -8t8 -19z" />
    <glyph glyph-name="twosuperior" unicode="&#xb2;" horiz-adv-x="266" 
d="M35 677q22 53 97 53q50 0 79 -23.5t29 -65.5q0 -32 -25 -59t-55.5 -41.5t-55.5 -32.5t-25 -35h135q10 0 17 -7t7 -17t-7 -17t-17 -7h-167q-10 0 -17 7t-7 17q0 39 26 68.5t56.5 43.5t56.5 34.5t26 45.5q0 18 -14.5 30t-41.5 12q-37 0 -57 -29q-8 -10 -19 -10
q-10 0 -16.5 6.5t-6.5 16.5q0 5 2 10z" />
    <glyph glyph-name="threesuperior" unicode="&#xb3;" horiz-adv-x="259" 
d="M212 681l-68 -70q46 0 68 -27t22 -65q0 -46 -29 -73t-87 -27q-70 0 -101 58q-4 8 -4 14q0 10 6.5 16.5t16.5 6.5q13 0 21 -13q20 -34 61 -34q63 0 63 52q0 48 -60 48h-22q-10 0 -17 7t-7 17q0 9 6 16l62 67h-93q-10 0 -17.5 7t-7.5 18t7.5 18t17.5 7h144q10 0 17.5 -7
t7.5 -18q0 -12 -7 -18z" />
    <glyph glyph-name="acute" unicode="&#xb4;" horiz-adv-x="370" 
d="M121 520q-16 13 -3 30l89 108q16 20 38 0q21 -20 3 -38l-97 -98q-15 -15 -30 -2z" />
    <glyph glyph-name="mu" unicode="&#xb5;" horiz-adv-x="482" 
d="M119 430v-261q0 -56 26 -88.5t96 -32.5t96 32.5t26 88.5v261q0 13 9.5 22.5t23.5 9.5q13 0 22 -9.5t9 -22.5v-261q0 -83 -40 -132.5t-146 -49.5q-78 0 -122 46v-206q0 -13 -9.5 -22.5t-22.5 -9.5t-22.5 9.5t-9.5 22.5v603q0 14 9.5 23t22.5 9t22.5 -9.5t9.5 -22.5z" />
    <glyph glyph-name="paragraph" unicode="&#xb6;" horiz-adv-x="513" 
d="M465 643q0 -13 -8.5 -21.5t-21.5 -8.5h-27v-314q0 -165 -71.5 -248.5t-209.5 -83.5q-46 0 -65 9q-20 8 -20 29q0 13 9 22t22 9q5 0 11 -2q24 -7 43 -7q56 0 83.5 46t27.5 123v152h-33q-67 0 -114 47.5t-47 115.5q0 67 47 114.5t114 47.5h230q13 0 21.5 -8.5t8.5 -21.5z
M344 613h-42v-402q0 -107 -65 -172q58 31 82.5 94t24.5 166v314z" />
    <glyph glyph-name="periodcentered" unicode="&#xb7;" horiz-adv-x="164" 
d="M81 253q-47 0 -47 47q0 48 47 48t47 -48q0 -47 -47 -47z" />
    <glyph glyph-name="cedilla" unicode="&#xb8;" horiz-adv-x="315" 
d="M244 -139q0 -85 -97 -85q-38 0 -64 18q-8 6 -8 15q0 8 5.5 13.5t12.5 5.5q6 0 12 -3q20 -10 42 -10q28 0 40.5 9.5t12.5 36.5q0 46 -44 46q-9 0 -22.5 -2t-18.5 -2q-19 0 -18 22l3 75h35l-5 -59q18 2 27 2q87 0 87 -82z" />
    <glyph glyph-name="onesuperior" unicode="&#xb9;" horiz-adv-x="196" 
d="M99 656l-30 -21q-9 -7 -18 -7q-10 0 -17.5 7.5t-7.5 17.5q0 13 12 21l72 48q7 5 15 5q11 0 18.5 -7.5t7.5 -18.5v-253q0 -10 -7.5 -18t-18.5 -8t-18.5 8t-7.5 18v208z" />
    <glyph glyph-name="ordmasculine" unicode="&#xba;" horiz-adv-x="348" 
d="M174 400q98 0 98 124t-98 124t-98 -124t98 -124zM329 288q0 -8 -5.5 -13.5t-13.5 -5.5h-272q-8 0 -13.5 5.5t-5.5 13.5t5.5 13.5t13.5 5.5h272q8 0 13.5 -5.5t5.5 -13.5zM174 687q143 0 143 -163t-143 -163t-143 163t143 163z" />
    <glyph glyph-name="guillemotright" unicode="&#xbb;" horiz-adv-x="522" 
d="M444 212q0 -9 -7 -18l-163 -192q-8 -9 -18 -9t-17 7t-7 17q0 9 7 17l153 178l-153 178q-7 8 -7 17q0 10 7 17t17 7t18 -9l163 -192q7 -9 7 -18zM290 212q0 -9 -7 -18l-163 -192q-8 -9 -18 -9t-17 7t-7 17q0 9 7 17l153 178l-153 178q-7 8 -7 17q0 10 7 17t17 7t18 -9
l163 -192q7 -9 7 -18z" />
    <glyph glyph-name="onequarter" unicode="&#xbc;" horiz-adv-x="492" 
d="M101 613l-30 -21q-9 -7 -18 -7q-10 0 -17.5 7.5t-7.5 17.5q0 13 12 21l72 48q7 5 15 5q11 0 18.5 -8t7.5 -18v-253q0 -11 -7.5 -18.5t-18.5 -7.5t-18.5 7.5t-7.5 18.5v208zM424 107h16q10 0 17 -7t7 -17t-7 -17t-17 -7h-16v-41q0 -10 -8 -18t-18 -8t-18 8t-8 18v41h-111
q-10 0 -17 7t-7 17q0 9 6 16l134 187q9 11 21 11q10 0 18 -7.5t8 -18.5v-164zM305 107h67v96zM89 29l246 636q5 16 24 16q11 0 19 -8t8 -19q0 -8 -2 -10l-245 -634q-4 -18 -25 -18q-11 0 -19 8t-8 19q0 6 2 10z" />
    <glyph glyph-name="onehalf" unicode="&#xbd;" horiz-adv-x="527" 
d="M101 613l-30 -21q-9 -7 -18 -7q-10 0 -17.5 7.5t-7.5 17.5q0 13 12 21l72 48q7 5 15 5q11 0 18.5 -8t7.5 -18v-253q0 -11 -7.5 -18.5t-18.5 -7.5t-18.5 7.5t-7.5 18.5v208zM296 252q22 53 97 53q50 0 79 -23.5t29 -65.5q0 -32 -25 -59t-55.5 -41.5t-55.5 -32.5t-25 -35
h135q10 0 17 -7t7 -17t-7 -17t-17 -7h-167q-10 0 -17 7t-7 17q0 39 26 68.5t56.5 43.5t56.5 34.5t26 45.5q0 18 -14.5 30t-41.5 12q-37 0 -57 -29q-8 -10 -19 -10q-10 0 -16.5 6.5t-6.5 16.5q0 5 2 10zM89 29l246 636q7 16 24 16q11 0 19 -8t8 -19q0 -8 -2 -10l-245 -634
q-7 -18 -25 -18q-11 0 -19 8t-8 19q0 6 2 10z" />
    <glyph glyph-name="threequarters" unicode="&#xbe;" horiz-adv-x="579" 
d="M480 107h16q10 0 17 -7t7 -17t-7 -17t-17 -7h-16v-41q0 -10 -8 -18t-18 -8t-18 8t-8 18v41h-111q-10 0 -17 7t-7 17q0 9 6 16l134 187q9 11 21 11q10 0 18 -7.5t8 -18.5v-164zM361 107h67v96zM222 638l-68 -70q46 0 68 -27t22 -65q0 -46 -29 -73t-87 -27q-70 0 -101 58
q-4 8 -4 14q0 10 6.5 16.5t16.5 6.5q13 0 21 -13q20 -34 61 -34q63 0 63 52q0 48 -60 48h-22q-10 0 -17 7t-7 17q0 8 6 16l62 67h-93q-10 0 -17.5 7.5t-7.5 17.5t7.5 17.5t17.5 7.5h144q10 0 17.5 -7.5t7.5 -17.5q0 -12 -7 -18zM145 29l246 636q5 16 24 16q11 0 19 -8t8 -19
q0 -8 -2 -10l-245 -634q-4 -18 -25 -18q-11 0 -19 8t-8 19q0 6 2 10z" />
    <glyph glyph-name="questiondown" unicode="&#xbf;" horiz-adv-x="461" 
d="M276 302q32 -32 32 -85q0 -36 -21.5 -64t-52 -47.5l-61.5 -39.5t-52.5 -51.5t-21.5 -72.5q0 -54 35 -82t99 -28q60 0 94 30t34 90q0 14 9.5 23.5t23.5 9.5t23.5 -9.5t9.5 -23.5q0 -84 -51 -131.5t-143 -47.5q-93 0 -145.5 44t-52.5 125q0 49 21 87.5t51.5 62t61 43
t51.5 40t21 42.5q0 19 -14 40q-8 12 -8 22q0 15 10.5 24t22.5 9q14 0 24 -10zM256 468q47 0 47 -47q0 -48 -47 -48t-47 48q0 47 47 47z" />
    <glyph glyph-name="Agrave" unicode="&#xc0;" horiz-adv-x="613" 
d="M425 261l-119 306l-118 -306h237zM446 199h-279l-73 -183q-9 -24 -33 -24q-14 0 -24 10t-10 24q0 9 3 15l244 617q10 23 32 23q23 0 33 -23l244 -617q3 -7 3 -15q0 -14 -10 -24t-25 -10q-24 0 -33 23zM358 724q-15 -13 -30 2l-97 98q-18 18 3 38q22 20 38 0l89 -108
q13 -17 -3 -30z" />
    <glyph glyph-name="Aacute" unicode="&#xc1;" horiz-adv-x="613" 
d="M425 261l-119 306l-118 -306h237zM446 199h-279l-73 -183q-9 -24 -33 -24q-14 0 -24 10t-10 24q0 9 3 15l244 617q10 23 32 23q23 0 33 -23l244 -617q3 -7 3 -15q0 -14 -10 -24t-25 -10q-24 0 -33 23zM254 724q-16 13 -3 30l89 108q16 20 38 0q21 -20 3 -38l-97 -98
q-15 -15 -30 -2z" />
    <glyph glyph-name="Acircumflex" unicode="&#xc2;" horiz-adv-x="613" 
d="M425 261l-119 306l-118 -306h237zM446 199h-279l-73 -183q-9 -24 -33 -24q-14 0 -24 10t-10 24q0 9 3 15l244 617q10 23 32 23q23 0 33 -23l244 -617q3 -7 3 -15q0 -14 -10 -24t-25 -10q-24 0 -33 23zM387 725l-81 68l-81 -68q-6 -6 -16 -6t-17 7t-7 17q0 11 9 19l96 79
q8 6 16 6t16 -6l96 -79q9 -8 9 -19q0 -10 -7 -17t-17 -7t-16 6z" />
    <glyph glyph-name="Atilde" unicode="&#xc3;" horiz-adv-x="613" 
d="M425 261l-119 306l-118 -306h237zM446 199h-279l-73 -183q-9 -24 -33 -24q-14 0 -24 10t-10 24q0 9 3 15l244 617q10 23 32 23q23 0 33 -23l244 -617q3 -7 3 -15q0 -14 -10 -24t-25 -10q-24 0 -33 23zM248 819q26 0 62 -19.5t56 -19.5q25 0 46 28q8 11 20 11q10 0 17 -7
t7 -17q0 -6 -3 -12q-26 -52 -87 -52q-26 0 -62 19.5t-56 19.5q-25 0 -46 -28q-8 -11 -20 -11q-10 0 -17 7t-7 17q0 6 3 12q26 52 87 52z" />
    <glyph glyph-name="Adieresis" unicode="&#xc4;" horiz-adv-x="613" 
d="M425 261l-119 306l-118 -306h237zM446 199h-279l-73 -183q-9 -24 -33 -24q-14 0 -24 10t-10 24q0 9 3 15l244 617q10 23 32 23q23 0 33 -23l244 -617q3 -7 3 -15q0 -14 -10 -24t-25 -10q-24 0 -33 23zM228 741q-36 0 -36 37q0 38 36 38t36 -38q0 -37 -36 -37zM385 741
q-36 0 -36 37q0 38 36 38t36 -38q0 -37 -36 -37z" />
    <glyph glyph-name="Aring" unicode="&#xc5;" horiz-adv-x="613" 
d="M425 261l-119 306l-118 -306h237zM446 199h-279l-73 -183q-9 -24 -33 -24q-14 0 -24 10t-10 24q0 9 3 15l244 617q10 23 32 23q23 0 33 -23l244 -617q3 -7 3 -15q0 -14 -10 -24t-25 -10q-24 0 -33 23zM306 703q-104 0 -104 98t104 98t104 -98t-104 -98zM306 861
q-34 0 -48 -14.5t-14 -45.5q0 -30 14.5 -45t47.5 -15t47.5 15t14.5 45q0 31 -14 45.5t-48 14.5z" />
    <glyph glyph-name="AE" unicode="&#xc6;" horiz-adv-x="841" 
d="M769 0h-332q-14 0 -24 10t-10 24v165h-211l-119 -191q-9 -16 -29 -16q-14 0 -24.5 10.5t-10.5 24.5q0 9 7 20l392 610q11 16 29 16h321q13 0 22 -9t9 -22t-9 -22t-22 -9h-287v-241h220q13 0 22 -9t9 -22t-9 -22t-22 -9h-220v-246h298q13 0 22 -9t9 -22t-9 -22t-22 -9z
M228 261h175v280z" />
    <glyph glyph-name="Ccedilla" unicode="&#xc7;" horiz-adv-x="631" 
d="M441 -139q0 -85 -97 -85q-38 0 -64 18q-8 6 -8 15q0 8 5.5 13.5t12.5 5.5q6 0 12 -3q20 -10 42 -10q28 0 40.5 9.5t12.5 36.5q0 46 -44 46q-9 0 -22.5 -2t-18.5 -2q-19 0 -18 22l2 65q-252 30 -252 346q0 174 81.5 262.5t230.5 88.5q71 0 130 -28.5t95 -77.5q7 -10 7 -21
q0 -14 -9 -23t-23 -9q-16 0 -26 13q-27 37 -73.5 60.5t-100.5 23.5q-117 0 -179.5 -72t-62.5 -217q0 -151 61 -219.5t181 -68.5q52 0 99 21t75 61q9 13 26 13q14 0 23 -9.5t9 -22.5q0 -10 -6 -19q-33 -48 -95 -77t-131 -29l-25 1l-4 -46q18 2 27 2q87 0 87 -82z" />
    <glyph glyph-name="Egrave" unicode="&#xc8;" 
d="M446 0h-332q-14 0 -24 10t-10 24v605q0 14 10 24t24 10h321q13 0 22 -9t9 -22t-9 -22t-22 -9h-287v-241h220q13 0 22 -9t9 -22t-9 -22t-22 -9h-220v-246h298q13 0 22 -9t9 -22t-9 -22t-22 -9zM337 724q-15 -13 -30 2l-97 98q-18 18 3 38q22 20 38 0l89 -108
q13 -17 -3 -30z" />
    <glyph glyph-name="Eacute" unicode="&#xc9;" 
d="M446 0h-332q-14 0 -24 10t-10 24v605q0 14 10 24t24 10h321q13 0 22 -9t9 -22t-9 -22t-22 -9h-287v-241h220q13 0 22 -9t9 -22t-9 -22t-22 -9h-220v-246h298q13 0 22 -9t9 -22t-9 -22t-22 -9zM227 724q-16 13 -3 30l89 108q16 20 38 0q21 -20 3 -38l-97 -98
q-15 -15 -30 -2z" />
    <glyph glyph-name="Ecircumflex" unicode="&#xca;" 
d="M446 0h-332q-14 0 -24 10t-10 24v605q0 14 10 24t24 10h321q13 0 22 -9t9 -22t-9 -22t-22 -9h-287v-241h220q13 0 22 -9t9 -22t-9 -22t-22 -9h-220v-246h298q13 0 22 -9t9 -22t-9 -22t-22 -9zM367 725l-81 68l-81 -68q-6 -6 -16 -6t-17 7t-7 17q0 11 9 19l96 79q8 6 16 6
t16 -6l96 -79q9 -8 9 -19q0 -10 -7 -17t-17 -7t-16 6z" />
    <glyph glyph-name="Edieresis" unicode="&#xcb;" 
d="M446 0h-332q-14 0 -24 10t-10 24v605q0 14 10 24t24 10h321q13 0 22 -9t9 -22t-9 -22t-22 -9h-287v-241h220q13 0 22 -9t9 -22t-9 -22t-22 -9h-220v-246h298q13 0 22 -9t9 -22t-9 -22t-22 -9zM205 741q-36 0 -36 37q0 38 36 38t36 -38q0 -37 -36 -37zM362 741
q-36 0 -36 37q0 38 36 38t36 -38q0 -37 -36 -37z" />
    <glyph glyph-name="Igrave" unicode="&#xcc;" horiz-adv-x="228" 
d="M148 647v-621q0 -14 -10 -24t-24 -10t-24 10t-10 24v621q0 14 10 24t24 10t24 -10t10 -24zM166 724q-15 -13 -30 2l-97 98q-18 18 3 38q22 20 38 0l89 -108q13 -17 -3 -30z" />
    <glyph glyph-name="Iacute" unicode="&#xcd;" horiz-adv-x="228" 
d="M148 647v-621q0 -14 -10 -24t-24 -10t-24 10t-10 24v621q0 14 10 24t24 10t24 -10t10 -24zM62 724q-16 13 -3 30l89 108q16 20 38 0q21 -20 3 -38l-97 -98q-15 -15 -30 -2z" />
    <glyph glyph-name="Icircumflex" unicode="&#xce;" horiz-adv-x="228" 
d="M148 647v-621q0 -14 -10 -24t-24 -10t-24 10t-10 24v621q0 14 10 24t24 10t24 -10t10 -24zM196 725l-81 68l-81 -68q-6 -6 -16 -6t-17 7t-7 17q0 11 9 19l96 79q8 6 16 6t16 -6l96 -79q9 -8 9 -19q0 -10 -7 -17t-17 -7t-16 6z" />
    <glyph glyph-name="Idieresis" unicode="&#xcf;" horiz-adv-x="228" 
d="M148 647v-621q0 -14 -10 -24t-24 -10t-24 10t-10 24v621q0 14 10 24t24 10t24 -10t10 -24zM36 741q-36 0 -36 37q0 38 36 38t36 -38q0 -37 -36 -37zM193 741q-36 0 -36 37q0 38 36 38t36 -38q0 -37 -36 -37z" />
    <glyph glyph-name="Eth" unicode="&#xd0;" horiz-adv-x="609" 
d="M114 673h141q151 0 230.5 -79.5t79.5 -257.5t-79.5 -257t-230.5 -79h-141q-14 0 -24 10t-10 24v283h-31q-13 0 -22 9t-9 22t9 22t22 9h31v260q0 14 10 24t24 10zM373 348q0 -13 -9.5 -22t-22.5 -9h-193v-253h107q119 0 180.5 61.5t61.5 210.5q0 148 -62 210.5t-180 62.5
h-107v-230h193q13 0 22.5 -9t9.5 -22z" />
    <glyph glyph-name="Ntilde" unicode="&#xd1;" horiz-adv-x="620" 
d="M517 681q13 0 23 -9.5t10 -23.5v-622q0 -14 -10 -24t-24 -10q-17 0 -28 14l-352 531v-512q0 -13 -10 -23t-23 -10t-23 10t-10 23v623q0 14 10 23.5t23 9.5q17 0 27 -14l354 -532v513q0 14 10 23.5t23 9.5zM260 819q26 0 62 -19.5t56 -19.5q25 0 46 28q8 11 20 11
q10 0 17 -7t7 -17q0 -6 -3 -12q-26 -52 -87 -52q-26 0 -62 19.5t-56 19.5q-25 0 -46 -28q-8 -11 -20 -11q-10 0 -17 7t-7 17q0 6 3 12q26 52 87 52z" />
    <glyph glyph-name="Ograve" unicode="&#xd2;" horiz-adv-x="712" 
d="M356 -14q148 0 230 88.5t82 261.5q0 174 -81.5 262.5t-230.5 88.5t-230.5 -88.5t-81.5 -262.5q0 -173 82 -261.5t230 -88.5zM356 625q117 0 179.5 -72t62.5 -217q0 -144 -62.5 -216t-179.5 -72t-179.5 72t-62.5 216q0 145 62.5 217t179.5 72zM420 724q-15 -13 -30 2
l-97 98q-18 18 3 38q22 20 38 0l89 -108q13 -17 -3 -30z" />
    <glyph glyph-name="Oacute" unicode="&#xd3;" horiz-adv-x="712" 
d="M356 -14q148 0 230 88.5t82 261.5q0 174 -81.5 262.5t-230.5 88.5t-230.5 -88.5t-81.5 -262.5q0 -173 82 -261.5t230 -88.5zM356 625q117 0 179.5 -72t62.5 -217q0 -144 -62.5 -216t-179.5 -72t-179.5 72t-62.5 216q0 145 62.5 217t179.5 72zM301 724q-16 13 -3 30
l89 108q16 20 38 0q21 -20 3 -38l-97 -98q-15 -15 -30 -2z" />
    <glyph glyph-name="Ocircumflex" unicode="&#xd4;" horiz-adv-x="712" 
d="M356 -14q148 0 230 88.5t82 261.5q0 174 -81.5 262.5t-230.5 88.5t-230.5 -88.5t-81.5 -262.5q0 -173 82 -261.5t230 -88.5zM356 625q117 0 179.5 -72t62.5 -217q0 -144 -62.5 -216t-179.5 -72t-179.5 72t-62.5 216q0 145 62.5 217t179.5 72zM440 725l-81 68l-81 -68
q-6 -6 -16 -6t-17 7t-7 17q0 11 9 19l96 79q8 6 16 6t16 -6l96 -79q9 -8 9 -19q0 -10 -7 -17t-17 -7t-16 6z" />
    <glyph glyph-name="Otilde" unicode="&#xd5;" horiz-adv-x="712" 
d="M356 -14q148 0 230 88.5t82 261.5q0 174 -81.5 262.5t-230.5 88.5t-230.5 -88.5t-81.5 -262.5q0 -173 82 -261.5t230 -88.5zM356 625q117 0 179.5 -72t62.5 -217q0 -144 -62.5 -216t-179.5 -72t-179.5 72t-62.5 216q0 145 62.5 217t179.5 72zM297 819q25 0 62 -19.5
t56 -19.5q25 0 46 28q8 11 20 11q10 0 17 -7t7 -17q0 -6 -3 -12q-26 -52 -87 -52q-26 0 -62 19.5t-56 19.5q-25 0 -46 -28q-8 -11 -20 -11q-10 0 -17 7t-7 17q0 6 3 12q26 52 87 52z" />
    <glyph glyph-name="Odieresis" unicode="&#xd6;" horiz-adv-x="713" 
d="M356 -14q148 0 230 88.5t82 261.5q0 174 -81.5 262.5t-230.5 88.5t-230.5 -88.5t-81.5 -262.5q0 -173 82 -261.5t230 -88.5zM356 625q117 0 179.5 -72t62.5 -217q0 -144 -62.5 -216t-179.5 -72t-179.5 72t-62.5 216q0 145 62.5 217t179.5 72zM278 741q-36 0 -36 37
q0 38 36 38t36 -38q0 -37 -36 -37zM435 741q-36 0 -36 37q0 38 36 38t36 -38q0 -37 -36 -37z" />
    <glyph glyph-name="multiply" unicode="&#xd7;" horiz-adv-x="354" 
d="M177 257l128 125q10 10 21 10t19.5 -8.5t8.5 -19.5t-8 -19l-131 -127l131 -127q8 -8 8 -19t-8.5 -19.5t-19.5 -8.5t-21 10l-128 125l-128 -125q-10 -10 -21 -10t-19.5 8.5t-8.5 19.5t8 19l131 127l-131 127q-8 8 -8 19t8.5 19.5t19.5 8.5t21 -10z" />
    <glyph glyph-name="Oslash" unicode="&#xd8;" horiz-adv-x="712" 
d="M356 -14q-119 0 -196 57l-47 -59q-8 -10 -20 -10q-11 0 -19 8t-8 19q0 9 5 15l50 64q-77 89 -77 256q0 174 81.5 262.5t230.5 88.5q120 0 197 -59l46 58q8 10 20 10q11 0 19 -8t8 -19q0 -9 -5 -15l-49 -62q76 -90 76 -256q0 -173 -82 -261.5t-230 -88.5zM356 625
q-117 0 -179.5 -72t-62.5 -217q0 -128 51 -201l347 441q-59 49 -156 49zM356 48q117 0 179.5 72t62.5 216q0 127 -50 200l-347 -440q57 -48 155 -48z" />
    <glyph glyph-name="Ugrave" unicode="&#xd9;" horiz-adv-x="624" 
d="M315 -14q-235 0 -235 219v442q0 14 10 24t24 10t24 -10t10 -24v-442q0 -33 7 -58.5t24.5 -48.5t51.5 -35.5t84 -12.5q94 0 130 42.5t36 112.5v442q0 14 10 24t24 10t24 -10t10 -24v-442q0 -219 -234 -219zM375 724q-15 -13 -30 2l-97 98q-18 18 3 38q22 20 38 0l89 -108
q13 -17 -3 -30z" />
    <glyph glyph-name="Uacute" unicode="&#xda;" horiz-adv-x="624" 
d="M315 -14q-235 0 -235 219v442q0 14 10 24t24 10t24 -10t10 -24v-442q0 -33 7 -58.5t24.5 -48.5t51.5 -35.5t84 -12.5q94 0 130 42.5t36 112.5v442q0 14 10 24t24 10t24 -10t10 -24v-442q0 -219 -234 -219zM268 724q-16 13 -3 30l89 108q16 20 38 0q21 -20 3 -38l-97 -98
q-15 -15 -30 -2z" />
    <glyph glyph-name="Ucircumflex" unicode="&#xdb;" horiz-adv-x="624" 
d="M315 -14q-235 0 -235 219v442q0 14 10 24t24 10t24 -10t10 -24v-442q0 -33 7 -58.5t24.5 -48.5t51.5 -35.5t84 -12.5q94 0 130 42.5t36 112.5v442q0 14 10 24t24 10t24 -10t10 -24v-442q0 -219 -234 -219zM396 725l-81 68l-81 -68q-6 -6 -16 -6t-17 7t-7 17q0 11 9 19
l96 79q8 6 16 6t16 -6l96 -79q9 -8 9 -19q0 -10 -7 -17t-17 -7t-16 6z" />
    <glyph glyph-name="Udieresis" unicode="&#xdc;" horiz-adv-x="624" 
d="M315 -14q-235 0 -235 219v442q0 14 10 24t24 10t24 -10t10 -24v-442q0 -33 7 -58.5t24.5 -48.5t51.5 -35.5t84 -12.5q94 0 130 42.5t36 112.5v442q0 14 10 24t24 10t24 -10t10 -24v-442q0 -219 -234 -219zM237 741q-36 0 -36 37q0 38 36 38t36 -38q0 -37 -36 -37z
M394 741q-36 0 -36 37q0 38 36 38t36 -38q0 -37 -36 -37z" />
    <glyph glyph-name="Yacute" unicode="&#xdd;" 
d="M259 -8q-14 0 -24 10t-10 24v287l-201 316q-5 8 -5 18q0 14 10 24t24 10q19 0 29 -16l177 -284l177 284q10 16 29 16q14 0 24 -10t10 -24q0 -10 -5 -18l-201 -316v-287q0 -14 -10 -24t-24 -10zM216 724q-16 13 -3 30l89 108q16 20 38 0q21 -20 3 -38l-97 -98
q-15 -15 -30 -2z" />
    <glyph glyph-name="Thorn" unicode="&#xde;" horiz-adv-x="544" 
d="M148 154v-128q0 -14 -10 -24t-24 -10t-24 10t-10 24v621q0 14 10 24t24 10t24 -10t10 -24v-102h165q85 0 138 -49.5t53 -145.5q0 -95 -53 -145.5t-138 -50.5h-165zM148 483v-267h155q62 0 97 35t35 99q0 65 -35.5 99t-96.5 34h-155z" />
    <glyph glyph-name="germandbls" unicode="&#xdf;" horiz-adv-x="547" 
d="M234 685q64 0 109.5 -37.5t45.5 -93.5q0 -39 -23 -71t-51 -49.5t-51 -40.5t-23 -47q0 -29 27 -48t65.5 -31.5t77.5 -27.5t66 -45t27 -74q0 -65 -47.5 -98.5t-122.5 -33.5q-57 0 -103 22t-68 50q-7 10 -7 19q0 12 8.5 20.5t20.5 8.5t22 -10q49 -49 127 -49q47 0 76.5 17
t29.5 54q0 28 -27 46.5t-66 31t-77.5 27.5t-65.5 45.5t-27 75.5q0 29 15 53t37 40l44 31.5t37 36.5t15 47q0 29 -25.5 50t-65.5 21q-105 0 -105 -112v-489q0 -14 -9.5 -23t-22.5 -9t-22.5 9t-9.5 23v489q0 74 41.5 123t127.5 49z" />
    <glyph glyph-name="agrave" unicode="&#xe0;" horiz-adv-x="467" 
d="M232 408q-71 0 -116 -51q-13 -14 -26 -14q-12 0 -20.5 8.5t-8.5 20.5q0 9 5 17q50 79 166 79q86 0 133 -46t47 -124v-275q0 -13 -9 -22t-22 -9t-22 9t-9 22v36q-18 -34 -57 -53t-86 -19q-80 0 -126.5 37.5t-46.5 105.5q0 66 47 103.5t128 37.5h141v27q0 51 -31.5 80.5
t-86.5 29.5zM213 45q56 0 96.5 34t40.5 94v42h-141q-51 0 -80.5 -21.5t-29.5 -63.5q0 -85 114 -85zM297 520q-15 -13 -30 2l-97 98q-18 18 3 38q22 20 38 0l89 -108q13 -17 -3 -30z" />
    <glyph glyph-name="aacute" unicode="&#xe1;" horiz-adv-x="467" 
d="M232 408q-71 0 -116 -51q-13 -14 -26 -14q-12 0 -20.5 8.5t-8.5 20.5q0 9 5 17q50 79 166 79q86 0 133 -46t47 -124v-275q0 -13 -9 -22t-22 -9t-22 9t-9 22v36q-18 -34 -57 -53t-86 -19q-80 0 -126.5 37.5t-46.5 105.5q0 66 47 103.5t128 37.5h141v27q0 51 -31.5 80.5
t-86.5 29.5zM213 45q56 0 96.5 34t40.5 94v42h-141q-51 0 -80.5 -21.5t-29.5 -63.5q0 -85 114 -85zM177 520q-16 13 -3 30l89 108q16 20 38 0q21 -20 3 -38l-97 -98q-15 -15 -30 -2z" />
    <glyph glyph-name="acircumflex" unicode="&#xe2;" horiz-adv-x="467" 
d="M232 408q-71 0 -116 -51q-13 -14 -26 -14q-12 0 -20.5 8.5t-8.5 20.5q0 9 5 17q50 79 166 79q86 0 133 -46t47 -124v-275q0 -13 -9 -22t-22 -9t-22 9t-9 22v36q-18 -34 -57 -53t-86 -19q-80 0 -126.5 37.5t-46.5 105.5q0 66 47 103.5t128 37.5h141v27q0 51 -31.5 80.5
t-86.5 29.5zM213 45q56 0 96.5 34t40.5 94v42h-141q-51 0 -80.5 -21.5t-29.5 -63.5q0 -85 114 -85zM314 528l-81 68l-81 -68q-6 -6 -16 -6t-17 7t-7 17q0 12 9 19l96 79q8 6 16 6t16 -6l96 -79q9 -7 9 -19q0 -10 -7 -17t-17 -7t-16 6z" />
    <glyph glyph-name="atilde" unicode="&#xe3;" horiz-adv-x="467" 
d="M232 408q-71 0 -116 -51q-13 -14 -26 -14q-12 0 -20.5 8.5t-8.5 20.5q0 9 5 17q50 79 166 79q86 0 133 -46t47 -124v-275q0 -13 -9 -22t-22 -9t-22 9t-9 22v36q-18 -34 -57 -53t-86 -19q-80 0 -126.5 37.5t-46.5 105.5q0 66 47 103.5t128 37.5h141v27q0 51 -31.5 80.5
t-86.5 29.5zM213 45q56 0 96.5 34t40.5 94v42h-141q-51 0 -80.5 -21.5t-29.5 -63.5q0 -85 114 -85zM177 617q25 0 62 -19.5t56 -19.5q25 0 46 28q8 11 20 11q10 0 17 -7t7 -17q0 -6 -3 -12q-26 -52 -87 -52q-26 0 -62 19.5t-56 19.5q-25 0 -46 -28q-8 -11 -20 -11
q-10 0 -17 7t-7 17q0 6 3 12q26 52 87 52z" />
    <glyph glyph-name="adieresis" unicode="&#xe4;" horiz-adv-x="467" 
d="M232 408q-71 0 -116 -51q-13 -14 -26 -14q-12 0 -20.5 8.5t-8.5 20.5q0 9 5 17q50 79 166 79q86 0 133 -46t47 -124v-275q0 -13 -9 -22t-22 -9t-22 9t-9 22v36q-18 -34 -57 -53t-86 -19q-80 0 -126.5 37.5t-46.5 105.5q0 66 47 103.5t128 37.5h141v27q0 51 -31.5 80.5
t-86.5 29.5zM213 45q56 0 96.5 34t40.5 94v42h-141q-51 0 -80.5 -21.5t-29.5 -63.5q0 -85 114 -85zM162 534q-36 0 -36 37q0 38 36 38t36 -38q0 -37 -36 -37zM319 534q-36 0 -36 37q0 38 36 38t36 -38q0 -37 -36 -37z" />
    <glyph glyph-name="aring" unicode="&#xe5;" horiz-adv-x="467" 
d="M232 408q-71 0 -116 -51q-13 -14 -26 -14q-12 0 -20.5 8.5t-8.5 20.5q0 9 5 17q50 79 166 79q86 0 133 -46t47 -124v-275q0 -13 -9 -22t-22 -9t-22 9t-9 22v36q-18 -34 -57 -53t-86 -19q-80 0 -126.5 37.5t-46.5 105.5q0 66 47 103.5t128 37.5h141v27q0 51 -31.5 80.5
t-86.5 29.5zM213 45q56 0 96.5 34t40.5 94v42h-141q-51 0 -80.5 -21.5t-29.5 -63.5q0 -85 114 -85zM241 502q-104 0 -104 98t104 98t104 -98t-104 -98zM241 660q-34 0 -48 -14.5t-14 -45.5q0 -30 14.5 -45t47.5 -15t47.5 15t14.5 45q0 31 -14 45.5t-48 14.5z" />
    <glyph glyph-name="ae" unicode="&#xe6;" horiz-adv-x="778" 
d="M232 408q-39 0 -64 -11.5t-52 -39.5q-13 -14 -26 -14q-12 0 -20.5 8.5t-8.5 20.5q0 9 5 17q50 79 166 79q115 0 158 -80q52 80 163 80q56 0 96.5 -20t59.5 -52t27 -61.5t8 -59.5q0 -15 -1 -23t-4 -19t-12 -16.5t-23 -5.5h-292q0 -75 40.5 -120t110.5 -45q63 0 120 43
q9 6 18 6q12 0 20.5 -8.5t8.5 -20.5t-11 -23q-56 -56 -156 -56q-141 0 -179 99q-50 -99 -177 -99q-80 0 -126.5 37.5t-46.5 105.5q0 65 46.5 101t128.5 36h141v31q0 51 -31.5 80.5t-86.5 29.5zM213 45q56 0 96.5 34t40.5 94v38h-141q-110 0 -110 -81q0 -85 114 -85zM681 267
q0 143 -128 143q-64 0 -100 -37.5t-41 -105.5h269z" />
    <glyph glyph-name="ccedilla" unicode="&#xe7;" horiz-adv-x="441" 
d="M344 -139q0 -85 -97 -85q-38 0 -64 18q-8 6 -8 15q0 8 5.5 13.5t12.5 5.5q6 0 12 -3q20 -10 42 -10q28 0 40.5 9.5t12.5 36.5q0 46 -44 46q-9 0 -22.5 -2t-18.5 -2q-19 0 -18 22l2 65q-164 24 -164 238q0 121 53.5 180.5t152.5 59.5q58 0 97 -22t57 -47q7 -10 7 -19
q0 -13 -8.5 -21t-20.5 -8q-13 0 -24 12q-41 47 -108 47q-141 0 -141 -182q0 -183 141 -183q58 0 116 43q10 7 19 7q12 0 20.5 -8.5t8.5 -20.5q0 -13 -13 -25q-66 -54 -158 -54l-4 -46q18 2 27 2q87 0 87 -82z" />
    <glyph glyph-name="egrave" unicode="&#xe8;" horiz-adv-x="466" 
d="M35 228q0 115 54 177.5t152 62.5q46 0 81 -14t55.5 -35t33 -48.5t17 -51t4.5 -46.5q0 -15 -1 -23t-4 -19t-12 -16.5t-23 -5.5h-292q0 -75 40.5 -119t110.5 -44q63 0 120 43q9 6 18 6q12 0 20.5 -8.5t8.5 -20.5t-11 -23q-56 -56 -156 -56q-103 0 -159.5 59.5t-56.5 181.5z
M369 265q0 145 -128 145q-64 0 -100 -38.5t-41 -106.5h269zM303 520q-15 -13 -30 2l-97 98q-18 18 3 38q22 20 38 0l89 -108q13 -17 -3 -30z" />
    <glyph glyph-name="eacute" unicode="&#xe9;" horiz-adv-x="466" 
d="M35 228q0 115 54 177.5t152 62.5q46 0 81 -14t55.5 -35t33 -48.5t17 -51t4.5 -46.5q0 -15 -1 -23t-4 -19t-12 -16.5t-23 -5.5h-292q0 -75 40.5 -119t110.5 -44q63 0 120 43q9 6 18 6q12 0 20.5 -8.5t8.5 -20.5t-11 -23q-56 -56 -156 -56q-103 0 -159.5 59.5t-56.5 181.5z
M369 265q0 145 -128 145q-64 0 -100 -38.5t-41 -106.5h269zM191 520q-16 13 -3 30l89 108q16 20 38 0q21 -20 3 -38l-97 -98q-15 -15 -30 -2z" />
    <glyph glyph-name="ecircumflex" unicode="&#xea;" horiz-adv-x="466" 
d="M35 228q0 115 54 177.5t152 62.5q46 0 81 -14t55.5 -35t33 -48.5t17 -51t4.5 -46.5q0 -15 -1 -23t-4 -19t-12 -16.5t-23 -5.5h-292q0 -75 40.5 -119t110.5 -44q63 0 120 43q9 6 18 6q12 0 20.5 -8.5t8.5 -20.5t-11 -23q-56 -56 -156 -56q-103 0 -159.5 59.5t-56.5 181.5z
M369 265q0 145 -128 145q-64 0 -100 -38.5t-41 -106.5h269zM326 528l-81 68l-81 -68q-6 -6 -16 -6t-17 7t-7 17q0 12 9 19l96 79q8 6 16 6t16 -6l96 -79q9 -7 9 -19q0 -10 -7 -17t-17 -7t-16 6z" />
    <glyph glyph-name="edieresis" unicode="&#xeb;" horiz-adv-x="466" 
d="M35 228q0 115 54 177.5t152 62.5q46 0 81 -14t55.5 -35t33 -48.5t17 -51t4.5 -46.5q0 -15 -1 -23t-4 -19t-12 -16.5t-23 -5.5h-292q0 -75 40.5 -119t110.5 -44q63 0 120 43q9 6 18 6q12 0 20.5 -8.5t8.5 -20.5t-11 -23q-56 -56 -156 -56q-103 0 -159.5 59.5t-56.5 181.5z
M369 265q0 145 -128 145q-64 0 -100 -38.5t-41 -106.5h269zM166 534q-36 0 -36 37q0 38 36 38t36 -38q0 -37 -36 -37zM323 534q-36 0 -36 37q0 38 36 38t36 -38q0 -37 -36 -37z" />
    <glyph glyph-name="igrave" unicode="&#xec;" horiz-adv-x="193" 
d="M128 430v-406q0 -14 -9 -23t-23 -9t-23 9t-9 23v406q0 14 9 23t23 9t23 -9t9 -23zM149 520q-15 -13 -30 2l-97 98q-18 18 3 38q22 20 38 0l89 -108q13 -17 -3 -30z" />
    <glyph glyph-name="iacute" unicode="&#xed;" horiz-adv-x="193" 
d="M128 430v-406q0 -14 -9 -23t-23 -9t-23 9t-9 23v406q0 14 9 23t23 9t23 -9t9 -23zM53 520q-16 13 -3 30l89 108q16 20 38 0q21 -20 3 -38l-97 -98q-15 -15 -30 -2z" />
    <glyph glyph-name="icircumflex" unicode="&#xee;" horiz-adv-x="193" 
d="M128 430v-406q0 -14 -9 -23t-23 -9t-23 9t-9 23v406q0 14 9 23t23 9t23 -9t9 -23zM177 528l-81 68l-81 -68q-6 -6 -16 -6t-17 7t-7 17q0 12 9 19l96 79q8 6 16 6t16 -6l96 -79q9 -7 9 -19q0 -10 -7 -17t-17 -7t-16 6z" />
    <glyph glyph-name="idieresis" unicode="&#xef;" horiz-adv-x="193" 
d="M128 430v-406q0 -14 -9 -23t-23 -9t-23 9t-9 23v406q0 14 9 23t23 9t23 -9t9 -23zM18 534q-36 0 -36 37q0 38 36 38t36 -38q0 -37 -36 -37zM175 534q-36 0 -36 37q0 38 36 38t36 -38q0 -37 -36 -37z" />
    <glyph glyph-name="eth" unicode="&#xf0;" horiz-adv-x="492" 
d="M245 468q69 0 116 -31q-19 73 -66 122l-56 -38l-17 -5q-13 0 -21.5 8.5t-8.5 21.5q0 17 13 25l49 32q-24 21 -79 54q-16 9 -16 27q0 11 8.5 19.5t20.5 8.5q8 0 16 -4q47 -23 101 -72l44 28q8 5 17 5q13 0 21.5 -8.5t8.5 -21.5q0 -16 -13 -25l-37 -24q109 -138 109 -362
q0 -120 -55 -180.5t-155 -60.5q-99 0 -154.5 60.5t-55.5 180.5t55 180t155 60zM245 45q145 0 145 183q0 182 -145 182t-145 -182q0 -183 145 -183z" />
    <glyph glyph-name="ntilde" unicode="&#xf1;" horiz-adv-x="501" 
d="M262 468q184 0 184 -177v-267q0 -14 -9 -23t-23 -9t-23 9t-9 23v254q0 65 -26 99t-94 34q-133 0 -133 -140v-247q0 -14 -9.5 -23t-22.5 -9t-22.5 9t-9.5 23v406q0 14 9.5 23t22.5 9t22.5 -9t9.5 -23v-32q15 30 50.5 50t82.5 20zM196 617q26 0 62 -19.5t56 -19.5
q25 0 46 28q8 11 20 11q10 0 17 -7t7 -17q0 -6 -3 -12q-26 -52 -87 -52q-26 0 -62 19.5t-56 19.5q-25 0 -46 -28q-8 -11 -20 -11q-10 0 -17 7t-7 17q0 6 3 12q26 52 87 52z" />
    <glyph glyph-name="ograve" unicode="&#xf2;" horiz-adv-x="490" 
d="M245 468q100 0 155 -60t55 -180t-55 -180.5t-155 -60.5q-99 0 -154.5 60.5t-55.5 180.5t55 180t155 60zM245 45q145 0 145 183q0 182 -145 182t-145 -182q0 -183 145 -183zM317 520q-15 -13 -30 2l-97 98q-18 18 3 38q22 20 38 0l89 -108q13 -17 -3 -30z" />
    <glyph glyph-name="oacute" unicode="&#xf3;" horiz-adv-x="490" 
d="M245 468q100 0 155 -60t55 -180t-55 -180.5t-155 -60.5q-99 0 -154.5 60.5t-55.5 180.5t55 180t155 60zM245 45q145 0 145 183q0 182 -145 182t-145 -182q0 -183 145 -183zM200 520q-16 13 -3 30l89 108q16 20 38 0q21 -20 3 -38l-97 -98q-15 -15 -30 -2z" />
    <glyph glyph-name="ocircumflex" unicode="&#xf4;" horiz-adv-x="490" 
d="M245 468q100 0 155 -60t55 -180t-55 -180.5t-155 -60.5q-99 0 -154.5 60.5t-55.5 180.5t55 180t155 60zM245 45q145 0 145 183q0 182 -145 182t-145 -182q0 -183 145 -183zM330 528l-81 68l-81 -68q-6 -6 -16 -6t-17 7t-7 17q0 12 9 19l96 79q8 6 16 6t16 -6l96 -79
q9 -7 9 -19q0 -10 -7 -17t-17 -7t-16 6z" />
    <glyph glyph-name="otilde" unicode="&#xf5;" horiz-adv-x="490" 
d="M245 468q100 0 155 -60t55 -180t-55 -180.5t-155 -60.5q-99 0 -154.5 60.5t-55.5 180.5t55 180t155 60zM245 45q145 0 145 183q0 182 -145 182t-145 -182q0 -183 145 -183zM188 617q26 0 62 -19.5t56 -19.5q25 0 46 28q8 11 20 11q10 0 17 -7t7 -17q0 -6 -3 -12
q-26 -52 -87 -52q-26 0 -62 19.5t-56 19.5q-25 0 -46 -28q-8 -11 -20 -11q-10 0 -17 7t-7 17q0 6 3 12q26 52 87 52z" />
    <glyph glyph-name="odieresis" unicode="&#xf6;" horiz-adv-x="490" 
d="M245 468q100 0 155 -60t55 -180t-55 -180.5t-155 -60.5q-99 0 -154.5 60.5t-55.5 180.5t55 180t155 60zM245 45q145 0 145 183q0 182 -145 182t-145 -182q0 -183 145 -183zM171 534q-36 0 -36 37q0 38 36 38t36 -38q0 -37 -36 -37zM328 534q-36 0 -36 37q0 38 36 38
t36 -38q0 -37 -36 -37z" />
    <glyph glyph-name="divide" unicode="&#xf7;" horiz-adv-x="454" 
d="M194 97q0 14 9.5 23.5t23.5 9.5t24 -9.5t10 -23.5t-10 -24t-24 -10t-23.5 10t-9.5 24zM194 340q0 14 9.5 24t23.5 10t24 -10t10 -24t-10 -23.5t-24 -9.5t-23.5 9.5t-9.5 23.5zM454 219q0 -11 -8 -19t-19 -8h-400q-11 0 -19 8t-8 19t8 19t19 8h400q11 0 19 -8t8 -19z" />
    <glyph glyph-name="oslash" unicode="&#xf8;" horiz-adv-x="490" 
d="M245 468q89 0 142 -48l37 40q8 8 19 8t18.5 -8t7.5 -18q0 -11 -8 -19l-41 -43q35 -58 35 -152q0 -120 -55 -180.5t-155 -60.5q-92 0 -145 50l-36 -38q-7 -7 -18 -7q-10 0 -18 8t-8 18q0 11 8 19l39 42q-32 58 -32 149q0 120 55 180t155 60zM245 45q145 0 145 183
q0 61 -17 101l-230 -246q35 -38 102 -38zM100 228q0 -59 15 -98l229 244q-38 36 -99 36q-145 0 -145 -182z" />
    <glyph glyph-name="ugrave" unicode="&#xf9;" horiz-adv-x="482" 
d="M87 462q13 0 22.5 -9.5t9.5 -22.5v-261q0 -56 26 -88.5t96 -32.5t96 32.5t26 88.5v261q0 13 9.5 22.5t23.5 9.5q13 0 22 -9.5t9 -22.5v-261q0 -83 -40 -132.5t-146 -49.5t-146 49.5t-40 132.5v261q0 14 9.5 23t22.5 9zM292 520q-15 -13 -30 2l-97 98q-18 18 3 38
q22 20 38 0l89 -108q13 -17 -3 -30z" />
    <glyph glyph-name="uacute" unicode="&#xfa;" horiz-adv-x="482" 
d="M87 462q13 0 22.5 -9.5t9.5 -22.5v-261q0 -56 26 -88.5t96 -32.5t96 32.5t26 88.5v261q0 13 9.5 22.5t23.5 9.5q13 0 22 -9.5t9 -22.5v-261q0 -83 -40 -132.5t-146 -49.5t-146 49.5t-40 132.5v261q0 14 9.5 23t22.5 9zM202 520q-16 13 -3 30l89 108q16 20 38 0
q21 -20 3 -38l-97 -98q-15 -15 -30 -2z" />
    <glyph glyph-name="ucircumflex" unicode="&#xfb;" horiz-adv-x="482" 
d="M87 462q13 0 22.5 -9.5t9.5 -22.5v-261q0 -56 26 -88.5t96 -32.5t96 32.5t26 88.5v261q0 13 9.5 22.5t23.5 9.5q13 0 22 -9.5t9 -22.5v-261q0 -83 -40 -132.5t-146 -49.5t-146 49.5t-40 132.5v261q0 14 9.5 23t22.5 9zM326 528l-81 68l-81 -68q-6 -6 -16 -6t-17 7t-7 17
q0 12 9 19l96 79q8 6 16 6t16 -6l96 -79q9 -7 9 -19q0 -10 -7 -17t-17 -7t-16 6z" />
    <glyph glyph-name="udieresis" unicode="&#xfc;" horiz-adv-x="482" 
d="M87 462q13 0 22.5 -9.5t9.5 -22.5v-261q0 -56 26 -88.5t96 -32.5t96 32.5t26 88.5v261q0 13 9.5 22.5t23.5 9.5q13 0 22 -9.5t9 -22.5v-261q0 -83 -40 -132.5t-146 -49.5t-146 49.5t-40 132.5v261q0 14 9.5 23t22.5 9zM169 534q-36 0 -36 37q0 38 36 38t36 -38
q0 -37 -36 -37zM326 534q-36 0 -36 37q0 38 36 38t36 -38q0 -37 -36 -37z" />
    <glyph glyph-name="yacute" unicode="&#xfd;" horiz-adv-x="438" 
d="M35 -141q26 0 46 8t32.5 18t27 35.5t22 42t23.5 56.5l-167 397q-3 9 -3 14q0 14 9 23t23 9q22 0 30 -21l141 -345l141 345q8 21 30 21q14 0 23 -9t9 -23q0 -5 -3 -14l-197 -469q-32 -76 -75 -112t-112 -36q-13 0 -21.5 8.5t-8.5 21.5t8.5 21.5t21.5 8.5zM178 520
q-16 13 -3 30l89 108q16 20 38 0q21 -20 3 -38l-97 -98q-15 -15 -30 -2z" />
    <glyph glyph-name="thorn" unicode="&#xfe;" horiz-adv-x="509" 
d="M129 680v-282q16 28 52.5 49t83.5 21q100 0 154.5 -60t54.5 -180t-54.5 -180.5t-154.5 -60.5q-47 0 -82.5 20.5t-53.5 49.5v-226q0 -13 -9.5 -22.5t-22.5 -9.5t-22.5 9.5t-9.5 22.5v849q0 14 9.5 23t22.5 9t22.5 -9t9.5 -23zM127 228q0 -92 38 -137.5t100 -45.5
q144 0 144 183q0 182 -146 182q-60 0 -98 -45t-38 -137z" />
    <glyph glyph-name="ydieresis" unicode="&#xff;" horiz-adv-x="438" 
d="M35 -141q26 0 46 8t32.5 18t27 35.5t22 42t23.5 56.5l-167 397q-3 9 -3 14q0 14 9 23t23 9q22 0 30 -21l141 -345l141 345q8 21 30 21q14 0 23 -9t9 -23q0 -5 -3 -14l-197 -469q-32 -76 -75 -112t-112 -36q-13 0 -21.5 8.5t-8.5 21.5t8.5 21.5t21.5 8.5zM140 534
q-36 0 -36 37q0 38 36 38t36 -38q0 -37 -36 -37zM297 534q-36 0 -36 37q0 38 36 38t36 -38q0 -37 -36 -37z" />
    <glyph glyph-name="Amacron" unicode="&#x100;" horiz-adv-x="613" 
d="M425 261l-119 306l-118 -306h237zM446 199h-279l-73 -183q-9 -24 -33 -24q-14 0 -24 10t-10 24q0 9 3 15l244 617q10 23 32 23q23 0 33 -23l244 -617q3 -7 3 -15q0 -14 -10 -24t-25 -10q-24 0 -33 23zM424 758q0 -10 -7 -17.5t-18 -7.5h-186q-11 0 -18 7.5t-7 17.5
t7 17.5t18 7.5h186q11 0 18 -7.5t7 -17.5z" />
    <glyph glyph-name="amacron" unicode="&#x101;" horiz-adv-x="467" 
d="M232 408q-71 0 -116 -51q-13 -14 -26 -14q-12 0 -20.5 8.5t-8.5 20.5q0 9 5 17q50 79 166 79q86 0 133 -46t47 -124v-275q0 -13 -9 -22t-22 -9t-22 9t-9 22v36q-18 -34 -57 -53t-86 -19q-80 0 -126.5 37.5t-46.5 105.5q0 66 47 103.5t128 37.5h141v27q0 51 -31.5 80.5
t-86.5 29.5zM213 45q56 0 96.5 34t40.5 94v42h-141q-51 0 -80.5 -21.5t-29.5 -63.5q0 -85 114 -85zM356 562q0 -10 -7 -17.5t-18 -7.5h-186q-11 0 -18 7.5t-7 17.5t7 17.5t18 7.5h186q11 0 18 -7.5t7 -17.5z" />
    <glyph glyph-name="Abreve" unicode="&#x102;" horiz-adv-x="613" 
d="M425 261l-119 306l-118 -306h237zM446 199h-279l-73 -183q-9 -24 -33 -24q-14 0 -24 10t-10 24q0 9 3 15l244 617q10 23 32 23q23 0 33 -23l244 -617q3 -7 3 -15q0 -14 -10 -24t-25 -10q-24 0 -33 23zM306 730q-49 0 -81 25t-32 76q0 10 7 17t17 7t17 -7t7 -17
q0 -55 65 -55t65 55q0 10 7 17t17 7t17 -7t7 -17q0 -51 -32 -76t-81 -25z" />
    <glyph glyph-name="abreve" unicode="&#x103;" horiz-adv-x="467" 
d="M232 408q-71 0 -116 -51q-13 -14 -26 -14q-12 0 -20.5 8.5t-8.5 20.5q0 9 5 17q50 79 166 79q86 0 133 -46t47 -124v-275q0 -13 -9 -22t-22 -9t-22 9t-9 22v36q-18 -34 -57 -53t-86 -19q-80 0 -126.5 37.5t-46.5 105.5q0 66 47 103.5t128 37.5h141v27q0 51 -31.5 80.5
t-86.5 29.5zM213 45q56 0 96.5 34t40.5 94v42h-141q-51 0 -80.5 -21.5t-29.5 -63.5q0 -85 114 -85zM235 529q-49 0 -81 25t-32 76q0 10 7 17t17 7t17 -7t7 -17q0 -55 65 -55t65 55q0 10 7 17t17 7t17 -7t7 -17q0 -51 -32 -76t-81 -25z" />
    <glyph glyph-name="Aogonek" unicode="&#x104;" horiz-adv-x="613" 
d="M425 261l-119 306l-118 -306h237zM446 199h-279l-73 -183q-9 -24 -33 -24q-14 0 -24 10t-10 24q0 9 3 15l244 617q10 23 32 23q23 0 33 -23l244 -617q3 -7 3 -15q0 -14 -10 -24t-25 -10q-24 0 -33 23zM621 -125q9 0 15.5 -6.5t6.5 -15.5q0 -12 -11 -19q-29 -17 -72 -17
q-48 0 -75.5 22t-27.5 63q0 62 69 98h49q-27 -11 -47.5 -33.5t-20.5 -50.5q0 -26 15 -39.5t40 -13.5q26 0 47 9q7 3 12 3z" />
    <glyph glyph-name="aogonek" unicode="&#x105;" horiz-adv-x="467" 
d="M451 -125q9 0 15.5 -6.5t6.5 -15.5q0 -12 -11 -19q-29 -17 -72 -17q-48 0 -75.5 22t-27.5 63q0 63 71 99q-8 10 -8 22v36q-18 -34 -57 -53t-86 -19q-80 0 -126.5 37.5t-46.5 105.5q0 66 47 103.5t128 37.5h141v27q0 51 -31.5 80.5t-86.5 29.5q-71 0 -116 -51
q-13 -14 -26 -14q-12 0 -20.5 8.5t-8.5 20.5q0 9 5 17q50 79 166 79q86 0 133 -46t47 -124v-275q0 -18 -19 -29q-56 -33 -56 -78q0 -26 15 -39.5t40 -13.5q26 0 47 9q7 3 12 3zM213 45q56 0 96.5 34t40.5 94v42h-141q-51 0 -80.5 -21.5t-29.5 -63.5q0 -85 114 -85z" />
    <glyph glyph-name="Cacute" unicode="&#x106;" horiz-adv-x="631" 
d="M356 -14q-312 0 -312 350q0 174 81.5 262.5t230.5 88.5q71 0 130 -28.5t95 -77.5q7 -10 7 -21q0 -14 -9 -23t-23 -9q-16 0 -26 13q-27 37 -73.5 60.5t-100.5 23.5q-117 0 -179.5 -72t-62.5 -217q0 -151 61 -219.5t181 -68.5q52 0 99 21t75 61q9 13 26 13q14 0 23 -9.5
t9 -22.5q0 -10 -6 -19q-33 -48 -95 -77t-131 -29zM299 724q-16 13 -3 30l89 108q16 20 38 0q21 -20 3 -38l-97 -98q-15 -15 -30 -2z" />
    <glyph glyph-name="cacute" unicode="&#x107;" horiz-adv-x="441" 
d="M35 228q0 121 53.5 180.5t152.5 59.5q58 0 97 -22t57 -47q7 -10 7 -19q0 -13 -8.5 -21t-20.5 -8q-13 0 -24 12q-41 47 -108 47q-141 0 -141 -182q0 -183 141 -183q58 0 116 43q10 7 19 7q12 0 20.5 -8.5t8.5 -20.5q0 -13 -13 -25q-66 -54 -151 -54q-99 0 -152.5 60
t-53.5 181zM185 520q-16 13 -3 30l89 108q16 20 38 0q21 -20 3 -38l-97 -98q-15 -15 -30 -2z" />
    <glyph glyph-name="Ccircumflex" unicode="&#x108;" horiz-adv-x="631" 
d="M356 -14q-312 0 -312 350q0 174 81.5 262.5t230.5 88.5q71 0 130 -28.5t95 -77.5q7 -10 7 -21q0 -14 -9 -23t-23 -9q-16 0 -26 13q-27 37 -73.5 60.5t-100.5 23.5q-117 0 -179.5 -72t-62.5 -217q0 -151 61 -219.5t181 -68.5q52 0 99 21t75 61q9 13 26 13q14 0 23 -9.5
t9 -22.5q0 -10 -6 -19q-33 -48 -95 -77t-131 -29zM438 725l-81 68l-81 -68q-6 -6 -16 -6t-17 7t-7 17q0 11 9 19l96 79q8 6 16 6t16 -6l96 -79q9 -8 9 -19q0 -10 -7 -17t-17 -7t-16 6z" />
    <glyph glyph-name="ccircumflex" unicode="&#x109;" horiz-adv-x="441" 
d="M35 228q0 121 53.5 180.5t152.5 59.5q58 0 97 -22t57 -47q7 -10 7 -19q0 -13 -8.5 -21t-20.5 -8q-13 0 -24 12q-41 47 -108 47q-141 0 -141 -182q0 -183 141 -183q58 0 116 43q10 7 19 7q12 0 20.5 -8.5t8.5 -20.5q0 -13 -13 -25q-66 -54 -151 -54q-99 0 -152.5 60
t-53.5 181zM321 528l-81 68l-81 -68q-6 -6 -16 -6t-17 7t-7 17q0 12 9 19l96 79q8 6 16 6t16 -6l96 -79q9 -7 9 -19q0 -10 -7 -17t-17 -7t-16 6z" />
    <glyph glyph-name="Cdotaccent" unicode="&#x10a;" horiz-adv-x="631" 
d="M356 -14q-312 0 -312 350q0 174 81.5 262.5t230.5 88.5q71 0 130 -28.5t95 -77.5q7 -10 7 -21q0 -14 -9 -23t-23 -9q-16 0 -26 13q-27 37 -73.5 60.5t-100.5 23.5q-117 0 -179.5 -72t-62.5 -217q0 -151 61 -219.5t181 -68.5q52 0 99 21t75 61q9 13 26 13q14 0 23 -9.5
t9 -22.5q0 -10 -6 -19q-33 -48 -95 -77t-131 -29zM353 736q-38 0 -38 39q0 40 38 40t38 -40q0 -39 -38 -39z" />
    <glyph glyph-name="cdotaccent" unicode="&#x10b;" horiz-adv-x="441" 
d="M35 228q0 121 53.5 180.5t152.5 59.5q58 0 97 -22t57 -47q7 -10 7 -19q0 -13 -8.5 -21t-20.5 -8q-13 0 -24 12q-41 47 -108 47q-141 0 -141 -182q0 -183 141 -183q58 0 116 43q10 7 19 7q12 0 20.5 -8.5t8.5 -20.5q0 -13 -13 -25q-66 -54 -151 -54q-99 0 -152.5 60
t-53.5 181zM244 544q-38 0 -38 39q0 40 38 40t38 -40q0 -39 -38 -39z" />
    <glyph glyph-name="Ccaron" unicode="&#x10c;" horiz-adv-x="631" 
d="M356 -14q-312 0 -312 350q0 174 81.5 262.5t230.5 88.5q71 0 130 -28.5t95 -77.5q7 -10 7 -21q0 -14 -9 -23t-23 -9q-16 0 -26 13q-27 37 -73.5 60.5t-100.5 23.5q-117 0 -179.5 -72t-62.5 -217q0 -151 61 -219.5t181 -68.5q52 0 99 21t75 61q9 13 26 13q14 0 23 -9.5
t9 -22.5q0 -10 -6 -19q-33 -48 -95 -77t-131 -29zM352 773l81 68q6 6 16 6t17 -7t7 -17q0 -11 -9 -19l-96 -79q-8 -6 -16 -6t-16 6l-96 79q-9 8 -9 19q0 10 7 17t17 7t16 -6z" />
    <glyph glyph-name="ccaron" unicode="&#x10d;" horiz-adv-x="441" 
d="M35 228q0 121 53.5 180.5t152.5 59.5q58 0 97 -22t57 -47q7 -10 7 -19q0 -13 -8.5 -21t-20.5 -8q-13 0 -24 12q-41 47 -108 47q-141 0 -141 -182q0 -183 141 -183q58 0 116 43q10 7 19 7q12 0 20.5 -8.5t8.5 -20.5q0 -13 -13 -25q-66 -54 -151 -54q-99 0 -152.5 60
t-53.5 181zM248 553l81 68q6 6 16 6t17 -7t7 -17q0 -11 -9 -19l-96 -79q-8 -6 -16 -6t-16 6l-96 79q-9 8 -9 19q0 10 7 17t17 7t16 -6z" />
    <glyph glyph-name="Dcaron" unicode="&#x10e;" horiz-adv-x="608" 
d="M148 611v-549h107q118 0 179 62.5t61 211.5q0 148 -61 211.5t-179 63.5h-107zM114 673h141q150 0 229.5 -79.5t79.5 -257.5t-79.5 -257t-229.5 -79h-141q-14 0 -24 10t-10 24v605q0 14 10 24t24 10zM278 773l81 68q6 6 16 6t17 -7t7 -17q0 -11 -9 -19l-96 -79
q-8 -6 -16 -6t-16 6l-96 79q-9 8 -9 19q0 10 7 17t17 7t16 -6z" />
    <glyph glyph-name="dcaron" unicode="&#x10f;" horiz-adv-x="536" 
d="M372 184v138q-2 4 -5 9.5t-14.5 21t-25.5 27t-37.5 21t-49.5 9.5q-141 0 -141 -182q0 -183 141 -183q60 0 96 35t36 104zM236 468q45 0 81 -19t55 -46v277q0 14 9 23t23 9t23 -9t9 -23v-496q0 -96 -53.5 -146.5t-142.5 -50.5q-99 0 -152 60t-53 181q0 240 201 240z
M566 647q0 -104 -72 -179q-6 -6 -13 -6q-15 0 -15 15q0 5 3 9q37 51 37 91q0 19 -18 42t-18 44q0 48 47 48q49 0 49 -64z" />
    <glyph glyph-name="Dcroat" unicode="&#x110;" horiz-adv-x="609" 
d="M114 673h141q151 0 230.5 -79.5t79.5 -257.5t-79.5 -257t-230.5 -79h-141q-14 0 -24 10t-10 24v283h-31q-13 0 -22 9t-9 22t9 22t22 9h31v260q0 14 10 24t24 10zM373 348q0 -13 -9.5 -22t-22.5 -9h-193v-253h107q119 0 180.5 61.5t61.5 210.5q0 148 -62 210.5t-180 62.5
h-107v-230h193q13 0 22.5 -9t9.5 -22z" />
    <glyph glyph-name="dcroat" unicode="&#x111;" horiz-adv-x="501" 
d="M488 558q0 -11 -8 -19t-19 -8h-25v-347q0 -96 -53.5 -146.5t-142.5 -50.5q-99 0 -152 60t-53 181q0 240 201 240q45 0 81 -19t55 -46v128h-95q-11 0 -19 8t-8 19t8 19t19 8h95v95q0 14 9 23t23 9t23 -9t9 -23v-95h25q11 0 19 -8t8 -19zM372 184v138q-2 4 -5 9.5t-14.5 21
t-25.5 27t-37.5 21t-49.5 9.5q-141 0 -141 -182q0 -183 141 -183q60 0 96 35t36 104z" />
    <glyph glyph-name="Emacron" unicode="&#x112;" 
d="M446 0h-332q-14 0 -24 10t-10 24v605q0 14 10 24t24 10h321q13 0 22 -9t9 -22t-9 -22t-22 -9h-287v-241h220q13 0 22 -9t9 -22t-9 -22t-22 -9h-220v-246h298q13 0 22 -9t9 -22t-9 -22t-22 -9zM398 758q0 -10 -7 -17.5t-18 -7.5h-186q-11 0 -18 7.5t-7 17.5t7 17.5t18 7.5
h186q11 0 18 -7.5t7 -17.5z" />
    <glyph glyph-name="emacron" unicode="&#x113;" horiz-adv-x="466" 
d="M35 228q0 115 54 177.5t152 62.5q46 0 81 -14t55.5 -35t33 -48.5t17 -51t4.5 -46.5q0 -15 -1 -23t-4 -19t-12 -16.5t-23 -5.5h-292q0 -75 40.5 -119t110.5 -44q63 0 120 43q9 6 18 6q12 0 20.5 -8.5t8.5 -20.5t-11 -23q-56 -56 -156 -56q-103 0 -159.5 59.5t-56.5 181.5z
M369 265q0 145 -128 145q-64 0 -100 -38.5t-41 -106.5h269zM360 562q0 -10 -7 -17.5t-18 -7.5h-186q-11 0 -18 7.5t-7 17.5t7 17.5t18 7.5h186q11 0 18 -7.5t7 -17.5z" />
    <glyph glyph-name="Ebreve" unicode="&#x114;" 
d="M446 0h-332q-14 0 -24 10t-10 24v605q0 14 10 24t24 10h321q13 0 22 -9t9 -22t-9 -22t-22 -9h-287v-241h220q13 0 22 -9t9 -22t-9 -22t-22 -9h-220v-246h298q13 0 22 -9t9 -22t-9 -22t-22 -9zM279 730q-49 0 -81 25t-32 76q0 10 7 17t17 7t17 -7t7 -17q0 -55 65 -55
t65 55q0 10 7 17t17 7t17 -7t7 -17q0 -51 -32 -76t-81 -25z" />
    <glyph glyph-name="ebreve" unicode="&#x115;" horiz-adv-x="466" 
d="M35 228q0 115 54 177.5t152 62.5q46 0 81 -14t55.5 -35t33 -48.5t17 -51t4.5 -46.5q0 -15 -1 -23t-4 -19t-12 -16.5t-23 -5.5h-292q0 -75 40.5 -119t110.5 -44q63 0 120 43q9 6 18 6q12 0 20.5 -8.5t8.5 -20.5t-11 -23q-56 -56 -156 -56q-103 0 -159.5 59.5t-56.5 181.5z
M369 265q0 145 -128 145q-64 0 -100 -38.5t-41 -106.5h269zM242 529q-49 0 -81 25t-32 76q0 10 7 17t17 7t17 -7t7 -17q0 -55 65 -55t65 55q0 10 7 17t17 7t17 -7t7 -17q0 -51 -32 -76t-81 -25z" />
    <glyph glyph-name="Edotaccent" unicode="&#x116;" 
d="M446 0h-332q-14 0 -24 10t-10 24v605q0 14 10 24t24 10h321q13 0 22 -9t9 -22t-9 -22t-22 -9h-287v-241h220q13 0 22 -9t9 -22t-9 -22t-22 -9h-220v-246h298q13 0 22 -9t9 -22t-9 -22t-22 -9zM282 736q-38 0 -38 39q0 40 38 40t38 -40q0 -39 -38 -39z" />
    <glyph glyph-name="edotaccent" unicode="&#x117;" horiz-adv-x="466" 
d="M35 228q0 115 54 177.5t152 62.5q46 0 81 -14t55.5 -35t33 -48.5t17 -51t4.5 -46.5q0 -15 -1 -23t-4 -19t-12 -16.5t-23 -5.5h-292q0 -75 40.5 -119t110.5 -44q63 0 120 43q9 6 18 6q12 0 20.5 -8.5t8.5 -20.5t-11 -23q-56 -56 -156 -56q-103 0 -159.5 59.5t-56.5 181.5z
M369 265q0 145 -128 145q-64 0 -100 -38.5t-41 -106.5h269zM244 544q-38 0 -38 39q0 40 38 40t38 -40q0 -39 -38 -39z" />
    <glyph glyph-name="Eogonek" unicode="&#x118;" 
d="M496 -125q9 0 15.5 -6.5t6.5 -15.5q0 -12 -11 -19q-29 -17 -72 -17q-48 0 -75.5 22t-27.5 63q0 64 71 98h-289q-14 0 -24 10t-10 24v605q0 14 10 24t24 10h321q13 0 22 -9t9 -22t-9 -22t-22 -9h-287v-241h220q13 0 22 -9t9 -22t-9 -22t-22 -9h-220v-246h298q13 0 22 -9
t9 -22q0 -20 -26 -32q-69 -32 -69 -83q0 -26 15 -39.5t40 -13.5q26 0 47 9q8 3 12 3z" />
    <glyph glyph-name="eogonek" unicode="&#x119;" horiz-adv-x="466" 
d="M379 -125q9 0 15.5 -6.5t6.5 -15.5q0 -12 -11 -19q-29 -17 -72 -17q-48 0 -75.5 22t-27.5 63q0 51 48 85h-12q-103 0 -159.5 59.5t-56.5 181.5q0 115 54 177.5t152 62.5q46 0 81 -14t55.5 -35t33 -48.5t17 -51t4.5 -46.5q0 -15 -1 -23t-4 -19t-12 -16.5t-23 -5.5h-292
q0 -75 40.5 -119t110.5 -44q63 0 120 43q9 6 18 6q12 0 20.5 -8.5t8.5 -20.5t-11 -23q-14 -14 -52.5 -32t-64 -39.5t-25.5 -55.5q0 -26 15 -39.5t40 -13.5q26 0 47 9q7 3 12 3zM369 265q0 145 -128 145q-64 0 -100 -38.5t-41 -106.5h269z" />
    <glyph glyph-name="Ecaron" unicode="&#x11a;" 
d="M446 0h-332q-14 0 -24 10t-10 24v605q0 14 10 24t24 10h321q13 0 22 -9t9 -22t-9 -22t-22 -9h-287v-241h220q13 0 22 -9t9 -22t-9 -22t-22 -9h-220v-246h298q13 0 22 -9t9 -22t-9 -22t-22 -9zM289 773l81 68q6 6 16 6t17 -7t7 -17q0 -11 -9 -19l-96 -79q-8 -6 -16 -6
t-16 6l-96 79q-9 8 -9 19q0 10 7 17t17 7t16 -6z" />
    <glyph glyph-name="ecaron" unicode="&#x11b;" horiz-adv-x="466" 
d="M35 228q0 115 54 177.5t152 62.5q46 0 81 -14t55.5 -35t33 -48.5t17 -51t4.5 -46.5q0 -15 -1 -23t-4 -19t-12 -16.5t-23 -5.5h-292q0 -75 40.5 -119t110.5 -44q63 0 120 43q9 6 18 6q12 0 20.5 -8.5t8.5 -20.5t-11 -23q-56 -56 -156 -56q-103 0 -159.5 59.5t-56.5 181.5z
M369 265q0 145 -128 145q-64 0 -100 -38.5t-41 -106.5h269zM242 553l81 68q6 6 16 6t17 -7t7 -17q0 -11 -9 -19l-96 -79q-8 -6 -16 -6t-16 6l-96 79q-9 8 -9 19q0 10 7 17t17 7t16 -6z" />
    <glyph glyph-name="Gcircumflex" unicode="&#x11c;" horiz-adv-x="663" 
d="M356 48q122 0 186 80v145h-167q-13 0 -22 9t-9 22t9 22t22 9h202q12 0 21.5 -9t9.5 -22v-175q0 -17 -13 -33q-94 -110 -239 -110q-312 0 -312 350q0 174 81.5 262.5t230.5 88.5q71 0 130 -28.5t95 -77.5q7 -10 7 -21q0 -14 -9 -23t-23 -9q-16 0 -26 13q-27 37 -73 60.5
t-101 23.5q-117 0 -179.5 -72t-62.5 -217q0 -151 61 -219.5t181 -68.5zM438 725l-81 68l-81 -68q-6 -6 -16 -6t-17 7t-7 17q0 11 9 19l96 79q8 6 16 6t16 -6l96 -79q9 -8 9 -19q0 -10 -7 -17t-17 -7t-16 6z" />
    <glyph glyph-name="gcircumflex" unicode="&#x11d;" horiz-adv-x="478" 
d="M229 468q63 0 107 -25q14 26 34 40t55 14q12 0 20.5 -8.5t8.5 -20.5t-8.5 -20.5t-20.5 -8.5q-34 0 -48 -31q36 -44 36 -108q0 -77 -49 -122.5t-135 -45.5q-64 0 -108 25q-18 -15 -18 -36q0 -42 74 -42h103q77 0 126 -34.5t49 -101.5q0 -74 -59 -109t-156 -35
q-57 0 -102 11.5t-78 44t-33 84.5q0 70 76 101q-28 9 -45 30.5t-17 50.5q0 43 40 70q-36 45 -36 109q0 77 49 122.5t135 45.5zM229 190q57 0 88 30t31 80t-31 80t-88 30t-88 -30t-31 -80t31 -80t88 -30zM390 -57q0 76 -110 76h-104q-84 -14 -84 -80q0 -43 42 -63.5
t107 -20.5t107 21t42 67zM311 528l-81 68l-81 -68q-6 -6 -16 -6t-17 7t-7 17q0 12 9 19l96 79q8 6 16 6t16 -6l96 -79q9 -7 9 -19q0 -10 -7 -17t-17 -7t-16 6z" />
    <glyph glyph-name="Gbreve" unicode="&#x11e;" horiz-adv-x="663" 
d="M356 48q122 0 186 80v145h-167q-13 0 -22 9t-9 22t9 22t22 9h202q12 0 21.5 -9t9.5 -22v-175q0 -17 -13 -33q-94 -110 -239 -110q-312 0 -312 350q0 174 81.5 262.5t230.5 88.5q71 0 130 -28.5t95 -77.5q7 -10 7 -21q0 -14 -9 -23t-23 -9q-16 0 -26 13q-27 37 -73 60.5
t-101 23.5q-117 0 -179.5 -72t-62.5 -217q0 -151 61 -219.5t181 -68.5zM348 730q-49 0 -81 25t-32 76q0 10 7 17t17 7t17 -7t7 -17q0 -55 65 -55t65 55q0 10 7 17t17 7t17 -7t7 -17q0 -51 -32 -76t-81 -25z" />
    <glyph glyph-name="gbreve" unicode="&#x11f;" horiz-adv-x="478" 
d="M229 468q63 0 107 -25q14 26 34 40t55 14q12 0 20.5 -8.5t8.5 -20.5t-8.5 -20.5t-20.5 -8.5q-34 0 -48 -31q36 -44 36 -108q0 -77 -49 -122.5t-135 -45.5q-64 0 -108 25q-18 -15 -18 -36q0 -42 74 -42h103q77 0 126 -34.5t49 -101.5q0 -74 -59 -109t-156 -35
q-57 0 -102 11.5t-78 44t-33 84.5q0 70 76 101q-28 9 -45 30.5t-17 50.5q0 43 40 70q-36 45 -36 109q0 77 49 122.5t135 45.5zM229 190q57 0 88 30t31 80t-31 80t-88 30t-88 -30t-31 -80t31 -80t88 -30zM390 -57q0 76 -110 76h-104q-84 -14 -84 -80q0 -43 42 -63.5
t107 -20.5t107 21t42 67zM230 529q-49 0 -81 25t-32 76q0 10 7 17t17 7t17 -7t7 -17q0 -55 65 -55t65 55q0 10 7 17t17 7t17 -7t7 -17q0 -51 -32 -76t-81 -25z" />
    <glyph glyph-name="Gdotaccent" unicode="&#x120;" horiz-adv-x="663" 
d="M356 48q122 0 186 80v145h-167q-13 0 -22 9t-9 22t9 22t22 9h202q12 0 21.5 -9t9.5 -22v-175q0 -17 -13 -33q-94 -110 -239 -110q-312 0 -312 350q0 174 81.5 262.5t230.5 88.5q71 0 130 -28.5t95 -77.5q7 -10 7 -21q0 -14 -9 -23t-23 -9q-16 0 -26 13q-27 37 -73 60.5
t-101 23.5q-117 0 -179.5 -72t-62.5 -217q0 -151 61 -219.5t181 -68.5zM348 736q-38 0 -38 39q0 40 38 40t38 -40q0 -39 -38 -39z" />
    <glyph glyph-name="gdotaccent" unicode="&#x121;" horiz-adv-x="478" 
d="M229 468q63 0 107 -25q14 26 34 40t55 14q12 0 20.5 -8.5t8.5 -20.5t-8.5 -20.5t-20.5 -8.5q-34 0 -48 -31q36 -44 36 -108q0 -77 -49 -122.5t-135 -45.5q-64 0 -108 25q-18 -15 -18 -36q0 -42 74 -42h103q77 0 126 -34.5t49 -101.5q0 -74 -59 -109t-156 -35
q-57 0 -102 11.5t-78 44t-33 84.5q0 70 76 101q-28 9 -45 30.5t-17 50.5q0 43 40 70q-36 45 -36 109q0 77 49 122.5t135 45.5zM229 190q57 0 88 30t31 80t-31 80t-88 30t-88 -30t-31 -80t31 -80t88 -30zM390 -57q0 76 -110 76h-104q-84 -14 -84 -80q0 -43 42 -63.5
t107 -20.5t107 21t42 67zM232 544q-38 0 -38 39q0 40 38 40t38 -40q0 -39 -38 -39z" />
    <glyph glyph-name="Gcommaaccent" unicode="&#x122;" horiz-adv-x="663" 
d="M356 48q122 0 186 80v145h-167q-13 0 -22 9t-9 22t9 22t22 9h202q12 0 21.5 -9t9.5 -22v-175q0 -17 -13 -33q-94 -110 -239 -110q-312 0 -312 350q0 174 81.5 262.5t230.5 88.5q71 0 130 -28.5t95 -77.5q7 -10 7 -21q0 -14 -9 -23t-23 -9q-16 0 -26 13q-27 37 -73 60.5
t-101 23.5q-117 0 -179.5 -72t-62.5 -217q0 -151 61 -219.5t181 -68.5zM404 -100q0 -48 -13.5 -81.5t-45.5 -65.5q-5 -5 -11 -5q-13 0 -13 13q0 5 4 9q29 29 29 65q0 17 -18 39t-18 41q0 43 42 43q44 0 44 -58z" />
    <glyph glyph-name="gcommaaccent" unicode="&#x123;" horiz-adv-x="478" 
d="M191 566q0 96 64 163q6 6 13 6q15 0 15 -15q0 -4 -3 -9q-29 -40 -29 -70q0 -19 18 -44.5t18 -46.5q0 -48 -47 -48q-49 0 -49 64zM229 468q63 0 107 -25q14 26 34 40t55 14q12 0 20.5 -8.5t8.5 -20.5t-8.5 -20.5t-20.5 -8.5q-34 0 -48 -31q36 -44 36 -108
q0 -77 -49 -122.5t-135 -45.5q-64 0 -108 25q-18 -15 -18 -36q0 -42 74 -42h103q77 0 126 -34.5t49 -101.5q0 -74 -59 -109t-156 -35q-57 0 -102 11.5t-78 44t-33 84.5q0 70 76 101q-28 9 -45 30.5t-17 50.5q0 43 40 70q-36 45 -36 109q0 77 49 122.5t135 45.5zM229 190
q57 0 88 30t31 80t-31 80t-88 30t-88 -30t-31 -80t31 -80t88 -30zM390 -57q0 76 -110 76h-104q-84 -14 -84 -80q0 -43 42 -63.5t107 -20.5t107 21t42 67z" />
    <glyph glyph-name="Hcircumflex" unicode="&#x124;" horiz-adv-x="644" 
d="M496 314h-348v-288q0 -14 -10 -24t-24 -10t-24 10t-10 24v621q0 14 10 24t24 10t24 -10t10 -24v-271h348v271q0 14 10 24t24 10t24 -10t10 -24v-621q0 -14 -10 -24t-24 -10t-24 10t-10 24v288zM405 725l-81 68l-81 -68q-6 -6 -16 -6t-17 7t-7 17q0 11 9 19l96 79
q8 6 16 6t16 -6l96 -79q9 -8 9 -19q0 -10 -7 -17t-17 -7t-16 6z" />
    <glyph glyph-name="hcircumflex" unicode="&#x125;" horiz-adv-x="501" 
d="M262 468q184 0 184 -177v-267q0 -14 -9 -23t-23 -9t-23 9t-9 23v254q0 65 -26 99t-94 34q-133 0 -133 -140v-247q0 -14 -9.5 -23t-22.5 -9t-22.5 9t-9.5 23v656q0 14 9.5 23t22.5 9t22.5 -9t9.5 -23v-282q15 30 50.5 50t82.5 20zM178 725l-81 68l-81 -68q-6 -6 -16 -6
t-17 7t-7 17q0 11 9 19l96 79q8 6 16 6t16 -6l96 -79q9 -8 9 -19q0 -10 -7 -17t-17 -7t-16 6z" />
    <glyph glyph-name="Hbar" unicode="&#x126;" horiz-adv-x="644" 
d="M496 314h-348v-288q0 -14 -10 -24t-24 -10t-24 10t-10 24v437h-30q-10 0 -17.5 7.5t-7.5 17.5t7.5 17.5t17.5 7.5h30v134q0 14 10 24t24 10t24 -10t10 -24v-134h348v134q0 14 10 24t24 10t24 -10t10 -24v-134h30q10 0 17.5 -7.5t7.5 -17.5t-7.5 -17.5t-17.5 -7.5h-30
v-437q0 -14 -10 -24t-24 -10t-24 10t-10 24v288zM148 376h348v87h-348v-87z" />
    <glyph glyph-name="hbar" unicode="&#x127;" horiz-adv-x="501" 
d="M262 468q184 0 184 -177v-267q0 -14 -9 -23t-23 -9t-23 9t-9 23v254q0 65 -26 99t-94 34q-133 0 -133 -140v-247q0 -14 -9.5 -23t-22.5 -9t-22.5 9t-9.5 23v537h-29q-10 0 -17.5 7.5t-7.5 17.5t7.5 17.5t17.5 7.5h29v69q0 14 9.5 23t22.5 9t22.5 -9t9.5 -23v-69h111
q10 0 17.5 -7.5t7.5 -17.5t-7.5 -17.5t-17.5 -7.5h-111v-163q15 30 50.5 50t82.5 20z" />
    <glyph glyph-name="Itilde" unicode="&#x128;" horiz-adv-x="228" 
d="M148 647v-621q0 -14 -10 -24t-24 -10t-24 10t-10 24v621q0 14 10 24t24 10t24 -10t10 -24zM56 819q26 0 62 -19.5t56 -19.5q25 0 46 28q8 11 20 11q10 0 17 -7t7 -17q0 -6 -3 -12q-26 -52 -87 -52q-26 0 -62 19.5t-56 19.5q-25 0 -46 -28q-8 -11 -20 -11q-10 0 -17 7
t-7 17q0 6 3 12q26 52 87 52z" />
    <glyph glyph-name="itilde" unicode="&#x129;" horiz-adv-x="193" 
d="M36 617q26 0 62 -19.5t56 -19.5q25 0 46 28q8 11 20 11q10 0 17 -7t7 -17q0 -6 -3 -12q-26 -52 -87 -52q-26 0 -62 19.5t-56 19.5q-25 0 -46 -28q-8 -11 -20 -11q-10 0 -17 7t-7 17q0 6 3 12q26 52 87 52zM128 430v-406q0 -14 -9 -23t-23 -9t-23 9t-9 23v406q0 14 9 23
t23 9t23 -9t9 -23z" />
    <glyph glyph-name="Imacron" unicode="&#x12a;" horiz-adv-x="228" 
d="M148 647v-621q0 -14 -10 -24t-24 -10t-24 10t-10 24v621q0 14 10 24t24 10t24 -10t10 -24zM233 758q0 -10 -7.5 -17.5t-17.5 -7.5h-186q-10 0 -17.5 7.5t-7.5 17.5t7.5 17.5t17.5 7.5h186q10 0 17.5 -7.5t7.5 -17.5z" />
    <glyph glyph-name="imacron" unicode="&#x12b;" horiz-adv-x="193" 
d="M214 562q0 -10 -7 -17.5t-18 -7.5h-186q-11 0 -18 7.5t-7 17.5t7 17.5t18 7.5h186q11 0 18 -7.5t7 -17.5zM128 430v-406q0 -14 -9 -23t-23 -9t-23 9t-9 23v406q0 14 9 23t23 9t23 -9t9 -23z" />
    <glyph glyph-name="Ibreve" unicode="&#x12c;" horiz-adv-x="228" 
d="M148 647v-621q0 -14 -10 -24t-24 -10t-24 10t-10 24v621q0 14 10 24t24 10t24 -10t10 -24zM114 730q-49 0 -81 25t-32 76q0 10 7 17t17 7t17 -7t7 -17q0 -55 65 -55t65 55q0 10 7 17t17 7t17 -7t7 -17q0 -51 -32 -76t-81 -25z" />
    <glyph glyph-name="ibreve" unicode="&#x12d;" horiz-adv-x="193" 
d="M96 529q-49 0 -81 25t-32 76q0 10 7 17t17 7t17 -7t7 -17q0 -55 65 -55t65 55q0 10 7 17t17 7t17 -7t7 -17q0 -51 -32 -76t-81 -25zM128 430v-406q0 -14 -9 -23t-23 -9t-23 9t-9 23v406q0 14 9 23t23 9t23 -9t9 -23z" />
    <glyph glyph-name="Iogonek" unicode="&#x12e;" horiz-adv-x="228" 
d="M185 -125q9 0 15.5 -6.5t6.5 -15.5q0 -12 -11 -19q-29 -17 -72 -17q-48 0 -75.5 22t-27.5 63q0 62 70 99q-11 9 -11 25v621q0 14 10 24t24 10t24 -10t10 -24v-621q0 -20 -18 -30q-59 -31 -59 -80q0 -26 15 -39.5t40 -13.5q26 0 47 9q7 3 12 3z" />
    <glyph glyph-name="iogonek" unicode="&#x12f;" horiz-adv-x="193" 
d="M168 -125q9 0 15.5 -6.5t6.5 -15.5q0 -12 -11 -19q-29 -17 -72 -17q-48 0 -75.5 22t-27.5 63q0 63 70 98q-10 10 -10 24v406q0 14 9 23t23 9t23 -9t9 -23v-406q0 -17 -18 -29q-18 -11 -28.5 -20.5t-19 -25t-8.5 -33.5q0 -26 15 -39.5t40 -13.5q26 0 47 9q8 3 12 3z
M96 556q-38 0 -38 38q0 40 38 40t38 -40q0 -38 -38 -38z" />
    <glyph glyph-name="Idotaccent" unicode="&#x130;" horiz-adv-x="228" 
d="M148 647v-621q0 -14 -10 -24t-24 -10t-24 10t-10 24v621q0 14 10 24t24 10t24 -10t10 -24zM115 736q-38 0 -38 39q0 40 38 40t38 -40q0 -39 -38 -39z" />
    <glyph glyph-name="dotlessi" unicode="&#x131;" horiz-adv-x="193" 
d="M128 430v-406q0 -14 -9 -23t-23 -9t-23 9t-9 23v406q0 14 9 23t23 9t23 -9t9 -23z" />
    <glyph glyph-name="IJ" unicode="&#x132;" horiz-adv-x="616" 
d="M148 647v-621q0 -14 -10 -24t-24 -10t-24 10t-10 24v621q0 14 10 24t24 10t24 -10t10 -24zM238 10q-19 11 -19 30q0 14 9.5 23.5t23.5 9.5q6 0 20 -6q32 -16 74 -16q63 0 92.5 41t29.5 111v444q0 14 10 24t24 10t24 -10t10 -24v-444q0 -99 -45.5 -157.5t-144.5 -58.5
q-68 0 -108 23z" />
    <glyph glyph-name="ij" unicode="&#x133;" horiz-adv-x="378" 
d="M129 430v-406q0 -14 -9.5 -23t-22.5 -9t-22.5 9t-9.5 23v406q0 14 9.5 23t22.5 9t22.5 -9t9.5 -23zM97 556q-38 0 -38 38q0 40 38 40t38 -40q0 -38 -38 -38zM249 -35v465q0 14 9.5 23t22.5 9t22.5 -9t9.5 -23v-465q0 -64 -41.5 -107t-104.5 -43q-13 0 -21.5 8.5
t-8.5 21.5t8.5 21.5t21.5 8.5q36 0 59 26t23 64zM281 556q-38 0 -38 38q0 40 38 40t38 -40q0 -38 -38 -38z" />
    <glyph glyph-name="Jcircumflex" unicode="&#x134;" horiz-adv-x="413" 
d="M35 10q-19 11 -19 30q0 14 10 23.5t23 9.5q7 0 20 -6q32 -16 74 -16q63 0 92.5 41t29.5 111v444q0 14 10 24t24 10t24 -10t10 -24v-444q0 -99 -45.5 -157.5t-144.5 -58.5q-68 0 -108 23zM377 725l-81 68l-81 -68q-6 -6 -16 -6t-17 7t-7 17q0 11 9 19l96 79q8 6 16 6
t16 -6l96 -79q9 -8 9 -19q0 -10 -7 -17t-17 -7t-16 6z" />
    <glyph glyph-name="jcircumflex" unicode="&#x135;" horiz-adv-x="194" 
d="M65 -35v465q0 14 9.5 23t22.5 9t22.5 -9t9.5 -23v-465q0 -64 -41.5 -107t-104.5 -43q-13 0 -21.5 8.5t-8.5 21.5t8.5 21.5t21.5 8.5q36 0 59 26t23 64zM175 528l-81 68l-81 -68q-6 -6 -16 -6t-17 7t-7 17q0 12 9 19l96 79q8 6 16 6t16 -6l96 -79q9 -7 9 -19q0 -10 -7 -17
t-17 -7t-16 6z" />
    <glyph glyph-name="Kcommaaccent" unicode="&#x136;" horiz-adv-x="554" 
d="M148 335l291 333q10 13 27 13q14 0 24.5 -10.5t10.5 -24.5q0 -12 -10 -24l-209 -234l242 -341q7 -11 7 -21q0 -14 -10 -24t-24 -10q-18 0 -29 16l-232 330l-88 -99v-213q0 -14 -10 -24t-24 -10t-24 10t-10 24v621q0 14 10 24t24 10t24 -10t10 -24v-312zM340 -100
q0 -48 -13.5 -81.5t-45.5 -65.5q-5 -5 -11 -5q-13 0 -13 13q0 5 4 9q29 29 29 65q0 17 -18 39t-18 41q0 43 42 43q44 0 44 -58z" />
    <glyph glyph-name="kcommaaccent" unicode="&#x137;" horiz-adv-x="453" 
d="M395 -8q-16 0 -28 15l-177 227l-61 -49v-161q0 -14 -9.5 -23t-22.5 -9t-22.5 9t-9.5 23v656q0 14 9.5 23t22.5 9t22.5 -9t9.5 -23v-419l236 193q9 8 22 8t22.5 -9t9.5 -23q0 -16 -13 -26l-164 -131l178 -229q7 -8 7 -20q0 -14 -9.5 -23t-22.5 -9zM292 -100
q0 -48 -13.5 -81.5t-45.5 -65.5q-5 -5 -11 -5q-13 0 -13 13q0 5 4 9q29 29 29 65q0 17 -18 39t-18 41q0 43 42 43q44 0 44 -58z" />
    <glyph glyph-name="kgreenlandic" unicode="&#x138;" horiz-adv-x="453" 
d="M395 -8q-16 0 -28 15l-177 227l-61 -49v-161q0 -14 -9.5 -23t-22.5 -9t-22.5 9t-9.5 23v406q0 14 9.5 23t22.5 9t22.5 -9t9.5 -23v-169l236 193q9 8 22 8t22.5 -9t9.5 -23q0 -16 -13 -26l-164 -131l178 -229q7 -8 7 -20q0 -14 -9.5 -23t-22.5 -9z" />
    <glyph glyph-name="Lacute" unicode="&#x139;" horiz-adv-x="483" 
d="M148 64h274q14 0 23 -9t9 -23t-9 -23t-23 -9h-308q-14 0 -24 10t-10 24v613q0 14 10 24t24 10t24 -10t10 -24v-583zM74 724q-16 13 -3 30l89 108q16 20 38 0q21 -20 3 -38l-97 -98q-15 -15 -30 -2z" />
    <glyph glyph-name="lacute" unicode="&#x13a;" horiz-adv-x="219" 
d="M97 712q13 0 22.5 -9.5t9.5 -22.5v-571q0 -57 40 -57q12 0 21 -8.5t9 -21.5t-9 -21.5t-21 -8.5q-104 0 -104 117v571q0 13 9.5 22.5t22.5 9.5zM51 742q-16 13 -3 30l89 108q16 20 38 0q21 -20 3 -38l-97 -98q-15 -15 -30 -2z" />
    <glyph glyph-name="Lcommaaccent" unicode="&#x13b;" horiz-adv-x="483" 
d="M148 64h274q14 0 23 -9t9 -23t-9 -23t-23 -9h-308q-14 0 -24 10t-10 24v613q0 14 10 24t24 10t24 -10t10 -24v-583zM323 -100q0 -48 -13.5 -81.5t-45.5 -65.5q-5 -5 -11 -5q-13 0 -13 13q0 5 4 9q29 29 29 65q0 17 -18 39t-18 41q0 43 42 43q44 0 44 -58z" />
    <glyph glyph-name="lcommaaccent" unicode="&#x13c;" horiz-adv-x="219" 
d="M97 712q13 0 22.5 -9.5t9.5 -22.5v-571q0 -57 40 -57q12 0 21 -8.5t9 -21.5t-9 -21.5t-21 -8.5q-104 0 -104 117v571q0 13 9.5 22.5t22.5 9.5zM173 -100q0 -48 -13.5 -81.5t-45.5 -65.5q-5 -5 -11 -5q-13 0 -13 13q0 5 4 9q29 29 29 65q0 17 -18 39t-18 41q0 43 42 43
q44 0 44 -58z" />
    <glyph glyph-name="Lcaron" unicode="&#x13d;" horiz-adv-x="483" 
d="M148 64h274q14 0 23 -9t9 -23t-9 -23t-23 -9h-308q-14 0 -24 10t-10 24v613q0 14 10 24t24 10t24 -10t10 -24v-583zM395 617q0 -104 -72 -179q-6 -6 -13 -6q-15 0 -15 15q0 5 3 9q37 51 37 91q0 19 -18 42t-18 44q0 48 47 48q49 0 49 -64z" />
    <glyph glyph-name="lcaron" unicode="&#x13e;" horiz-adv-x="234" 
d="M97 712q13 0 22.5 -9.5t9.5 -22.5v-571q0 -57 40 -57q12 0 21 -8.5t9 -21.5t-9 -21.5t-21 -8.5q-104 0 -104 117v571q0 13 9.5 22.5t22.5 9.5zM271 648q0 -104 -72 -179q-6 -6 -13 -6q-15 0 -15 15q0 4 3 9q37 51 37 91q0 19 -18 42t-18 44q0 48 47 48q49 0 49 -64z" />
    <glyph glyph-name="Ldot" unicode="&#x13f;" horiz-adv-x="483" 
d="M148 64h274q14 0 23 -9t9 -23t-9 -23t-23 -9h-308q-14 0 -24 10t-10 24v613q0 14 10 24t24 10t24 -10t10 -24v-583zM378 297q-47 0 -47 47q0 48 47 48t47 -48q0 -47 -47 -47z" />
    <glyph glyph-name="ldot" unicode="&#x140;" horiz-adv-x="279" 
d="M97 712q13 0 22.5 -9.5t9.5 -22.5v-571q0 -57 40 -57q12 0 21 -8.5t9 -21.5t-9 -21.5t-21 -8.5q-104 0 -104 117v571q0 13 9.5 22.5t22.5 9.5zM217 328q-47 0 -47 47q0 48 47 48t47 -48q0 -47 -47 -47z" />
    <glyph glyph-name="Lslash" unicode="&#x141;" horiz-adv-x="503" 
d="M167 64h274q13 0 22.5 -9t9.5 -23t-9.5 -23t-22.5 -9h-308q-14 0 -24 10t-10 24v220l-45 -21q-6 -3 -13 -3q-12 0 -20.5 8.5t-8.5 20.5q0 19 18 27l69 32v329q0 14 10 24t24 10t24 -10t10 -24v-298l172 81q6 3 13 3q12 0 20.5 -8.5t8.5 -20.5q0 -20 -18 -27l-196 -92
v-221z" />
    <glyph glyph-name="lslash" unicode="&#x142;" horiz-adv-x="254" 
d="M97 712q13 0 22.5 -9.5t9.5 -22.5v-262l78 45q6 3 12 3q11 0 19 -7.5t8 -19.5q0 -16 -14 -24l-103 -59v-247q0 -57 40 -57q12 0 21 -8.5t9 -21.5t-9 -21.5t-21 -8.5q-104 0 -104 117v210l-24 -14q-7 -4 -14 -4q-11 0 -19 7.5t-8 19.5q0 16 14 24l51 29v299q0 13 9.5 22.5
t22.5 9.5z" />
    <glyph glyph-name="Nacute" unicode="&#x143;" horiz-adv-x="620" 
d="M517 681q13 0 23 -9.5t10 -23.5v-622q0 -14 -10 -24t-24 -10q-17 0 -28 14l-352 531v-512q0 -13 -10 -23t-23 -10t-23 10t-10 23v623q0 14 10 23.5t23 9.5q17 0 27 -14l354 -532v513q0 14 10 23.5t23 9.5zM274 723q-16 13 -3 30l89 108q16 20 38 0q21 -20 3 -38l-97 -98
q-15 -15 -30 -2z" />
    <glyph glyph-name="nacute" unicode="&#x144;" horiz-adv-x="501" 
d="M262 468q184 0 184 -177v-267q0 -14 -9 -23t-23 -9t-23 9t-9 23v254q0 65 -26 99t-94 34q-133 0 -133 -140v-247q0 -14 -9.5 -23t-22.5 -9t-22.5 9t-9.5 23v406q0 14 9.5 23t22.5 9t22.5 -9t9.5 -23v-32q15 30 50.5 50t82.5 20zM196 520q-16 13 -3 30l89 108q16 20 38 0
q21 -20 3 -38l-97 -98q-15 -15 -30 -2z" />
    <glyph glyph-name="Ncommaaccent" unicode="&#x145;" horiz-adv-x="620" 
d="M517 681q13 0 23 -9.5t10 -23.5v-622q0 -14 -10 -24t-24 -10q-17 0 -28 14l-352 531v-512q0 -13 -10 -23t-23 -10t-23 10t-10 23v623q0 14 10 23.5t23 9.5q17 0 27 -14l354 -532v513q0 14 10 23.5t23 9.5zM350 -100q0 -48 -13.5 -81.5t-45.5 -65.5q-5 -5 -11 -5
q-13 0 -13 13q0 5 4 9q29 29 29 65q0 17 -18 39t-18 41q0 43 42 43q44 0 44 -58z" />
    <glyph glyph-name="ncommaaccent" unicode="&#x146;" horiz-adv-x="501" 
d="M262 468q184 0 184 -177v-267q0 -14 -9 -23t-23 -9t-23 9t-9 23v254q0 65 -26 99t-94 34q-133 0 -133 -140v-247q0 -14 -9.5 -23t-22.5 -9t-22.5 9t-9.5 23v406q0 14 9.5 23t22.5 9t22.5 -9t9.5 -23v-32q15 30 50.5 50t82.5 20zM303 -100q0 -48 -13.5 -81.5t-45.5 -65.5
q-5 -5 -11 -5q-13 0 -13 13q0 5 4 9q29 29 29 65q0 17 -18 39t-18 41q0 43 42 43q44 0 44 -58z" />
    <glyph glyph-name="Ncaron" unicode="&#x147;" horiz-adv-x="620" 
d="M517 681q13 0 23 -9.5t10 -23.5v-622q0 -14 -10 -24t-24 -10q-17 0 -28 14l-352 531v-512q0 -13 -10 -23t-23 -10t-23 10t-10 23v623q0 14 10 23.5t23 9.5q17 0 27 -14l354 -532v513q0 14 10 23.5t23 9.5zM321 773l81 68q6 6 16 6t17 -7t7 -17q0 -11 -9 -19l-96 -79
q-8 -6 -16 -6t-16 6l-96 79q-9 8 -9 19q0 10 7 17t17 7t16 -6z" />
    <glyph glyph-name="ncaron" unicode="&#x148;" horiz-adv-x="501" 
d="M262 468q184 0 184 -177v-267q0 -14 -9 -23t-23 -9t-23 9t-9 23v254q0 65 -26 99t-94 34q-133 0 -133 -140v-247q0 -14 -9.5 -23t-22.5 -9t-22.5 9t-9.5 23v406q0 14 9.5 23t22.5 9t22.5 -9t9.5 -23v-32q15 30 50.5 50t82.5 20zM265 553l81 68q6 6 16 6t17 -7t7 -17
q0 -11 -9 -19l-96 -79q-8 -6 -16 -6t-16 6l-96 79q-9 8 -9 19q0 10 7 17t17 7t16 -6z" />
    <glyph glyph-name="napostrophe" unicode="&#x149;" horiz-adv-x="501" 
d="M262 468q184 0 184 -177v-267q0 -14 -9 -23t-23 -9t-23 9t-9 23v254q0 65 -26 99t-94 34q-133 0 -133 -140v-247q0 -14 -9.5 -23t-22.5 -9t-22.5 9t-9.5 23v406q0 14 9.5 23t22.5 9t22.5 -9t9.5 -23v-32q15 30 50.5 50t82.5 20zM92 617q0 -48 -13.5 -81.5t-45.5 -65.5
q-5 -5 -11 -5q-13 0 -13 13q0 5 4 9q29 29 29 65q0 17 -18 39t-18 41q0 43 42 43q44 0 44 -58z" />
    <glyph glyph-name="Eng" unicode="&#x14a;" horiz-adv-x="620" 
d="M360 -137q62 0 92.5 40.5t31.5 108.5l-348 525v-512q0 -13 -10 -23t-23 -10t-23 10t-10 23v623q0 14 10 23.5t23 9.5q17 0 27 -14l354 -532v513q0 14 10 23.5t23 9.5t23 -9.5t10 -23.5v-633q0 -99 -45.5 -157.5t-144.5 -58.5q-14 0 -23 9.5t-9 22.5t9 22.5t23 9.5z" />
    <glyph glyph-name="eng" unicode="&#x14b;" horiz-adv-x="501" 
d="M382 -51v329q0 65 -26 99t-94 34q-133 0 -133 -140v-247q0 -14 -9.5 -23t-22.5 -9t-22.5 9t-9.5 23v406q0 14 9.5 23t22.5 9t22.5 -9t9.5 -23v-32q15 30 50.5 50t82.5 20q184 0 184 -177v-342q0 -64 -41.5 -107t-104.5 -43q-13 0 -21.5 8.5t-8.5 21.5t8.5 21.5t21.5 8.5
q36 0 59 26t23 64z" />
    <glyph glyph-name="Omacron" unicode="&#x14c;" horiz-adv-x="712" 
d="M356 -14q148 0 230 88.5t82 261.5q0 174 -81.5 262.5t-230.5 88.5t-230.5 -88.5t-81.5 -262.5q0 -173 82 -261.5t230 -88.5zM356 625q117 0 179.5 -72t62.5 -217q0 -144 -62.5 -216t-179.5 -72t-179.5 72t-62.5 216q0 145 62.5 217t179.5 72zM477 758q0 -10 -7.5 -17.5
t-17.5 -7.5h-186q-10 0 -17.5 7.5t-7.5 17.5t7.5 17.5t17.5 7.5h186q10 0 17.5 -7.5t7.5 -17.5z" />
    <glyph glyph-name="omacron" unicode="&#x14d;" horiz-adv-x="490" 
d="M245 468q100 0 155 -60t55 -180t-55 -180.5t-155 -60.5q-99 0 -154.5 60.5t-55.5 180.5t55 180t155 60zM245 45q145 0 145 183q0 182 -145 182t-145 -182q0 -183 145 -183zM363 562q0 -10 -7.5 -17.5t-17.5 -7.5h-186q-10 0 -17.5 7.5t-7.5 17.5t7.5 17.5t17.5 7.5h186
q10 0 17.5 -7.5t7.5 -17.5z" />
    <glyph glyph-name="Obreve" unicode="&#x14e;" horiz-adv-x="712" 
d="M356 -14q148 0 230 88.5t82 261.5q0 174 -81.5 262.5t-230.5 88.5t-230.5 -88.5t-81.5 -262.5q0 -173 82 -261.5t230 -88.5zM356 625q117 0 179.5 -72t62.5 -217q0 -144 -62.5 -216t-179.5 -72t-179.5 72t-62.5 216q0 145 62.5 217t179.5 72zM358 730q-49 0 -81 25
t-32 76q0 10 7 17t17 7t17 -7t7 -17q0 -55 65 -55t65 55q0 10 7 17t17 7t17 -7t7 -17q0 -51 -32 -76t-81 -25z" />
    <glyph glyph-name="obreve" unicode="&#x14f;" horiz-adv-x="490" 
d="M245 468q100 0 155 -60t55 -180t-55 -180.5t-155 -60.5q-99 0 -154.5 60.5t-55.5 180.5t55 180t155 60zM245 45q145 0 145 183q0 182 -145 182t-145 -182q0 -183 145 -183zM244 529q-49 0 -81 25t-32 76q0 10 7 17t17 7t17 -7t7 -17q0 -55 65 -55t65 55q0 10 7 17t17 7
t17 -7t7 -17q0 -51 -32 -76t-81 -25z" />
    <glyph glyph-name="Ohungarumlaut" unicode="&#x150;" horiz-adv-x="712" 
d="M356 -14q148 0 230 88.5t82 261.5q0 174 -81.5 262.5t-230.5 88.5t-230.5 -88.5t-81.5 -262.5q0 -173 82 -261.5t230 -88.5zM356 625q117 0 179.5 -72t62.5 -217q0 -144 -62.5 -216t-179.5 -72t-179.5 72t-62.5 216q0 145 62.5 217t179.5 72zM289 723q-16 13 -3 30
l89 108q16 20 38 0q21 -20 3 -38l-97 -98q-15 -15 -30 -2zM398 723q-16 13 -3 30l89 108q16 20 38 0q21 -20 3 -38l-97 -98q-15 -15 -30 -2z" />
    <glyph glyph-name="ohungarumlaut" unicode="&#x151;" horiz-adv-x="490" 
d="M245 468q100 0 155 -60t55 -180t-55 -180.5t-155 -60.5q-99 0 -154.5 60.5t-55.5 180.5t55 180t155 60zM245 45q145 0 145 183q0 182 -145 182t-145 -182q0 -183 145 -183zM156 520q-16 13 -3 30l89 108q16 20 38 0q21 -20 3 -38l-97 -98q-15 -15 -30 -2zM265 520
q-16 13 -3 30l89 108q16 20 38 0q21 -20 3 -38l-97 -98q-15 -15 -30 -2z" />
    <glyph glyph-name="OE" unicode="&#x152;" horiz-adv-x="923" 
d="M851 0h-332q-16 0 -25 11q-64 -25 -140 -25q-148 0 -229 88.5t-81 261.5q0 175 81 263t229 88q76 0 139 -26q10 12 26 12h321q13 0 22 -9t9 -22t-9 -22t-22 -9h-287v-241h220q13 0 22 -9t9 -22t-9 -22t-22 -9h-220v-246h298q13 0 22 -9t9 -22t-9 -22t-22 -9zM354 625
q-117 0 -178.5 -72t-61.5 -217q0 -144 61.5 -216t178.5 -72q78 0 131 31v514q-55 32 -131 32z" />
    <glyph glyph-name="oe" unicode="&#x153;" horiz-adv-x="821" 
d="M245 468q126 0 178 -93q52 93 173 93q46 0 81 -14t55.5 -35t33 -48.5t17 -51t4.5 -46.5q0 -15 -1 -23t-4 -19t-12 -16.5t-23 -5.5h-292q0 -75 40.5 -119t110.5 -44q63 0 120 43q9 6 18 6q12 0 20.5 -8.5t8.5 -20.5t-11 -23q-56 -56 -156 -56q-131 0 -184 92
q-52 -92 -177 -92q-99 0 -154.5 60.5t-55.5 180.5t55 180t155 60zM390 228q-4 182 -145 182q-145 0 -145 -182q0 -183 145 -183q141 0 145 183zM724 265q0 145 -128 145q-64 0 -100 -38.5t-41 -106.5h269z" />
    <glyph glyph-name="Racute" unicode="&#x154;" horiz-adv-x="546" 
d="M148 611v-258h167q52 0 86 37t34 92q0 56 -34.5 92.5t-88.5 36.5h-164zM148 291v-265q0 -14 -10 -24t-24 -10t-24 10t-10 24v613q0 14 10 24t24 10h199q83 0 137 -55t54 -136q0 -79 -49.5 -133t-129.5 -58l183 -244q7 -8 7 -21q0 -14 -10 -24t-24 -10q-18 0 -29 16
l-203 283h-101zM226 724q-16 13 -3 30l89 108q16 20 38 0q21 -20 3 -38l-97 -98q-15 -15 -30 -2z" />
    <glyph glyph-name="racute" unicode="&#x155;" horiz-adv-x="309" 
d="M129 430v-44q16 36 52.5 58t86.5 22q13 0 22 -9t9 -22t-9 -22t-22 -9q-67 0 -103 -42.5t-36 -113.5v-224q0 -14 -9.5 -23t-22.5 -9t-22.5 9t-9.5 23v406q0 14 9.5 23t22.5 9t22.5 -9t9.5 -23zM137 520q-16 13 -3 30l89 108q16 20 38 0q21 -20 3 -38l-97 -98
q-15 -15 -30 -2z" />
    <glyph glyph-name="Rcommaaccent" unicode="&#x156;" horiz-adv-x="546" 
d="M148 611v-258h167q52 0 86 37t34 92q0 56 -34.5 92.5t-88.5 36.5h-164zM148 291v-265q0 -14 -10 -24t-24 -10t-24 10t-10 24v613q0 14 10 24t24 10h199q83 0 137 -55t54 -136q0 -79 -49.5 -133t-129.5 -58l183 -244q7 -8 7 -21q0 -14 -10 -24t-24 -10q-18 0 -29 16
l-203 283h-101zM331 -100q0 -48 -13.5 -81.5t-45.5 -65.5q-5 -5 -11 -5q-13 0 -13 13q0 5 4 9q29 29 29 65q0 17 -18 39t-18 41q0 43 42 43q44 0 44 -58z" />
    <glyph glyph-name="rcommaaccent" unicode="&#x157;" horiz-adv-x="309" 
d="M129 430v-44q16 36 52.5 58t86.5 22q13 0 22 -9t9 -22t-9 -22t-22 -9q-67 0 -103 -42.5t-36 -113.5v-224q0 -14 -9.5 -23t-22.5 -9t-22.5 9t-9.5 23v406q0 14 9.5 23t22.5 9t22.5 -9t9.5 -23zM138 -100q0 -48 -13.5 -81.5t-45.5 -65.5q-5 -5 -11 -5q-13 0 -13 13q0 5 4 9
q29 29 29 65q0 17 -18 39t-18 41q0 43 42 43q44 0 44 -58z" />
    <glyph glyph-name="Rcaron" unicode="&#x158;" horiz-adv-x="546" 
d="M148 611v-258h167q52 0 86 37t34 92q0 56 -34.5 92.5t-88.5 36.5h-164zM148 291v-265q0 -14 -10 -24t-24 -10t-24 10t-10 24v613q0 14 10 24t24 10h199q83 0 137 -55t54 -136q0 -79 -49.5 -133t-129.5 -58l183 -244q7 -8 7 -21q0 -14 -10 -24t-24 -10q-18 0 -29 16
l-203 283h-101zM273 773l81 68q6 6 16 6t17 -7t7 -17q0 -11 -9 -19l-96 -79q-8 -6 -16 -6t-16 6l-96 79q-9 8 -9 19q0 10 7 17t17 7t16 -6z" />
    <glyph glyph-name="rcaron" unicode="&#x159;" horiz-adv-x="309" 
d="M129 430v-44q16 36 52.5 58t86.5 22q13 0 22 -9t9 -22t-9 -22t-22 -9q-67 0 -103 -42.5t-36 -113.5v-224q0 -14 -9.5 -23t-22.5 -9t-22.5 9t-9.5 23v406q0 14 9.5 23t22.5 9t22.5 -9t9.5 -23zM168 553l81 68q6 6 16 6t17 -7t7 -17q0 -11 -9 -19l-96 -79q-8 -6 -16 -6
t-16 6l-96 79q-9 8 -9 19q0 10 7 17t17 7t16 -6z" />
    <glyph glyph-name="Sacute" unicode="&#x15a;" horiz-adv-x="558" 
d="M443 546q-64 79 -162 79q-74 0 -109.5 -31t-35.5 -78q0 -45 39 -74.5t94.5 -47t111 -39t94.5 -65t39 -110.5q0 -94 -62 -144t-178 -50q-81 0 -143.5 35.5t-89.5 87.5q-5 10 -5 18q0 13 9 22.5t23 9.5q18 0 28 -16q58 -95 178 -95q83 0 127.5 33.5t44.5 98.5q0 43 -28 73
t-70 44.5l-91 32t-91 35.5t-70 57t-28 94q0 74 54.5 122.5t158.5 48.5q70 0 126 -27.5t88 -75.5q6 -9 6 -19q0 -13 -9.5 -22.5t-22.5 -9.5q-16 0 -26 13zM252 724q-16 13 -3 30l89 108q16 20 38 0q21 -20 3 -38l-97 -98q-15 -15 -30 -2z" />
    <glyph glyph-name="sacute" unicode="&#x15b;" horiz-adv-x="424" 
d="M207 406q-89 0 -89 -60q0 -29 27 -48t66 -31.5t77.5 -27.5t65.5 -45t27 -74q0 -65 -47.5 -98.5t-122.5 -33.5q-57 0 -103 22t-68 50q-7 10 -7 19q0 12 8.5 20.5t20.5 8.5t22 -10q49 -49 127 -49q47 0 76.5 17t29.5 54q0 28 -27 46.5t-65.5 31t-77.5 27.5t-66 45.5
t-27 75.5q0 60 42.5 90.5t110.5 30.5q104 0 152 -64q7 -9 7 -19q0 -12 -8.5 -20.5t-20.5 -8.5t-21 9q-44 42 -109 42zM168 520q-16 13 -3 30l89 108q16 20 38 0q21 -20 3 -38l-97 -98q-15 -15 -30 -2z" />
    <glyph glyph-name="Scircumflex" unicode="&#x15c;" horiz-adv-x="558" 
d="M443 546q-64 79 -162 79q-74 0 -109.5 -31t-35.5 -78q0 -45 39 -74.5t94.5 -47t111 -39t94.5 -65t39 -110.5q0 -94 -62 -144t-178 -50q-81 0 -143.5 35.5t-89.5 87.5q-5 10 -5 18q0 13 9 22.5t23 9.5q18 0 28 -16q58 -95 178 -95q83 0 127.5 33.5t44.5 98.5q0 43 -28 73
t-70 44.5l-91 32t-91 35.5t-70 57t-28 94q0 74 54.5 122.5t158.5 48.5q70 0 126 -27.5t88 -75.5q6 -9 6 -19q0 -13 -9.5 -22.5t-22.5 -9.5q-16 0 -26 13zM364 725l-81 68l-81 -68q-6 -6 -16 -6t-17 7t-7 17q0 11 9 19l96 79q8 6 16 6t16 -6l96 -79q9 -8 9 -19q0 -10 -7 -17
t-17 -7t-16 6z" />
    <glyph glyph-name="scircumflex" unicode="&#x15d;" horiz-adv-x="424" 
d="M207 406q-89 0 -89 -60q0 -29 27 -48t66 -31.5t77.5 -27.5t65.5 -45t27 -74q0 -65 -47.5 -98.5t-122.5 -33.5q-57 0 -103 22t-68 50q-7 10 -7 19q0 12 8.5 20.5t20.5 8.5t22 -10q49 -49 127 -49q47 0 76.5 17t29.5 54q0 28 -27 46.5t-65.5 31t-77.5 27.5t-66 45.5
t-27 75.5q0 60 42.5 90.5t110.5 30.5q104 0 152 -64q7 -9 7 -19q0 -12 -8.5 -20.5t-20.5 -8.5t-21 9q-44 42 -109 42zM297 528l-81 68l-81 -68q-6 -6 -16 -6t-17 7t-7 17q0 12 9 19l96 79q8 6 16 6t16 -6l96 -79q9 -7 9 -19q0 -10 -7 -17t-17 -7t-16 6z" />
    <glyph glyph-name="Scedilla" unicode="&#x15e;" horiz-adv-x="558" 
d="M381 -139q0 -85 -97 -85q-38 0 -64 18q-8 6 -8 15q0 8 5.5 13.5t12.5 5.5q6 0 12 -3q20 -10 42 -10q28 0 40.5 9.5t12.5 36.5q0 46 -44 46q-9 0 -22.5 -2t-18.5 -2q-19 0 -18 22l2 63q-68 8 -119.5 41.5t-75.5 79.5q-5 10 -5 18q0 13 9 22.5t23 9.5q18 0 28 -16
q58 -95 178 -95q83 0 127.5 33.5t44.5 98.5q0 43 -28 73t-70 44.5l-91 32t-91 35.5t-70 57t-28 94q0 74 54.5 122.5t158.5 48.5q70 0 126 -27.5t88 -75.5q6 -9 6 -19q0 -13 -9.5 -22.5t-22.5 -9.5q-16 0 -26 13q-64 79 -162 79q-74 0 -109.5 -31t-35.5 -78q0 -45 39 -74.5
t94.5 -47t111 -39t94.5 -65t39 -110.5q0 -94 -62.5 -144t-180.5 -50l-4 -45q18 2 27 2q87 0 87 -82z" />
    <glyph glyph-name="scedilla" unicode="&#x15f;" horiz-adv-x="424" 
d="M312 -139q0 -85 -97 -85q-38 0 -64 18q-8 6 -8 15q0 8 5.5 13.5t12.5 5.5q6 0 12 -3q20 -10 42 -10q28 0 40.5 9.5t12.5 36.5q0 46 -44 46q-9 0 -22.5 -2t-18.5 -2q-19 0 -18 22l2 67q-42 7 -76 26.5t-51 41.5q-7 10 -7 19q0 12 8.5 20.5t20.5 8.5t22 -10q49 -49 127 -49
q47 0 76.5 17t29.5 54q0 28 -27 46.5t-65.5 31t-77.5 27.5t-66 45.5t-27 75.5q0 60 42.5 90.5t110.5 30.5q104 0 152 -64q7 -9 7 -19q0 -12 -8.5 -20.5t-20.5 -8.5t-21 9q-44 42 -109 42q-89 0 -89 -60q0 -29 27 -48t66 -31.5t77.5 -27.5t65.5 -45t27 -74q0 -66 -48.5 -99
t-130.5 -33l-4 -47q18 2 27 2q87 0 87 -82z" />
    <glyph glyph-name="Scaron" unicode="&#x160;" horiz-adv-x="558" 
d="M443 546q-64 79 -162 79q-74 0 -109.5 -31t-35.5 -78q0 -45 39 -74.5t94.5 -47t111 -39t94.5 -65t39 -110.5q0 -94 -62 -144t-178 -50q-81 0 -143.5 35.5t-89.5 87.5q-5 10 -5 18q0 13 9 22.5t23 9.5q18 0 28 -16q58 -95 178 -95q83 0 127.5 33.5t44.5 98.5q0 43 -28 73
t-70 44.5l-91 32t-91 35.5t-70 57t-28 94q0 74 54.5 122.5t158.5 48.5q70 0 126 -27.5t88 -75.5q6 -9 6 -19q0 -13 -9.5 -22.5t-22.5 -9.5q-16 0 -26 13zM286 773l81 68q6 6 16 6t17 -7t7 -17q0 -11 -9 -19l-96 -79q-8 -6 -16 -6t-16 6l-96 79q-9 8 -9 19q0 10 7 17t17 7
t16 -6z" />
    <glyph glyph-name="scaron" unicode="&#x161;" horiz-adv-x="424" 
d="M207 406q-89 0 -89 -60q0 -29 27 -48t66 -31.5t77.5 -27.5t65.5 -45t27 -74q0 -65 -47.5 -98.5t-122.5 -33.5q-57 0 -103 22t-68 50q-7 10 -7 19q0 12 8.5 20.5t20.5 8.5t22 -10q49 -49 127 -49q47 0 76.5 17t29.5 54q0 28 -27 46.5t-65.5 31t-77.5 27.5t-66 45.5
t-27 75.5q0 60 42.5 90.5t110.5 30.5q104 0 152 -64q7 -9 7 -19q0 -12 -8.5 -20.5t-20.5 -8.5t-21 9q-44 42 -109 42zM212 553l81 68q6 6 16 6t17 -7t7 -17q0 -11 -9 -19l-96 -79q-8 -6 -16 -6t-16 6l-96 79q-9 8 -9 19q0 10 7 17t17 7t16 -6z" />
    <glyph glyph-name="Tcommaaccent" unicode="&#x162;" horiz-adv-x="538" 
d="M235 609h-179q-14 0 -23 9.5t-9 22.5t9 22.5t23 9.5h425q13 0 22.5 -9.5t9.5 -22.5t-9.5 -22.5t-22.5 -9.5h-178v-583q0 -14 -10 -24t-24 -10t-24 10t-10 24v583zM312 -100q0 -48 -13.5 -81.5t-45.5 -65.5q-5 -5 -11 -5q-13 0 -13 13q0 5 4 9q29 29 29 65q0 17 -18 39
t-18 41q0 43 42 43q44 0 44 -58z" />
    <glyph glyph-name="tcommaaccent" unicode="&#x163;" horiz-adv-x="279" 
d="M90 454v105q0 13 9.5 22.5t22.5 9.5t22.5 -9.5t9.5 -22.5v-105h65q13 0 21.5 -8.5t8.5 -21.5t-8.5 -21.5t-21.5 -8.5h-65v-276q0 -31 16 -48.5t42 -17.5q13 0 22 -8.5t9 -21.5t-9 -21.5t-22 -8.5q-58 0 -90 35t-32 91v276h-39q-13 0 -21.5 8.5t-8.5 21.5t8.5 21.5
t21.5 8.5h39zM203 -100q0 -48 -13.5 -81.5t-45.5 -65.5q-5 -5 -11 -5q-13 0 -13 13q0 5 4 9q29 29 29 65q0 17 -18 39t-18 41q0 43 42 43q44 0 44 -58z" />
    <glyph glyph-name="Tcaron" unicode="&#x164;" horiz-adv-x="538" 
d="M235 609h-179q-14 0 -23 9.5t-9 22.5t9 22.5t23 9.5h425q13 0 22.5 -9.5t9.5 -22.5t-9.5 -22.5t-22.5 -9.5h-178v-583q0 -14 -10 -24t-24 -10t-24 10t-10 24v583zM270 773l81 68q6 6 16 6t17 -7t7 -17q0 -11 -9 -19l-96 -79q-8 -6 -16 -6t-16 6l-96 79q-9 8 -9 19
q0 10 7 17t17 7t16 -6z" />
    <glyph glyph-name="tcaron" unicode="&#x165;" horiz-adv-x="279" 
d="M90 454v105q0 13 9.5 22.5t22.5 9.5t22.5 -9.5t9.5 -22.5v-105h65q13 0 21.5 -8.5t8.5 -21.5t-8.5 -21.5t-21.5 -8.5h-65v-276q0 -31 16 -48.5t42 -17.5q13 0 22 -8.5t9 -21.5t-9 -21.5t-22 -8.5q-58 0 -90 35t-32 91v276h-39q-13 0 -21.5 8.5t-8.5 21.5t8.5 21.5
t21.5 8.5h39zM317 672q0 -104 -72 -179q-6 -6 -13 -6q-15 0 -15 15q0 4 3 9q37 51 37 91q0 19 -18 42t-18 44q0 48 47 48q49 0 49 -64z" />
    <glyph glyph-name="Tbar" unicode="&#x166;" horiz-adv-x="538" 
d="M235 609h-179q-14 0 -23 9.5t-9 22.5t9 22.5t23 9.5h425q13 0 22.5 -9.5t9.5 -22.5t-9.5 -22.5t-22.5 -9.5h-178v-243h81q10 0 17.5 -7t7.5 -18t-7.5 -18t-17.5 -7h-81v-290q0 -14 -10 -24t-24 -10t-24 10t-10 24v290h-87q-10 0 -17.5 7t-7.5 18t7.5 18t17.5 7h87v243z
" />
    <glyph glyph-name="tbar" unicode="&#x167;" horiz-adv-x="279" 
d="M249 300q0 -10 -7.5 -17.5t-17.5 -7.5h-70v-157q0 -31 16 -48.5t42 -17.5q13 0 22 -8.5t9 -21.5t-9 -21.5t-22 -8.5q-58 0 -90 35t-32 91v157h-44q-10 0 -17.5 7.5t-7.5 17.5t7.5 17.5t17.5 7.5h44v69h-39q-13 0 -21.5 8.5t-8.5 21.5t8.5 21.5t21.5 8.5h39v105
q0 13 9.5 22.5t22.5 9.5t22.5 -9.5t9.5 -22.5v-105h65q13 0 21.5 -8.5t8.5 -21.5t-8.5 -21.5t-21.5 -8.5h-65v-69h70q10 0 17.5 -7.5t7.5 -17.5z" />
    <glyph glyph-name="Utilde" unicode="&#x168;" horiz-adv-x="625" 
d="M316 -14q-235 0 -235 219v442q0 14 10 24t24 10t24 -10t10 -24v-442q0 -33 7 -58.5t24.5 -48.5t51.5 -35.5t84 -12.5q94 0 130 42.5t36 112.5v442q0 14 10 24t24 10t24 -10t10 -24v-442q0 -219 -234 -219zM263 819q25 0 62 -19.5t56 -19.5q25 0 46 28q8 11 20 11
q10 0 17 -7t7 -17q0 -6 -3 -12q-26 -52 -87 -52q-26 0 -62 19.5t-56 19.5q-25 0 -46 -28q-8 -11 -20 -11q-10 0 -17 7t-7 17q0 6 3 12q26 52 87 52z" />
    <glyph glyph-name="utilde" unicode="&#x169;" horiz-adv-x="486" 
d="M87 462q13 0 22.5 -9.5t9.5 -22.5v-261q0 -56 26 -88.5t96 -32.5t96 32.5t26 88.5v261q0 13 9.5 22.5t23.5 9.5q13 0 22 -9.5t9 -22.5v-261q0 -83 -40 -132.5t-146 -49.5t-146 49.5t-40 132.5v261q0 14 9.5 23t22.5 9zM189 617q25 0 62 -19.5t56 -19.5q25 0 46 28
q8 11 20 11q10 0 17 -7t7 -17q0 -6 -3 -12q-26 -52 -87 -52q-26 0 -62 19.5t-56 19.5q-25 0 -46 -28q-8 -11 -20 -11q-10 0 -17 7t-7 17q0 6 3 12q26 52 87 52z" />
    <glyph glyph-name="Umacron" unicode="&#x16a;" horiz-adv-x="624" 
d="M315 -14q-235 0 -235 219v442q0 14 10 24t24 10t24 -10t10 -24v-442q0 -33 7 -58.5t24.5 -48.5t51.5 -35.5t84 -12.5q94 0 130 42.5t36 112.5v442q0 14 10 24t24 10t24 -10t10 -24v-442q0 -219 -234 -219zM438 758q0 -10 -7 -17.5t-18 -7.5h-186q-11 0 -18 7.5t-7 17.5
t7 17.5t18 7.5h186q11 0 18 -7.5t7 -17.5z" />
    <glyph glyph-name="umacron" unicode="&#x16b;" horiz-adv-x="486" 
d="M87 462q13 0 22.5 -9.5t9.5 -22.5v-261q0 -56 26 -88.5t96 -32.5t96 32.5t26 88.5v261q0 13 9.5 22.5t23.5 9.5q13 0 22 -9.5t9 -22.5v-261q0 -83 -40 -132.5t-146 -49.5t-146 49.5t-40 132.5v261q0 14 9.5 23t22.5 9zM367 562q0 -10 -7.5 -17.5t-17.5 -7.5h-186
q-10 0 -17.5 7.5t-7.5 17.5t7.5 17.5t17.5 7.5h186q10 0 17.5 -7.5t7.5 -17.5z" />
    <glyph glyph-name="Ubreve" unicode="&#x16c;" horiz-adv-x="624" 
d="M315 -14q-235 0 -235 219v442q0 14 10 24t24 10t24 -10t10 -24v-442q0 -33 7 -58.5t24.5 -48.5t51.5 -35.5t84 -12.5q94 0 130 42.5t36 112.5v442q0 14 10 24t24 10t24 -10t10 -24v-442q0 -219 -234 -219zM316 730q-49 0 -81 25t-32 76q0 10 7 17t17 7t17 -7t7 -17
q0 -55 65 -55t65 55q0 10 7 17t17 7t17 -7t7 -17q0 -51 -32 -76t-81 -25z" />
    <glyph glyph-name="ubreve" unicode="&#x16d;" horiz-adv-x="486" 
d="M87 462q13 0 22.5 -9.5t9.5 -22.5v-261q0 -56 26 -88.5t96 -32.5t96 32.5t26 88.5v261q0 13 9.5 22.5t23.5 9.5q13 0 22 -9.5t9 -22.5v-261q0 -83 -40 -132.5t-146 -49.5t-146 49.5t-40 132.5v261q0 14 9.5 23t22.5 9zM241 529q-49 0 -81 25t-32 76q0 10 7 17t17 7t17 -7
t7 -17q0 -55 65 -55t65 55q0 10 7 17t17 7t17 -7t7 -17q0 -51 -32 -76t-81 -25z" />
    <glyph glyph-name="Uring" unicode="&#x16e;" horiz-adv-x="624" 
d="M315 -14q-235 0 -235 219v442q0 14 10 24t24 10t24 -10t10 -24v-442q0 -33 7 -58.5t24.5 -48.5t51.5 -35.5t84 -12.5q94 0 130 42.5t36 112.5v442q0 14 10 24t24 10t24 -10t10 -24v-442q0 -219 -234 -219zM322 703q-104 0 -104 98t104 98t104 -98t-104 -98zM322 861
q-34 0 -48 -14.5t-14 -45.5q0 -30 14.5 -45t47.5 -15t47.5 15t14.5 45q0 31 -14 45.5t-48 14.5z" />
    <glyph glyph-name="uring" unicode="&#x16f;" horiz-adv-x="486" 
d="M87 462q13 0 22.5 -9.5t9.5 -22.5v-261q0 -56 26 -88.5t96 -32.5t96 32.5t26 88.5v261q0 13 9.5 22.5t23.5 9.5q13 0 22 -9.5t9 -22.5v-261q0 -83 -40 -132.5t-146 -49.5t-146 49.5t-40 132.5v261q0 14 9.5 23t22.5 9zM245 502q-104 0 -104 98t104 98t104 -98t-104 -98z
M245 660q-34 0 -48 -14.5t-14 -45.5q0 -30 14.5 -45t47.5 -15t47.5 15t14.5 45q0 31 -14 45.5t-48 14.5z" />
    <glyph glyph-name="Uhungarumlaut" unicode="&#x170;" horiz-adv-x="624" 
d="M310 -14q-235 0 -235 219v442q0 14 10 24t24 10t24 -10t10 -24v-442q0 -33 7 -58.5t24.5 -48.5t51.5 -35.5t84 -12.5q94 0 130 42.5t36 112.5v442q0 14 10 24t24 10t24 -10t10 -24v-442q0 -219 -234 -219zM222 724q-16 13 -3 30l89 108q16 20 38 0q21 -20 3 -38l-97 -98
q-15 -15 -30 -2zM331 724q-16 13 -3 30l89 108q16 20 38 0q21 -20 3 -38l-97 -98q-15 -15 -30 -2z" />
    <glyph glyph-name="uhungarumlaut" unicode="&#x171;" horiz-adv-x="486" 
d="M87 462q13 0 22.5 -9.5t9.5 -22.5v-261q0 -56 26 -88.5t96 -32.5t96 32.5t26 88.5v261q0 13 9.5 22.5t23.5 9.5q13 0 22 -9.5t9 -22.5v-261q0 -83 -40 -132.5t-146 -49.5t-146 49.5t-40 132.5v261q0 14 9.5 23t22.5 9zM156 520q-16 13 -3 30l89 108q16 20 38 0
q21 -20 3 -38l-97 -98q-15 -15 -30 -2zM265 520q-16 13 -3 30l89 108q16 20 38 0q21 -20 3 -38l-97 -98q-15 -15 -30 -2z" />
    <glyph glyph-name="Uogonek" unicode="&#x172;" horiz-adv-x="624" 
d="M464 -125q9 0 15.5 -6.5t6.5 -15.5q0 -12 -11 -19q-29 -17 -72 -17q-48 0 -75.5 22t-27.5 63q0 52 48 86q-18 -2 -33 -2q-235 0 -235 219v442q0 14 10 24t24 10t24 -10t10 -24v-442q0 -33 7 -58.5t24.5 -48.5t51.5 -35.5t84 -12.5q94 0 130 42.5t36 112.5v442q0 14 10 24
t24 10t24 -10t10 -24v-442q0 -163 -132 -205q-27 -11 -47 -33.5t-20 -50.5q0 -26 15 -39.5t40 -13.5q26 0 47 9q8 3 12 3z" />
    <glyph glyph-name="uogonek" unicode="&#x173;" horiz-adv-x="482" 
d="M375 -125q9 0 15.5 -6.5t6.5 -15.5q0 -12 -11 -19q-29 -17 -72 -17q-48 0 -75.5 22t-27.5 63q0 51 50 86q-9 -1 -20 -1q-106 0 -146 49.5t-40 132.5v261q0 14 9.5 23t22.5 9t22.5 -9.5t9.5 -22.5v-261q0 -56 26 -88.5t96 -32.5t96 32.5t26 88.5v261q0 13 9.5 22.5
t23.5 9.5q13 0 22 -9.5t9 -22.5v-261q0 -137 -99 -169q-27 -11 -47 -33.5t-20 -50.5q0 -26 15 -39.5t40 -13.5q26 0 47 9q7 3 12 3z" />
    <glyph glyph-name="Wcircumflex" unicode="&#x174;" horiz-adv-x="818" 
d="M553 18l-144 509l-144 -509q-7 -26 -33 -26t-33 25l-177 618q-2 8 -2 12q0 14 10 24t24 10q26 0 33 -25l146 -517l143 517q6 25 33 25t33 -25l143 -517l146 517q7 25 33 25q14 0 24 -10t10 -24q0 -4 -2 -12l-177 -618q-7 -25 -33 -25t-33 26zM490 725l-81 68l-81 -68
q-6 -6 -16 -6t-17 7t-7 17q0 11 9 19l96 79q8 6 16 6t16 -6l96 -79q9 -8 9 -19q0 -10 -7 -17t-17 -7t-16 6z" />
    <glyph glyph-name="wcircumflex" unicode="&#x175;" horiz-adv-x="640" 
d="M412 15l-92 317l-92 -317q-7 -23 -31 -23q-22 0 -30 21l-147 403q-3 8 -3 14q0 14 9.5 23t22.5 9q22 0 30 -21l116 -331l95 331q6 21 30 21t30 -21l95 -331l116 331q8 21 30 21q13 0 22.5 -9t9.5 -23q0 -6 -3 -14l-147 -403q-8 -21 -30 -21q-24 0 -31 23zM401 528l-81 68
l-81 -68q-6 -6 -16 -6t-17 7t-7 17q0 12 9 19l96 79q8 6 16 6t16 -6l96 -79q9 -7 9 -19q0 -10 -7 -17t-17 -7t-16 6z" />
    <glyph glyph-name="Ycircumflex" unicode="&#x176;" 
d="M259 -8q-14 0 -24 10t-10 24v287l-201 316q-5 8 -5 18q0 14 10 24t24 10q19 0 29 -16l177 -284l177 284q10 16 29 16q14 0 24 -10t10 -24q0 -10 -5 -18l-201 -316v-287q0 -14 -10 -24t-24 -10zM340 725l-81 68l-81 -68q-6 -6 -16 -6t-17 7t-7 17q0 11 9 19l96 79
q8 6 16 6t16 -6l96 -79q9 -8 9 -19q0 -10 -7 -17t-17 -7t-16 6z" />
    <glyph glyph-name="ycircumflex" unicode="&#x177;" horiz-adv-x="438" 
d="M35 -141q26 0 46 8t32.5 18t27 35.5t22 42t23.5 56.5l-167 397q-3 9 -3 14q0 14 9 23t23 9q22 0 30 -21l141 -345l141 345q8 21 30 21q14 0 23 -9t9 -23q0 -5 -3 -14l-197 -469q-32 -76 -75 -112t-112 -36q-13 0 -21.5 8.5t-8.5 21.5t8.5 21.5t21.5 8.5zM300 528l-81 68
l-81 -68q-6 -6 -16 -6t-17 7t-7 17q0 12 9 19l96 79q8 6 16 6t16 -6l96 -79q9 -7 9 -19q0 -10 -7 -17t-17 -7t-16 6z" />
    <glyph glyph-name="Ydieresis" unicode="&#x178;" 
d="M259 -8q-14 0 -24 10t-10 24v287l-201 316q-5 8 -5 18q0 14 10 24t24 10q19 0 29 -16l177 -284l177 284q10 16 29 16q14 0 24 -10t10 -24q0 -10 -5 -18l-201 -316v-287q0 -14 -10 -24t-24 -10zM180 741q-36 0 -36 37q0 38 36 38t36 -38q0 -37 -36 -37zM337 741
q-36 0 -36 37q0 38 36 38t36 -38q0 -37 -36 -37z" />
    <glyph glyph-name="Zacute" unicode="&#x179;" horiz-adv-x="513" 
d="M469 0h-420q-13 0 -22.5 9t-9.5 23q0 10 6 19l372 558h-325q-14 0 -23 9.5t-9 22.5t9 22.5t23 9.5h384q14 0 23 -9.5t9 -22.5q0 -10 -6 -19l-369 -558h358q13 0 22.5 -9t9.5 -23t-9.5 -23t-22.5 -9zM221 724q-16 13 -3 30l89 108q16 20 38 0q21 -20 3 -38l-97 -98
q-15 -15 -30 -2z" />
    <glyph glyph-name="zacute" unicode="&#x17a;" horiz-adv-x="405" 
d="M38 424q0 13 8.5 21.5t21.5 8.5h274q13 0 21.5 -8.5t8.5 -21.5q0 -11 -7 -20l-249 -342h231q13 0 22 -9t9 -22t-9 -22t-22 -9h-293q-13 0 -21.5 8.5t-8.5 21.5q0 11 7 20l252 344h-215q-13 0 -21.5 8.5t-8.5 21.5zM151 520q-16 13 -3 30l89 108q16 20 38 0q21 -20 3 -38
l-97 -98q-15 -15 -30 -2z" />
    <glyph glyph-name="Zdotaccent" unicode="&#x17b;" horiz-adv-x="513" 
d="M469 0h-420q-13 0 -22.5 9t-9.5 23q0 10 6 19l372 558h-325q-14 0 -23 9.5t-9 22.5t9 22.5t23 9.5h384q14 0 23 -9.5t9 -22.5q0 -10 -6 -19l-369 -558h358q13 0 22.5 -9t9.5 -23t-9.5 -23t-22.5 -9zM260 736q-38 0 -38 39q0 40 38 40t38 -40q0 -39 -38 -39z" />
    <glyph glyph-name="zdotaccent" unicode="&#x17c;" horiz-adv-x="405" 
d="M38 424q0 13 8.5 21.5t21.5 8.5h274q13 0 21.5 -8.5t8.5 -21.5q0 -11 -7 -20l-249 -342h231q13 0 22 -9t9 -22t-9 -22t-22 -9h-293q-13 0 -21.5 8.5t-8.5 21.5q0 11 7 20l252 344h-215q-13 0 -21.5 8.5t-8.5 21.5zM209 544q-38 0 -38 39q0 40 38 40t38 -40q0 -39 -38 -39
z" />
    <glyph glyph-name="Zcaron" unicode="&#x17d;" horiz-adv-x="513" 
d="M469 0h-420q-13 0 -22.5 9t-9.5 23q0 10 6 19l372 558h-325q-14 0 -23 9.5t-9 22.5t9 22.5t23 9.5h384q14 0 23 -9.5t9 -22.5q0 -10 -6 -19l-369 -558h358q13 0 22.5 -9t9.5 -23t-9.5 -23t-22.5 -9zM270 773l81 68q6 6 16 6t17 -7t7 -17q0 -11 -9 -19l-96 -79
q-8 -6 -16 -6t-16 6l-96 79q-9 8 -9 19q0 10 7 17t17 7t16 -6z" />
    <glyph glyph-name="zcaron" unicode="&#x17e;" horiz-adv-x="405" 
d="M38 424q0 13 8.5 21.5t21.5 8.5h274q13 0 21.5 -8.5t8.5 -21.5q0 -11 -7 -20l-249 -342h231q13 0 22 -9t9 -22t-9 -22t-22 -9h-293q-13 0 -21.5 8.5t-8.5 21.5q0 11 7 20l252 344h-215q-13 0 -21.5 8.5t-8.5 21.5zM212 553l81 68q6 6 16 6t17 -7t7 -17q0 -11 -9 -19
l-96 -79q-8 -6 -16 -6t-16 6l-96 79q-9 8 -9 19q0 10 7 17t17 7t16 -6z" />
    <glyph glyph-name="longs" unicode="&#x17f;" horiz-adv-x="224" 
d="M85 394h-34q-13 0 -21.5 8.5t-8.5 21.5t8.5 21.5t21.5 8.5h34v59q0 74 43.5 123t129.5 49q13 0 21.5 -8.5t8.5 -21.5t-8.5 -21.5t-21.5 -8.5q-56 0 -82.5 -30t-26.5 -82v-489q0 -14 -9.5 -23t-22.5 -9t-22.5 9t-9.5 23v370z" />
    <glyph glyph-name="florin" unicode="&#x192;" horiz-adv-x="410" 
d="M424 640q0 -10 -7 -17.5t-18 -7.5q-5 0 -17 5q-31 13 -59 13q-44 0 -67.5 -28t-33.5 -84l-22 -123h97q11 0 19 -8t8 -19t-8 -19t-19 -8h-106l-62 -344q-17 -95 -69 -148t-139 -53q-38 0 -65 11q-22 8 -22 27q0 11 8 19t19 8q5 0 11 -2q31 -9 54 -9q57 0 92 37t47 101
l63 353h-65q-11 0 -19 8t-8 19t8 19t19 8h74l21 115q31 174 165 174q52 0 86 -22q15 -10 15 -25z" />
    <glyph glyph-name="AEmacron" unicode="&#x1e2;" horiz-adv-x="841" 
d="M769 0h-332q-14 0 -24 10t-10 24v165h-211l-119 -191q-9 -16 -29 -16q-14 0 -24.5 10.5t-10.5 24.5q0 9 7 20l392 610q11 16 29 16h321q13 0 22 -9t9 -22t-9 -22t-22 -9h-287v-241h220q13 0 22 -9t9 -22t-9 -22t-22 -9h-220v-246h298q13 0 22 -9t9 -22t-9 -22t-22 -9z
M228 261h175v280zM653 766q0 -10 -7.5 -17.5t-17.5 -7.5h-186q-10 0 -17.5 7.5t-7.5 17.5t7.5 17.5t17.5 7.5h186q10 0 17.5 -7.5t7.5 -17.5z" />
    <glyph glyph-name="aemacron" unicode="&#x1e3;" horiz-adv-x="778" 
d="M232 408q-39 0 -64 -11.5t-52 -39.5q-13 -14 -26 -14q-12 0 -20.5 8.5t-8.5 20.5q0 9 5 17q50 79 166 79q115 0 158 -80q52 80 163 80q56 0 96.5 -20t59.5 -52t27 -61.5t8 -59.5q0 -15 -1 -23t-4 -19t-12 -16.5t-23 -5.5h-292q0 -75 40.5 -120t110.5 -45q63 0 120 43
q9 6 18 6q12 0 20.5 -8.5t8.5 -20.5t-11 -23q-56 -56 -156 -56q-141 0 -179 99q-50 -99 -177 -99q-80 0 -126.5 37.5t-46.5 105.5q0 65 46.5 101t128.5 36h141v31q0 51 -31.5 80.5t-86.5 29.5zM213 45q56 0 96.5 34t40.5 94v38h-141q-110 0 -110 -81q0 -85 114 -85zM681 267
q0 143 -128 143q-64 0 -100 -37.5t-41 -105.5h269zM508 580q0 -10 -7 -17.5t-18 -7.5h-186q-11 0 -18 7.5t-7 17.5t7 17.5t18 7.5h186q11 0 18 -7.5t7 -17.5z" />
    <glyph glyph-name="Aringacute" unicode="&#x1fa;" horiz-adv-x="616" 
d="M447 199h-279l-73 -183q-9 -24 -33 -24q-14 0 -24 10t-10 24q0 9 3 15l239 606q-67 16 -67 94q0 98 104 98t104 -98q0 -78 -67 -94l240 -606q3 -7 3 -15q0 -14 -10 -24t-25 -10q-24 0 -33 23zM426 261l-119 306l-118 -306h237zM307 801q-34 0 -48 -14.5t-14 -45.5
q0 -30 14.5 -45t47.5 -15t47.5 15t14.5 45q0 31 -14 45.5t-48 14.5zM244 868q-16 13 -3 30l89 108q16 20 38 0q21 -20 3 -38l-97 -98q-15 -15 -30 -2z" />
    <glyph glyph-name="aringacute" unicode="&#x1fb;" horiz-adv-x="467" 
d="M232 408q-71 0 -116 -51q-13 -14 -26 -14q-12 0 -20.5 8.5t-8.5 20.5q0 9 5 17q50 79 166 79q86 0 133 -46t47 -124v-275q0 -13 -9 -22t-22 -9t-22 9t-9 22v36q-18 -34 -57 -53t-86 -19q-80 0 -126.5 37.5t-46.5 105.5q0 66 47 103.5t128 37.5h141v27q0 51 -31.5 80.5
t-86.5 29.5zM213 45q56 0 96.5 34t40.5 94v42h-141q-51 0 -80.5 -21.5t-29.5 -63.5q0 -85 114 -85zM231 489q-104 0 -104 98t104 98t104 -98t-104 -98zM231 647q-34 0 -48 -14.5t-14 -45.5q0 -30 14.5 -45t47.5 -15t47.5 15t14.5 45q0 31 -14 45.5t-48 14.5zM165 709
q-16 13 -3 30l89 108q16 20 38 0q21 -20 3 -38l-97 -98q-15 -15 -30 -2z" />
    <glyph glyph-name="AEacute" unicode="&#x1fc;" horiz-adv-x="841" 
d="M769 0h-332q-14 0 -24 10t-10 24v165h-211l-119 -191q-9 -16 -29 -16q-14 0 -24.5 10.5t-10.5 24.5q0 9 7 20l392 610q11 16 29 16h321q13 0 22 -9t9 -22t-9 -22t-22 -9h-287v-241h220q13 0 22 -9t9 -22t-9 -22t-22 -9h-220v-246h298q13 0 22 -9t9 -22t-9 -22t-22 -9z
M228 261h175v280zM519 724q-16 13 -3 30l89 108q16 20 38 0q21 -20 3 -38l-97 -98q-15 -15 -30 -2z" />
    <glyph glyph-name="aeacute" unicode="&#x1fd;" horiz-adv-x="778" 
d="M232 408q-39 0 -64 -11.5t-52 -39.5q-13 -14 -26 -14q-12 0 -20.5 8.5t-8.5 20.5q0 9 5 17q50 79 166 79q115 0 158 -80q52 80 163 80q56 0 96.5 -20t59.5 -52t27 -61.5t8 -59.5q0 -15 -1 -23t-4 -19t-12 -16.5t-23 -5.5h-292q0 -75 40.5 -120t110.5 -45q63 0 120 43
q9 6 18 6q12 0 20.5 -8.5t8.5 -20.5t-11 -23q-56 -56 -156 -56q-141 0 -179 99q-50 -99 -177 -99q-80 0 -126.5 37.5t-46.5 105.5q0 65 46.5 101t128.5 36h141v31q0 51 -31.5 80.5t-86.5 29.5zM213 45q56 0 96.5 34t40.5 94v38h-141q-110 0 -110 -81q0 -85 114 -85zM681 267
q0 143 -128 143q-64 0 -100 -37.5t-41 -105.5h269zM340 538q-16 13 -3 30l89 108q16 20 38 0q21 -20 3 -38l-97 -98q-15 -15 -30 -2z" />
    <glyph glyph-name="Oslashacute" unicode="&#x1fe;" horiz-adv-x="709" 
d="M354 -14q-122 0 -196 58l-47 -60q-8 -10 -20 -10q-11 0 -19 8t-8 19q0 9 5 15l51 64q-76 90 -76 256q0 175 81 263t229 88q120 0 197 -59l46 58q8 10 20 10q11 0 19 -8t8 -19q0 -9 -5 -15l-49 -62q75 -91 75 -256q0 -173 -81 -261.5t-230 -88.5zM354 625
q-117 0 -178.5 -72t-61.5 -217q0 -128 49 -200l347 439q-61 50 -156 50zM595 336q0 127 -49 199l-347 -439q59 -48 155 -48q117 0 179 72t62 216zM299 724q-16 13 -3 30l89 108q16 20 38 0q21 -20 3 -38l-97 -98q-15 -15 -30 -2z" />
    <glyph glyph-name="oslashacute" unicode="&#x1ff;" horiz-adv-x="490" 
d="M245 468q89 0 142 -48l37 40q8 8 19 8t18.5 -8t7.5 -18q0 -11 -8 -19l-41 -43q35 -58 35 -152q0 -120 -55 -180.5t-155 -60.5q-92 0 -145 50l-36 -38q-7 -7 -18 -7q-10 0 -18 8t-8 18q0 11 8 19l39 42q-32 58 -32 149q0 120 55 180t155 60zM245 45q145 0 145 183
q0 61 -17 101l-230 -246q35 -38 102 -38zM100 228q0 -59 15 -98l229 244q-38 36 -99 36q-145 0 -145 -182zM200 520q-16 13 -3 30l89 108q16 20 38 0q21 -20 3 -38l-97 -98q-15 -15 -30 -2z" />
    <glyph glyph-name="Scommaaccent" unicode="&#x218;" horiz-adv-x="558" 
d="M443 546q-64 79 -162 79q-74 0 -109.5 -31t-35.5 -78q0 -45 39 -74.5t94.5 -47t111 -39t94.5 -65t39 -110.5q0 -94 -62 -144t-178 -50q-81 0 -143.5 35.5t-89.5 87.5q-5 10 -5 18q0 13 9 22.5t23 9.5q18 0 28 -16q58 -95 178 -95q83 0 127.5 33.5t44.5 98.5q0 43 -28 73
t-70 44.5l-91 32t-91 35.5t-70 57t-28 94q0 74 54.5 122.5t158.5 48.5q70 0 126 -27.5t88 -75.5q6 -9 6 -19q0 -13 -9.5 -22.5t-22.5 -9.5q-16 0 -26 13zM331 -100q0 -48 -13.5 -81.5t-45.5 -65.5q-5 -5 -11 -5q-13 0 -13 13q0 5 4 9q29 29 29 65q0 17 -18 39t-18 41
q0 43 42 43q44 0 44 -58z" />
    <glyph glyph-name="scommaaccent" unicode="&#x219;" horiz-adv-x="424" 
d="M207 406q-89 0 -89 -60q0 -29 27 -48t66 -31.5t77.5 -27.5t65.5 -45t27 -74q0 -65 -47.5 -98.5t-122.5 -33.5q-57 0 -103 22t-68 50q-7 10 -7 19q0 12 8.5 20.5t20.5 8.5t22 -10q49 -49 127 -49q47 0 76.5 17t29.5 54q0 28 -27 46.5t-65.5 31t-77.5 27.5t-66 45.5
t-27 75.5q0 60 42.5 90.5t110.5 30.5q104 0 152 -64q7 -9 7 -19q0 -12 -8.5 -20.5t-20.5 -8.5t-21 9q-44 42 -109 42zM253 -100q0 -48 -13.5 -81.5t-45.5 -65.5q-5 -5 -11 -5q-13 0 -13 13q0 5 4 9q29 29 29 65q0 17 -18 39t-18 41q0 43 42 43q44 0 44 -58z" />
    <glyph glyph-name="dotlessj" unicode="&#x237;" horiz-adv-x="194" 
d="M65 -35v465q0 14 9.5 23t22.5 9t22.5 -9t9.5 -23v-465q0 -64 -41.5 -107t-104.5 -43q-13 0 -21.5 8.5t-8.5 21.5t8.5 21.5t21.5 8.5q36 0 59 26t23 64z" />
    <glyph glyph-name="circumflex" unicode="&#x2c6;" horiz-adv-x="334" 
d="M248 528l-81 68l-81 -68q-6 -6 -16 -6t-17 7t-7 17q0 12 9 19l96 79q8 6 16 6t16 -6l96 -79q9 -7 9 -19q0 -10 -7 -17t-17 -7t-16 6z" />
    <glyph glyph-name="caron" unicode="&#x2c7;" horiz-adv-x="330" 
d="M167 553l81 68q6 6 16 6t17 -7t7 -17q0 -11 -9 -19l-96 -79q-8 -6 -16 -6t-16 6l-96 79q-9 8 -9 19q0 10 7 17t17 7t16 -6z" />
    <glyph glyph-name="breve" unicode="&#x2d8;" horiz-adv-x="315" 
d="M157 529q-49 0 -81 25t-32 76q0 10 7 17t17 7t17 -7t7 -17q0 -55 65 -55t65 55q0 10 7 17t17 7t17 -7t7 -17q0 -51 -32 -76t-81 -25z" />
    <glyph glyph-name="dotaccent" unicode="&#x2d9;" horiz-adv-x="277" 
d="M138 544q-38 0 -38 39q0 40 38 40t38 -40q0 -39 -38 -39z" />
    <glyph glyph-name="ring" unicode="&#x2da;" horiz-adv-x="267" 
d="M133 502q-104 0 -104 98t104 98t104 -98t-104 -98zM133 660q-34 0 -48 -14.5t-14 -45.5q0 -30 14.5 -45t47.5 -15t47.5 15t14.5 45q0 31 -14 45.5t-48 14.5z" />
    <glyph glyph-name="ogonek" unicode="&#x2db;" horiz-adv-x="308" 
d="M233 -125q9 0 15.5 -6.5t6.5 -15.5q0 -12 -11 -19q-29 -17 -72 -17q-48 0 -75.5 22t-27.5 63q0 62 69 98h49q-27 -11 -47.5 -33.5t-20.5 -50.5q0 -26 15 -39.5t40 -13.5q26 0 47 9q7 3 12 3z" />
    <glyph glyph-name="tilde" unicode="&#x2dc;" horiz-adv-x="378" 
d="M130 617q26 0 62 -19.5t56 -19.5q25 0 46 28q8 11 20 11q10 0 17 -7t7 -17q0 -6 -3 -12q-26 -52 -87 -52q-26 0 -62 19.5t-56 19.5q-25 0 -46 -28q-8 -11 -20 -11q-10 0 -17 7t-7 17q0 6 3 12q26 52 87 52z" />
    <glyph glyph-name="hungarumlaut" unicode="&#x2dd;" horiz-adv-x="489" 
d="M126 520q-16 13 -3 30l89 108q16 20 38 0q21 -20 3 -38l-97 -98q-15 -15 -30 -2zM235 520q-16 13 -3 30l89 108q16 20 38 0q21 -20 3 -38l-97 -98q-15 -15 -30 -2z" />
    <glyph glyph-name="Wgrave" unicode="&#x1e80;" horiz-adv-x="818" 
d="M553 18l-144 509l-144 -509q-7 -26 -33 -26t-33 25l-177 618q-2 8 -2 12q0 14 10 24t24 10q26 0 33 -25l146 -517l143 517q6 25 33 25t33 -25l143 -517l146 517q7 25 33 25q14 0 24 -10t10 -24q0 -4 -2 -12l-177 -618q-7 -25 -33 -25t-33 26zM476 724q-15 -13 -30 2
l-97 98q-18 18 3 38q22 20 38 0l89 -108q13 -17 -3 -30z" />
    <glyph glyph-name="wgrave" unicode="&#x1e81;" horiz-adv-x="640" 
d="M412 15l-92 317l-92 -317q-7 -23 -31 -23q-22 0 -30 21l-147 403q-3 8 -3 14q0 14 9.5 23t22.5 9q22 0 30 -21l116 -331l95 331q6 21 30 21t30 -21l95 -331l116 331q8 21 30 21q13 0 22.5 -9t9.5 -23q0 -6 -3 -14l-147 -403q-8 -21 -30 -21q-24 0 -31 23zM392 520
q-15 -13 -30 2l-97 98q-18 18 3 38q22 20 38 0l89 -108q13 -17 -3 -30z" />
    <glyph glyph-name="Wacute" unicode="&#x1e82;" horiz-adv-x="818" 
d="M553 18l-144 509l-144 -509q-7 -26 -33 -26t-33 25l-177 618q-2 8 -2 12q0 14 10 24t24 10q26 0 33 -25l146 -517l143 517q6 25 33 25t33 -25l143 -517l146 517q7 25 33 25q14 0 24 -10t10 -24q0 -4 -2 -12l-177 -618q-7 -25 -33 -25t-33 26zM350 724q-16 13 -3 30
l89 108q16 20 38 0q21 -20 3 -38l-97 -98q-15 -15 -30 -2z" />
    <glyph glyph-name="wacute" unicode="&#x1e83;" horiz-adv-x="640" 
d="M412 15l-92 317l-92 -317q-7 -23 -31 -23q-22 0 -30 21l-147 403q-3 8 -3 14q0 14 9.5 23t22.5 9q22 0 30 -21l116 -331l95 331q6 21 30 21t30 -21l95 -331l116 331q8 21 30 21q13 0 22.5 -9t9.5 -23q0 -6 -3 -14l-147 -403q-8 -21 -30 -21q-24 0 -31 23zM269 520
q-16 13 -3 30l89 108q16 20 38 0q21 -20 3 -38l-97 -98q-15 -15 -30 -2z" />
    <glyph glyph-name="Wdieresis" unicode="&#x1e84;" horiz-adv-x="818" 
d="M553 18l-144 509l-144 -509q-7 -26 -33 -26t-33 25l-177 618q-2 8 -2 12q0 14 10 24t24 10q26 0 33 -25l146 -517l143 517q6 25 33 25t33 -25l143 -517l146 517q7 25 33 25q14 0 24 -10t10 -24q0 -4 -2 -12l-177 -618q-7 -25 -33 -25t-33 26zM331 741q-36 0 -36 37
q0 38 36 38t36 -38q0 -37 -36 -37zM488 741q-36 0 -36 37q0 38 36 38t36 -38q0 -37 -36 -37z" />
    <glyph glyph-name="wdieresis" unicode="&#x1e85;" horiz-adv-x="640" 
d="M412 15l-92 317l-92 -317q-7 -23 -31 -23q-22 0 -30 21l-147 403q-3 8 -3 14q0 14 9.5 23t22.5 9q22 0 30 -21l116 -331l95 331q6 21 30 21t30 -21l95 -331l116 331q8 21 30 21q13 0 22.5 -9t9.5 -23q0 -6 -3 -14l-147 -403q-8 -21 -30 -21q-24 0 -31 23zM242 534
q-36 0 -36 37q0 38 36 38t36 -38q0 -37 -36 -37zM399 534q-36 0 -36 37q0 38 36 38t36 -38q0 -37 -36 -37z" />
    <glyph glyph-name="Ygrave" unicode="&#x1ef2;" 
d="M259 -8q-14 0 -24 10t-10 24v287l-201 316q-5 8 -5 18q0 14 10 24t24 10q19 0 29 -16l177 -284l177 284q10 16 29 16q14 0 24 -10t10 -24q0 -10 -5 -18l-201 -316v-287q0 -14 -10 -24t-24 -10zM306 724q-15 -13 -30 2l-97 98q-18 18 3 38q22 20 38 0l89 -108
q13 -17 -3 -30z" />
    <glyph glyph-name="ygrave" unicode="&#x1ef3;" horiz-adv-x="438" 
d="M35 -141q26 0 46 8t32.5 18t27 35.5t22 42t23.5 56.5l-167 397q-3 9 -3 14q0 14 9 23t23 9q22 0 30 -21l141 -345l141 345q8 21 30 21q14 0 23 -9t9 -23q0 -5 -3 -14l-197 -469q-32 -76 -75 -112t-112 -36q-13 0 -21.5 8.5t-8.5 21.5t8.5 21.5t21.5 8.5zM259 520
q-15 -13 -30 2l-97 98q-18 18 3 38q22 20 38 0l89 -108q13 -17 -3 -30z" />
    <glyph glyph-name="thinspace" unicode="&#x2009;" horiz-adv-x="14" 
 />
    <glyph glyph-name="endash" unicode="&#x2013;" horiz-adv-x="584" 
d="M481 282q0 -11 -8 -19t-19 -8h-324q-11 0 -19 8t-8 19t8 19t19 8h324q11 0 19 -8t8 -19z" />
    <glyph glyph-name="emdash" unicode="&#x2014;" horiz-adv-x="918" 
d="M815 282q0 -11 -8 -19t-19 -8h-658q-11 0 -19 8t-8 19t8 19t19 8h658q11 0 19 -8t8 -19z" />
    <glyph glyph-name="quoteleft" unicode="&#x2018;" horiz-adv-x="154" 
d="M29 496q0 104 72 179q6 6 13 6q15 0 15 -15q0 -4 -3 -9q-37 -51 -37 -91q0 -19 18 -42t18 -44q0 -48 -47 -48q-49 0 -49 64z" />
    <glyph glyph-name="quoteright" unicode="&#x2019;" horiz-adv-x="154" 
d="M125 617q0 -104 -72 -179q-6 -6 -13 -6q-15 0 -15 15q0 5 3 9q37 51 37 91q0 19 -18 42t-18 44q0 48 47 48q49 0 49 -64z" />
    <glyph glyph-name="quotesinglbase" unicode="&#x201a;" horiz-adv-x="179" 
d="M129 23q0 -104 -72 -179q-6 -6 -13 -6q-15 0 -15 15q0 5 3 9q37 51 37 91q0 19 -18 42t-18 44q0 48 47 48q49 0 49 -64z" />
    <glyph glyph-name="quotedblleft" unicode="&#x201c;" horiz-adv-x="292" 
d="M29 496q0 104 72 179q6 6 13 6q15 0 15 -15q0 -4 -3 -9q-37 -51 -37 -91q0 -19 18 -42t18 -44q0 -48 -47 -48q-49 0 -49 64zM167 496q0 104 72 179q6 6 13 6q15 0 15 -15q0 -4 -3 -9q-37 -51 -37 -91q0 -19 18 -42t18 -44q0 -48 -47 -48q-49 0 -49 64z" />
    <glyph glyph-name="quotedblright" unicode="&#x201d;" horiz-adv-x="292" 
d="M263 617q0 -104 -72 -179q-6 -6 -13 -6q-15 0 -15 15q0 5 3 9q37 51 37 91q0 19 -18 42t-18 44q0 48 47 48q49 0 49 -64zM125 617q0 -104 -72 -179q-6 -6 -13 -6q-15 0 -15 15q0 5 3 9q37 51 37 91q0 19 -18 42t-18 44q0 48 47 48q49 0 49 -64z" />
    <glyph glyph-name="quotedblbase" unicode="&#x201e;" horiz-adv-x="313" 
d="M263 23q0 -104 -72 -179q-6 -6 -13 -6q-15 0 -15 15q0 5 3 9q37 51 37 91q0 19 -18 42t-18 44q0 48 47 48q49 0 49 -64zM125 23q0 -104 -72 -179q-6 -6 -13 -6q-15 0 -15 15q0 5 3 9q37 51 37 91q0 19 -18 42t-18 44q0 48 47 48q49 0 49 -64z" />
    <glyph glyph-name="dagger" unicode="&#x2020;" horiz-adv-x="438" 
d="M219 -150q-20 0 -20 17l-5 600h-113q-20 0 -20 24q0 25 20 25h113l-2 171q0 25 27 25t27 -25l-2 -171h113q20 0 20 -25q0 -24 -20 -24h-113l-5 -600q0 -17 -20 -17z" />
    <glyph glyph-name="daggerdbl" unicode="&#x2021;" horiz-adv-x="438" 
d="M194 467h-113q-20 0 -20 24q0 25 20 25h113l-2 171q0 25 27 25t27 -25l-2 -171h113q20 0 20 -25q0 -24 -20 -24h-113l-3 -211l3 -211h113q20 0 20 -24q0 -25 -20 -25h-113l2 -171q0 -25 -27 -25t-27 25l2 171h-113q-20 0 -20 25q0 24 20 24h113l3 211z" />
    <glyph glyph-name="bullet" unicode="&#x2022;" horiz-adv-x="418" 
d="M209 149q-130 0 -130 130q0 136 130 136t130 -136q0 -130 -130 -130z" />
    <glyph glyph-name="perthousand" unicode="&#x2030;" horiz-adv-x="1077" 
d="M535 681q11 0 18 -7.5t7 -17.5q0 -6 -2 -10l-326 -641q-6 -13 -22 -13q-10 0 -17.5 7t-7.5 18q0 6 2 10l326 641q7 13 22 13zM188 407q97 0 97 117t-97 117q-96 0 -96 -117t96 -117zM188 687q77 0 112 -44.5t35 -118.5t-35 -118.5t-112 -44.5q-76 0 -111 44.5t-35 118.5
t35 118.5t111 44.5zM558 33q97 0 97 117t-97 117q-96 0 -96 -117t96 -117zM558 313q77 0 112 -44.5t35 -118.5t-35 -118.5t-112 -44.5q-76 0 -111 44.5t-35 118.5t35 118.5t111 44.5zM889 33q97 0 97 117t-97 117q-96 0 -96 -117t96 -117zM889 313q77 0 112 -44.5t35 -118.5
t-35 -118.5t-112 -44.5q-76 0 -111 44.5t-35 118.5t35 118.5t111 44.5z" />
    <glyph glyph-name="guilsinglleft" unicode="&#x2039;" horiz-adv-x="367" 
d="M77 212q0 9 7 18l163 192q7 9 18 9q10 0 17 -7t7 -17q0 -9 -7 -17l-153 -178l153 -178q7 -8 7 -17q0 -10 -7 -17t-17 -7q-11 0 -18 9l-163 192q-7 9 -7 18z" />
    <glyph glyph-name="guilsinglright" unicode="&#x203a;" horiz-adv-x="367" 
d="M290 212q0 -9 -7 -18l-163 -192q-8 -9 -18 -9t-17 7t-7 17q0 9 7 17l153 178l-153 178q-7 8 -7 17q0 10 7 17t17 7t18 -9l163 -192q7 -9 7 -18z" />
    <glyph glyph-name="fraction" unicode="&#x2044;" horiz-adv-x="313" 
d="M9 29l246 636q5 16 24 16q11 0 19 -8t8 -19q0 -8 -2 -10l-245 -634q-4 -18 -25 -18q-11 0 -19 8t-8 19q0 6 2 10z" />
    <glyph glyph-name="zerosuperior" unicode="&#x2070;" horiz-adv-x="298" 
d="M149 466q71 0 71 108q0 109 -71 109t-71 -109q0 -108 71 -108zM149 419q-124 0 -124 155q0 156 124 156t124 -156q0 -155 -124 -155z" />
    <glyph glyph-name="foursuperior" unicode="&#x2074;" horiz-adv-x="260" 
d="M204 537h16q10 0 17 -7t7 -17t-7 -17t-17 -7h-16v-41q0 -10 -8 -18t-18 -8t-18 8t-8 18v41h-111q-10 0 -17 7t-7 17q0 9 6 16l134 187q9 11 21 11q10 0 18 -7.5t8 -18.5v-164zM85 537h67v96z" />
    <glyph glyph-name="fivesuperior" unicode="&#x2075;" horiz-adv-x="261" 
d="M125 621q49 0 80.5 -24.5t31.5 -76.5q0 -49 -30.5 -75.5t-81.5 -26.5q-73 0 -107 57q-5 8 -5 15q0 10 6.5 16.5t16.5 6.5q13 0 22 -14q21 -33 67 -33q28 0 43.5 15t15.5 39q0 25 -15.5 40t-43.5 15t-58 -14q-14 -6 -19 -6q-10 0 -16.5 6.5t-6.5 16.5q0 5 2 14l19 108
q4 22 25 22h133q10 0 17.5 -7t7.5 -18t-7.5 -18t-17.5 -7h-114l-10 -59q18 8 45 8z" />
    <glyph glyph-name="sixsuperior" unicode="&#x2076;" horiz-adv-x="275" 
d="M146 619q46 0 75 -25t29 -71q0 -52 -30.5 -78t-79.5 -26q-115 0 -115 149q0 82 33 122t89 40q49 0 74 -21q9 -7 9 -19q0 -10 -6.5 -16.5t-16.5 -6.5q-6 0 -16 5q-22 11 -44 11q-29 0 -50.5 -24t-21.5 -71q24 31 71 31zM140 466q29 0 44.5 15t15.5 42q0 23 -17 37t-43 14
q-19 0 -36 -11t-24 -31q0 -27 14 -46.5t46 -19.5z" />
    <glyph glyph-name="sevensuperior" unicode="&#x2077;" horiz-adv-x="234" 
d="M50 447q0 44 18 82.5t40 60.5t40 44.5t18 37.5h-131q-11 0 -18 7t-7 18t7 18t18 7h161q10 0 17.5 -7t7.5 -18q0 -31 -12.5 -56t-29.5 -44l-34.5 -38.5t-30 -48t-12.5 -63.5q0 -11 -7.5 -19t-17.5 -8q-11 0 -19 8t-8 19z" />
    <glyph glyph-name="eightsuperior" unicode="&#x2078;" horiz-adv-x="271" 
d="M135 419q-113 0 -113 95q0 52 48 73q-37 16 -37 59q0 41 27.5 62.5t74.5 21.5t74.5 -21.5t27.5 -62.5q0 -43 -37 -59q48 -21 48 -73q0 -95 -113 -95zM135 683q-51 0 -51 -37q0 -38 51 -38t51 38q0 37 -51 37zM135 563q-60 0 -60 -49q0 -48 60 -48t60 48q0 49 -60 49z" />
    <glyph glyph-name="ninesuperior" unicode="&#x2079;" horiz-adv-x="275" 
d="M129 530q-46 0 -75 25t-29 71q0 52 30.5 78t79.5 26q115 0 115 -149q0 -82 -33 -122t-89 -40q-49 0 -74 21q-9 7 -9 19q0 10 6.5 16.5t16.5 6.5q6 0 16 -5q22 -11 44 -11q29 0 50.5 24t21.5 71q-24 -31 -71 -31zM135 683q-29 0 -44.5 -15t-15.5 -42q0 -23 17 -37t43 -14
q19 0 36 11t24 31q0 27 -14 46.5t-46 19.5z" />
    <glyph glyph-name="zeroinferior" unicode="&#x2080;" horiz-adv-x="298" 
d="M149 -10q71 0 71 108q0 109 -71 109t-71 -109q0 -108 71 -108zM149 -57q-124 0 -124 155q0 156 124 156t124 -156q0 -155 -124 -155z" />
    <glyph glyph-name="oneinferior" unicode="&#x2081;" horiz-adv-x="196" 
d="M99 182l-30 -21q-9 -7 -18 -7q-10 0 -17.5 7.5t-7.5 17.5q0 13 12 21l72 48q7 5 15 5q11 0 18.5 -7.5t7.5 -18.5v-253q0 -10 -7.5 -18t-18.5 -8t-18.5 8t-7.5 18v208z" />
    <glyph glyph-name="twoinferior" unicode="&#x2082;" horiz-adv-x="266" 
d="M35 201q22 53 97 53q50 0 79 -23.5t29 -65.5q0 -32 -25 -59t-55.5 -41.5t-55.5 -32.5t-25 -35h135q10 0 17 -7t7 -17t-7 -17t-17 -7h-167q-10 0 -17 7t-7 17q0 39 26 68.5t56.5 43.5t56.5 34.5t26 45.5q0 18 -14.5 30t-41.5 12q-37 0 -57 -29q-8 -10 -19 -10
q-10 0 -16.5 6.5t-6.5 16.5q0 5 2 10z" />
    <glyph glyph-name="threeinferior" unicode="&#x2083;" horiz-adv-x="257" 
d="M212 205l-68 -70q46 0 68 -27t22 -65q0 -46 -29 -73t-87 -27q-70 0 -101 58q-4 8 -4 14q0 10 6.5 16.5t16.5 6.5q13 0 21 -13q20 -34 61 -34q63 0 63 52q0 48 -60 48h-22q-10 0 -17 7t-7 17q0 9 6 16l62 67h-93q-10 0 -17.5 7t-7.5 18t7.5 18t17.5 7h144q10 0 17.5 -7
t7.5 -18q0 -12 -7 -18z" />
    <glyph glyph-name="fourinferior" unicode="&#x2084;" horiz-adv-x="260" 
d="M204 63h16q10 0 17 -7t7 -17t-7 -17t-17 -7h-16v-41q0 -10 -8 -18t-18 -8t-18 8t-8 18v41h-111q-10 0 -17 7t-7 17q0 9 6 16l134 187q9 11 21 11q10 0 18 -7.5t8 -18.5v-164zM85 63h67v96z" />
    <glyph glyph-name="fiveinferior" unicode="&#x2085;" horiz-adv-x="262" 
d="M125 145q49 0 80.5 -24.5t31.5 -76.5q0 -49 -30.5 -75.5t-81.5 -26.5q-73 0 -107 57q-5 8 -5 15q0 10 6.5 16.5t16.5 6.5q13 0 22 -14q21 -33 67 -33q28 0 43.5 15t15.5 39q0 25 -15.5 40t-43.5 15t-58 -14q-14 -6 -19 -6q-10 0 -16.5 6.5t-6.5 16.5q0 5 2 14l19 108
q4 22 25 22h133q10 0 17.5 -7t7.5 -18t-7.5 -18t-17.5 -7h-114l-10 -59q18 8 45 8z" />
    <glyph glyph-name="sixinferior" unicode="&#x2086;" horiz-adv-x="275" 
d="M146 143q46 0 75 -25t29 -71q0 -52 -30.5 -78t-79.5 -26q-115 0 -115 149q0 82 33 122t89 40q49 0 74 -21q9 -7 9 -19q0 -10 -6.5 -16.5t-16.5 -6.5q-6 0 -16 5q-22 11 -44 11q-29 0 -50.5 -24t-21.5 -71q24 31 71 31zM140 -10q29 0 44.5 15t15.5 42q0 23 -17 37t-43 14
q-19 0 -36 -11t-24 -31q0 -27 14 -46.5t46 -19.5z" />
    <glyph glyph-name="seveninferior" unicode="&#x2087;" horiz-adv-x="234" 
d="M50 -27q0 44 18 82.5t40 60.5t40 44.5t18 37.5h-131q-11 0 -18 7t-7 18t7 18t18 7h161q10 0 17.5 -7t7.5 -18q0 -31 -12.5 -56t-29.5 -44l-34.5 -38.5t-30 -48t-12.5 -63.5q0 -11 -7.5 -19t-17.5 -8q-11 0 -19 8t-8 19z" />
    <glyph glyph-name="eightinferior" unicode="&#x2088;" horiz-adv-x="271" 
d="M135 -57q-113 0 -113 95q0 52 48 73q-37 16 -37 59q0 41 27.5 62.5t74.5 21.5t74.5 -21.5t27.5 -62.5q0 -43 -37 -59q48 -21 48 -73q0 -95 -113 -95zM135 207q-51 0 -51 -37q0 -38 51 -38t51 38q0 37 -51 37zM135 87q-60 0 -60 -49q0 -48 60 -48t60 48q0 49 -60 49z" />
    <glyph glyph-name="nineinferior" unicode="&#x2089;" horiz-adv-x="275" 
d="M129 54q-46 0 -75 25t-29 71q0 52 30.5 78t79.5 26q115 0 115 -149q0 -82 -33 -122t-89 -40q-49 0 -74 21q-9 8 -9 19q0 10 6.5 16.5t16.5 6.5q6 0 16 -5q22 -11 44 -11q29 0 50.5 24t21.5 71q-24 -31 -71 -31zM135 207q-29 0 -44.5 -15t-15.5 -42q0 -23 17 -37t43 -14
q19 0 36 11t24 31q0 27 -14 46.5t-46 19.5z" />
    <glyph glyph-name="Euro" unicode="&#x20ac;" horiz-adv-x="631" 
d="M283 239h-161q34 -191 234 -191q52 0 99 21t75 61q9 13 26 13q14 0 23 -9.5t9 -22.5q0 -10 -6 -19q-33 -48 -95 -77t-131 -29q-264 0 -305 253h-34q-11 0 -19 8t-8 19t8 19t19 8h28q-1 14 -1 43q0 25 1 37h-28q-11 0 -19 8t-8 19t8 19t19 8h34q20 129 99 194.5t206 65.5
q71 0 130 -28.5t95 -77.5q7 -10 7 -21q0 -14 -9 -23t-23 -9q-16 0 -26 13q-27 37 -73.5 60.5t-100.5 23.5q-198 0 -235 -198h162q11 0 19 -8t8 -19t-8 -19t-19 -8h-168q-1 -12 -1 -37q0 -30 1 -43h168q11 0 19 -8t8 -19t-8 -19t-19 -8z" />
    <glyph glyph-name="numero" unicode="&#x2116;" horiz-adv-x="1066" 
d="M623 681q13 0 23 -9.5t10 -23.5v-623q0 -13 -10 -23t-23 -10q-15 0 -26 13l-454 551v-531q0 -13 -9.5 -23t-23.5 -10t-23.5 10t-9.5 23v623q0 14 9.5 23.5t23.5 9.5q16 0 25 -12l455 -552v531q0 14 10 23.5t23 9.5zM877 311q90 0 90 118t-90 118t-90 -118t90 -118z
M877 110q-38 0 -38 37q0 40 38 40t38 -40q0 -37 -38 -37zM877 257q-72 0 -111 43.5t-39 128.5t39 128.5t111 43.5t111 -43.5t39 -128.5t-39 -128.5t-111 -43.5z" />
    <glyph glyph-name="trademark" unicode="&#x2122;" horiz-adv-x="404" 
d="M43 652h123q7 0 12 -5t5 -12t-5 -12t-12 -5h-42v-132q0 -8 -6 -13.5t-13 -5.5q-8 0 -13.5 5.5t-5.5 13.5v132h-43q-7 0 -12 5t-5 12t5 12t12 5zM294 507q-10 0 -15 8l-32 55v-85q0 -7 -5.5 -12.5t-12.5 -5.5t-12.5 5.5t-5.5 12.5v152q0 7 5.5 12.5t12.5 5.5q11 0 17 -11
l48 -86l48 86q6 11 17 11q7 0 12.5 -5.5t5.5 -12.5v-152q0 -7 -5.5 -12.5t-12.5 -5.5t-12.5 5.5t-5.5 12.5v85l-32 -55q-5 -8 -15 -8z" />
    <glyph glyph-name="minus" unicode="&#x2212;" horiz-adv-x="454" 
d="M454 218q0 -11 -8 -19t-19 -8h-400q-11 0 -19 8t-8 19t8 19t19 8h400q11 0 19 -8t8 -19z" />
    <glyph glyph-name="radical" unicode="&#x221a;" horiz-adv-x="539" 
d="M492 675l-221 -828q-5 -18 -27 -18q-18 0 -26 17l-171 388q-2 4 -2 10q0 12 8.5 20.5t19.5 8.5q19 0 26 -16l140 -331l198 765q5 21 27 21q12 0 20.5 -8.5t8.5 -20.5q0 -4 -1 -8z" />
    <glyph glyph-name="notequal" unicode="&#x2260;" horiz-adv-x="454" 
d="M454 141q0 -11 -8 -19t-19 -8h-252l-29 -43q-5 -8 -14 -8q-16 0 -16 16q0 4 2 8l18 27h-109q-11 0 -19 8t-8 19t8 19t19 8h146l68 99h-214q-11 0 -19 8t-8 19t8 19t19 8h251l31 44q5 8 14 8q16 0 16 -16q0 -4 -2 -8l-20 -28h110q11 0 19 -8t8 -19t-8 -19t-19 -8h-147
l-68 -99h215q11 0 19 -8t8 -19z" />
    <glyph glyph-name="lessequal" unicode="&#x2264;" horiz-adv-x="337" 
d="M337 27q0 -11 -8 -19t-19 -8h-283q-11 0 -19 8t-8 19t8 19t19 8h283q11 0 19 -8t8 -19zM66 287l258 -148q13 -8 13 -23q0 -11 -8 -19t-19 -8q-8 0 -16 5l-281 170q-13 9 -13 23t13 23l281 170q8 5 16 5q11 0 19 -8t8 -19q0 -15 -13 -23z" />
    <glyph glyph-name="greaterequal" unicode="&#x2265;" horiz-adv-x="337" 
d="M0 27q0 11 8 19t19 8h283q11 0 19 -8t8 -19t-8 -19t-19 -8h-283q-11 0 -19 8t-8 19zM13 139l258 148l-258 148q-13 8 -13 23q0 11 8 19t19 8q8 0 16 -5l281 -170q13 -9 13 -23t-13 -23l-281 -170q-8 -5 -16 -5q-11 0 -19 8t-8 19q0 15 13 23z" />
    <glyph glyph-name="commaaccent" unicode="&#xf6c3;" horiz-adv-x="141" 
d="M113 -100q0 -48 -13.5 -81.5t-45.5 -65.5q-5 -5 -11 -5q-13 0 -13 13q0 5 4 9q29 29 29 65q0 17 -18 39t-18 41q0 43 42 43q44 0 44 -58z" />
    <glyph glyph-name="s_t" unicode="&#xfb06;" horiz-adv-x="684" 
d="M207 406q-89 0 -89 -60q0 -29 27 -48t66 -31.5t77.5 -27.5t65.5 -45t27 -74q0 -65 -47.5 -98.5t-122.5 -33.5q-57 0 -103 22t-68 50q-7 10 -7 19q0 12 8.5 20.5t20.5 8.5t22 -10q49 -49 127 -49q47 0 76.5 17t29.5 54q0 28 -27 46.5t-65.5 31t-77.5 27.5t-66 45.5
t-27 75.5q0 60 42.5 90.5t110.5 30.5q44 0 84 -15q-55 59 -55 114q0 53 41 87t105 34q90 0 133.5 -51.5t43.5 -137.5v-44h65q13 0 21.5 -8.5t8.5 -21.5t-8.5 -21.5t-21.5 -8.5h-65v-276q0 -31 16 -48.5t42 -17.5q13 0 22 -8.5t9 -21.5t-9 -21.5t-22 -8.5q-58 0 -90 35
t-32 91v276h-39q-13 0 -21.5 8.5t-8.5 21.5t8.5 21.5t21.5 8.5h39v42q0 137 -115 137q-47 0 -75 -23.5t-28 -58.5q0 -14 3.5 -28t7 -23.5t14 -24.5t15.5 -21.5t20.5 -25l21.5 -25.5q7 -9 7 -19q0 -12 -8.5 -20.5t-20.5 -8.5t-21 9q-44 42 -109 42z" />
    <glyph glyph-name="zero.tab" horiz-adv-x="592" 
d="M296 46q94 0 137.5 68.5t43.5 222.5t-43.5 222t-137.5 68t-137.5 -68t-43.5 -222t43.5 -222.5t137.5 -68.5zM296 687q126 0 186.5 -85t60.5 -265t-60.5 -265.5t-186.5 -85.5t-186.5 85.5t-60.5 265.5t60.5 265t186.5 85z" />
    <glyph glyph-name="one.tab" horiz-adv-x="592" 
d="M306 589l-160 -124q-9 -6 -19 -6q-13 0 -22.5 9.5t-9.5 22.5q0 18 14 27l210 156q10 7 20 7q13 0 23 -9.5t10 -23.5v-623q0 -13 -10 -23t-23 -10t-23 10t-10 23v564z" />
    <glyph glyph-name="two.tab" horiz-adv-x="592" 
d="M97 557q21 62 72.5 96t127.5 34q99 0 156.5 -53t57.5 -142q0 -56 -27.5 -106.5t-68.5 -85t-89.5 -68.5t-89.5 -59t-68.5 -54t-27.5 -57h349q13 0 22 -9t9 -22t-9 -22t-22 -9h-386q-13 0 -22 9t-9 22q0 61 38.5 110.5t93 85.5l109 71.5t93 84.5t38.5 109t-39 97.5
t-108 37.5q-100 0 -142 -92q-9 -20 -29 -20q-13 0 -22 9t-9 22q0 5 2 11z" />
    <glyph glyph-name="three.tab" horiz-adv-x="592" 
d="M299 408h10q113 0 162.5 -60.5t49.5 -155.5q0 -99 -59 -152.5t-172 -53.5q-147 0 -215 113q-5 8 -5 17q0 13 8.5 21.5t21.5 8.5q17 0 27 -16q51 -84 163 -84q82 0 123.5 37.5t41.5 108.5q0 156 -151 156h-70q-13 0 -21.5 8.5t-8.5 21.5q0 11 8 21l184 214h-258
q-13 0 -21.5 8.5t-8.5 21.5t8.5 21.5t21.5 8.5h326q13 0 21.5 -8.5t8.5 -21.5q0 -12 -8 -21z" />
    <glyph glyph-name="four.tab" horiz-adv-x="592" 
d="M446 217h57q14 0 23 -8.5t9 -21.5t-9.5 -22.5t-22.5 -9.5h-57v-130q0 -13 -10 -23t-23 -10t-23 10t-10 23v130h-292q-13 0 -22 9t-9 22q0 10 7 20l322 460q10 14 27 14q13 0 23 -10t10 -23v-430zM146 217h234v336z" />
    <glyph glyph-name="five.tab" horiz-adv-x="592" 
d="M297 446q107 0 169.5 -57.5t62.5 -171.5q0 -116 -62.5 -173.5t-169.5 -57.5q-81 0 -140.5 35t-90.5 100q-4 8 -4 15q0 13 9 22t22 9q18 0 28 -17q32 -54 73 -78t103 -24q77 0 121.5 41.5t44.5 127.5q0 84 -45 126t-121 42q-54 0 -90 -14t-70 -47q-13 -13 -27 -13
q-13 0 -22 9t-9 22q0 3 2 13l58 294q2 9 10 16.5t20 7.5h304q13 0 22 -9t9 -22t-9 -22t-22 -9h-282l-40 -205q57 40 146 40z" />
    <glyph glyph-name="six.tab" horiz-adv-x="592" 
d="M304 433q103 0 165 -56t62 -166q0 -116 -62 -170.5t-171 -54.5q-120 0 -178.5 90t-58.5 245q0 366 251 366q55 0 98 -16.5t63 -38.5q10 -10 10 -23t-9 -22t-22 -9q-10 0 -21 8q-55 41 -119 41q-185 0 -185 -282q24 35 70.5 61.5t106.5 26.5zM298 46q167 0 167 165
q0 82 -44.5 122t-116.5 40q-111 0 -172 -109q0 -98 43.5 -158t122.5 -60z" />
    <glyph glyph-name="seven.tab" horiz-adv-x="592" 
d="M164 24q0 92 29 172t70.5 135t83 101.5t70.5 92t29 86.5h-337q-13 0 -22 9t-9 22t9 22t22 9h373q13 0 22 -9t9 -22q0 -46 -15.5 -88t-41 -77t-56 -70t-60.5 -74.5t-55.5 -82.5t-41 -101.5t-15.5 -124.5q0 -14 -9 -23t-23 -9t-23 9t-9 23z" />
    <glyph glyph-name="eight.tab" horiz-adv-x="592" 
d="M296 -14q-107 0 -170.5 52.5t-63.5 151.5q0 64 31 110.5t87 67.5q-88 47 -88 145q0 87 54.5 130.5t149.5 43.5t149.5 -43.5t54.5 -130.5q0 -98 -88 -145q56 -21 87 -67.5t31 -110.5q0 -99 -63.5 -151.5t-170.5 -52.5zM296 627q-66 0 -102 -28.5t-36 -85.5q0 -58 36.5 -88
t101.5 -30t101.5 30t36.5 88q0 57 -36 85.5t-102 28.5zM296 335q-81 0 -124.5 -36t-43.5 -109q0 -72 45 -108t123 -36t123 36t45 108q0 73 -43.5 109t-124.5 36z" />
    <glyph glyph-name="nine.tab" horiz-adv-x="592" 
d="M288 240q-103 0 -165 56t-62 166q0 116 62 170.5t171 54.5q120 0 178.5 -90t58.5 -245q0 -366 -251 -366q-55 0 -98 16.5t-63 38.5q-10 10 -10 23t9 22t22 9q10 0 21 -8q55 -41 119 -41q185 0 185 282q-24 -35 -70.5 -61.5t-106.5 -26.5zM294 627q-167 0 -167 -165
q0 -82 44.5 -122t116.5 -40q111 0 172 109q0 98 -43.5 158t-122.5 60z" />
    <glyph glyph-name="ornament.A" horiz-adv-x="732" 
d="M578 687q51 0 86 -33t35 -83q0 -59 -43.5 -92t-110.5 -33q-37 0 -68 6q-21 -32 -56 -47q59 0 98 -31.5t39 -83.5q0 -44 -21 -71.5t-52 -36.5t-68 -15.5t-68 -10.5t-52 -20.5t-21 -45.5q0 -21 13.5 -33.5t35.5 -12.5q18 0 28 10.5t12 22.5t12 22.5t28 10.5q44 0 44 -45
q0 -21 -11.5 -36t-30.5 -22.5t-38 -11t-39 -3.5q-64 0 -114.5 30t-79.5 76.5t-44 97t-15 97.5q0 79 43 137t123 58q64 0 104 -44q-54 -35 -85 -64t-51 -73.5t-20 -102.5q0 -27 2 -40q2 -16 12 -16q9 0 9 17q0 5 -0.5 18.5t-0.5 20.5q0 70 35 117.5t103 89.5q46 28 67 55
q-59 15 -152 81q-12 9 -41 34.5t-52 39.5t-44 14q-18 0 -29 -11.5t-11 -29.5t11.5 -28.5t28.5 -10.5q13 0 33 20q8 6 17 6q11 0 18.5 -7.5t7.5 -18.5q0 -22 -26.5 -37t-53.5 -15q-38 0 -65 27t-27 64q0 38 27 65.5t65 27.5q54 0 122 -58q41 58 113 58q58 0 100 -42t42 -100
q0 -22 -7 -43q22 -4 50 -4q39 0 68.5 17.5t29.5 55.5q0 26 -18.5 45t-46.5 19q-12 0 -24.5 -6t-19.5 -6q-11 0 -18.5 7.5t-7.5 18.5q0 14 11 22q21 16 59 16zM440 510q6 16 6 35q0 34 -23.5 62t-62.5 28q-48 0 -71 -42q72 -57 151 -83z" />
    <glyph glyph-name="zero.onum" horiz-adv-x="610" 
d="M305 47q186 0 186 223q0 222 -186 222t-186 -222q0 -223 186 -223zM305 552q118 0 184.5 -71.5t66.5 -210.5q0 -140 -66.5 -211.5t-184.5 -71.5t-184.5 71.5t-66.5 211.5q0 139 66.5 210.5t184.5 71.5z" />
    <glyph glyph-name="one.onum" horiz-adv-x="364" 
d="M200 458l-114 -79q-8 -5 -17 -5q-13 0 -21.5 8.5t-8.5 21.5q0 16 13 25l158 109q12 8 22 8q14 0 23 -9t9 -23v-490q0 -14 -9 -23t-23 -9t-23 9t-9 23v434z" />
    <glyph glyph-name="two.onum" horiz-adv-x="508" 
d="M68 428q46 124 194 124q98 0 150 -45.5t52 -118.5q0 -52 -36 -94.5t-87.5 -70.5t-103 -52t-87.5 -52t-36 -59h331q13 0 21.5 -8.5t8.5 -21.5t-8.5 -21.5t-21.5 -8.5h-368q-13 0 -21.5 8.5t-8.5 21.5q0 59 36.5 103.5t88.5 71.5t103.5 51t88 57t36.5 75q0 46 -36.5 75
t-101.5 29q-55 0 -86.5 -22t-51.5 -65q-8 -18 -28 -18q-13 0 -21.5 8.5t-8.5 21.5q0 6 2 11z" />
    <glyph glyph-name="three.onum" horiz-adv-x="532" 
d="M261 273h10q113 0 162.5 -60.5t49.5 -155.5q0 -99 -59 -152.5t-172 -53.5q-147 0 -215 113q-5 8 -5 17q0 13 8.5 21.5t21.5 8.5q17 0 27 -16q51 -84 163 -84q82 0 123.5 37.5t41.5 108.5q0 156 -151 156h-70q-13 0 -21.5 8.5t-8.5 21.5q0 11 8 21l184 214h-258
q-13 0 -21.5 8.5t-8.5 21.5t8.5 21.5t21.5 8.5h326q13 0 21.5 -8.5t8.5 -21.5q0 -12 -8 -21z" />
    <glyph glyph-name="four.onum" horiz-adv-x="532" 
d="M412 87h57q13 0 21.5 -8.5t8.5 -21.5t-8.5 -21.5t-21.5 -8.5h-57v-137q0 -14 -9.5 -23.5t-22.5 -9.5q-14 0 -23.5 9.5t-9.5 23.5v137h-293q-13 0 -21.5 8.5t-8.5 21.5q0 10 7 20l322 455q11 14 27 14q13 0 22.5 -9.5t9.5 -23.5v-426zM110 87h237v335z" />
    <glyph glyph-name="five.onum" horiz-adv-x="558" 
d="M282 311q107 0 169.5 -57.5t62.5 -171.5q0 -116 -62.5 -173.5t-169.5 -57.5q-81 0 -140.5 35t-90.5 100q-4 8 -4 15q0 13 9 22t22 9q18 0 28 -17q32 -54 73 -78t103 -24q77 0 121.5 41.5t44.5 127.5q0 84 -45 126t-121 42q-54 0 -90 -14t-70 -47q-13 -13 -27 -13
q-13 0 -22 9t-9 22q0 3 2 13l58 294q2 9 10 16.5t20 7.5h304q13 0 22 -9t9 -22t-9 -22t-22 -9h-282l-40 -205q57 40 146 40z" />
    <glyph glyph-name="six.onum" horiz-adv-x="566" 
d="M291 429q103 0 165 -55t62 -165q0 -115 -62 -169t-171 -54q-121 0 -179 88.5t-58 242.5q0 364 251 364q55 0 98 -16.5t63 -38.5q10 -10 10 -23t-9 -22t-22 -9q-10 0 -21 8q-55 41 -119 41q-185 0 -185 -280q24 35 70.5 61.5t106.5 26.5zM285 46q167 0 167 163
q0 82 -44 121t-117 39q-111 0 -172 -109q0 -97 43 -155.5t123 -58.5z" />
    <glyph glyph-name="seven.onum" horiz-adv-x="483" 
d="M111 -111q0 92 29 172t70.5 135t83 101.5t70.5 92t29 86.5h-337q-13 0 -22 9t-9 22t9 22t22 9h373q13 0 22 -9t9 -22q0 -62 -29.5 -118.5t-71 -104.5l-83.5 -100t-71.5 -128.5t-29.5 -166.5q0 -13 -9.5 -22.5t-22.5 -9.5t-22.5 9.5t-9.5 22.5z" />
    <glyph glyph-name="eight.onum" horiz-adv-x="550" 
d="M275 -14q-108 0 -171 51.5t-63 150.5q0 64 31 110t87 67q-88 47 -88 143q0 86 55 129t149 43t149 -43t55 -129q0 -96 -88 -143q56 -21 87 -67t31 -110q0 -99 -63 -150.5t-171 -51.5zM275 620q-138 0 -138 -112q0 -58 36.5 -87t101.5 -29t101.5 29t36.5 87q0 112 -138 112
zM275 332q-168 0 -168 -144q0 -72 45 -107t123 -35t123 35t45 107q0 144 -168 144z" />
    <glyph glyph-name="nine.onum" horiz-adv-x="566" 
d="M275 109q-103 0 -165 55t-62 165q0 115 62 169t171 54q121 0 179 -88.5t58 -242.5q0 -364 -251 -364q-55 0 -98 16.5t-63 38.5q-10 10 -10 23t9 22t22 9q10 0 21 -8q55 -41 119 -41q185 0 185 280q-24 -35 -70.5 -61.5t-106.5 -26.5zM281 492q-167 0 -167 -163
q0 -82 44 -121t117 -39q111 0 172 109q0 97 -43 155.5t-123 58.5z" />
    <glyph glyph-name="hyphen.case" horiz-adv-x="364" 
d="M309 337q0 -11 -8 -19t-19 -8h-200q-11 0 -19 8t-8 19t8 19t19 8h200q11 0 19 -8t8 -19z" />
    <glyph glyph-name="parenleft.case" horiz-adv-x="294" 
d="M60 337q0 207 37 302t133 137q8 3 13 3q11 0 19.5 -8.5t8.5 -19.5q0 -18 -18 -26q-31 -15 -52.5 -34t-36 -47t-22.5 -55t-12 -71.5t-5 -81t-1 -99.5t1 -99.5t5 -81t12 -71.5t22.5 -55t36 -47t52.5 -34q18 -8 18 -26q0 -11 -8.5 -19.5t-19.5 -8.5q-5 0 -13 3
q-96 42 -133 137t-37 302z" />
    <glyph glyph-name="parenright.case" horiz-adv-x="294" 
d="M234 337q0 -207 -37 -302t-133 -137q-8 -3 -13 -3q-11 0 -19.5 8.5t-8.5 19.5q0 18 18 26q31 15 52.5 34t36 47t22.5 55t12 71.5t5 81t1 99.5t-1 99.5t-5 81t-12 71.5t-22.5 55t-36 47t-52.5 34q-18 8 -18 26q0 11 8.5 19.5t19.5 8.5q5 0 13 -3q96 -42 133 -137t37 -302z
" />
    <glyph glyph-name="bracketleft.case" horiz-adv-x="259" 
d="M239 -79q0 -11 -7.5 -18.5t-18.5 -7.5h-101q-14 0 -23 9.5t-9 22.5v820q0 13 9 22.5t23 9.5h101q11 0 18.5 -7.5t7.5 -18.5t-7.5 -18.5t-18.5 -7.5h-69v-780h69q11 0 18.5 -7.5t7.5 -18.5z" />
    <glyph glyph-name="bracketright.case" horiz-adv-x="259" 
d="M20 -79q0 11 8 18.5t18 7.5h69v780h-69q-10 0 -18 7.5t-8 18.5t8 18.5t18 7.5h101q13 0 22.5 -9.5t9.5 -22.5v-820q0 -13 -9.5 -22.5t-22.5 -9.5h-101q-10 0 -18 7.5t-8 18.5z" />
    <glyph glyph-name="braceleft.case" horiz-adv-x="338" 
d="M312 -77q0 -11 -8.5 -19.5t-19.5 -8.5q-71 0 -106 34t-35 83q0 26 6 104t6 106q0 54 -26 73t-74 19h-7q-10 0 -16.5 6.5t-6.5 16.5t6.5 16.5t16.5 6.5h7q48 0 74 19t26 74q0 32 -6 94t-6 116q0 48 35.5 82t105.5 34q11 0 19.5 -8.5t8.5 -19.5t-8.5 -19.5t-19.5 -8.5
q-74 0 -74 -73q0 -23 4 -92t4 -97q0 -55 -31.5 -89.5t-89.5 -34.5q58 0 89.5 -34.5t31.5 -89.5q0 -24 -4 -95t-4 -94q0 -73 74 -73q11 0 19.5 -8.5t8.5 -19.5z" />
    <glyph glyph-name="braceright.case" horiz-adv-x="338" 
d="M26 -77q0 11 8.5 19.5t19.5 8.5q74 0 74 73q0 23 -4 94t-4 95q0 55 31.5 89.5t89.5 34.5q-58 0 -89.5 34.5t-31.5 89.5q0 28 4 97t4 92q0 73 -74 73q-11 0 -19.5 8.5t-8.5 19.5t8.5 19.5t19.5 8.5q70 0 105.5 -34t35.5 -82q0 -54 -6 -116t-6 -94q0 -55 26 -74t74 -19h7
q10 0 16.5 -6.5t6.5 -16.5t-6.5 -16.5t-16.5 -6.5h-7q-48 0 -74 -19t-26 -73q0 -28 6 -106t6 -104q0 -49 -35 -83t-106 -34q-11 0 -19.5 8.5t-8.5 19.5z" />
    <glyph glyph-name="guillemotleft.case" horiz-adv-x="522" 
d="M78 337q0 9 7 18l163 192q8 9 18 9t17 -7t7 -17q0 -9 -7 -17l-153 -178l153 -178q7 -8 7 -17q0 -10 -7 -17t-17 -7t-18 9l-163 192q-7 9 -7 18zM232 337q0 9 7 18l163 192q8 9 18 9t17 -7t7 -17q0 -9 -7 -17l-153 -178l153 -178q7 -8 7 -17q0 -10 -7 -17t-17 -7t-18 9
l-163 192q-7 9 -7 18z" />
    <glyph glyph-name="guillemotright.case" horiz-adv-x="522" 
d="M444 337q0 -9 -7 -18l-163 -192q-8 -9 -18 -9t-17 7t-7 17q0 9 7 17l153 178l-153 178q-7 8 -7 17q0 10 7 17t17 7t18 -9l163 -192q7 -9 7 -18zM290 337q0 -9 -7 -18l-163 -192q-8 -9 -18 -9t-17 7t-7 17q0 9 7 17l153 178l-153 178q-7 8 -7 17q0 10 7 17t17 7t18 -9
l163 -192q7 -9 7 -18z" />
    <glyph glyph-name="guilsinglleft.case" horiz-adv-x="367" 
d="M77 337q0 9 7 18l163 192q7 9 18 9q10 0 17 -7t7 -17q0 -9 -7 -17l-153 -178l153 -178q7 -8 7 -17q0 -10 -7 -17t-17 -7q-11 0 -18 9l-163 192q-7 9 -7 18z" />
    <glyph glyph-name="guilsinglright.case" horiz-adv-x="367" 
d="M290 337q0 -9 -7 -18l-163 -192q-8 -9 -18 -9t-17 7t-7 17q0 9 7 17l153 178l-153 178q-7 8 -7 17q0 10 7 17t17 7t18 -9l163 -192q7 -9 7 -18z" />
    <glyph glyph-name="endash.case" horiz-adv-x="584" 
d="M481 337q0 -11 -8 -19t-19 -8h-324q-11 0 -19 8t-8 19t8 19t19 8h324q11 0 19 -8t8 -19z" />
    <glyph glyph-name="emdash.case" horiz-adv-x="918" 
d="M815 337q0 -11 -8 -19t-19 -8h-658q-11 0 -19 8t-8 19t8 19t19 8h658q11 0 19 -8t8 -19z" />
    <glyph glyph-name="periodcentered.case" horiz-adv-x="164" 
d="M82 280q-47 0 -47 47q0 48 47 48t47 -48q0 -47 -47 -47z" />
    <glyph glyph-name="questiondown.case" horiz-adv-x="461" 
d="M276 515q32 -32 32 -85q0 -36 -21.5 -64t-52 -47.5l-61.5 -39.5t-52.5 -51.5t-21.5 -72.5q0 -54 35 -82t99 -28q60 0 94 30t34 90q0 13 9.5 23t23.5 10t23.5 -10t9.5 -23q0 -84 -51 -131.5t-143 -47.5q-93 0 -145.5 44t-52.5 125q0 49 21 87.5t51.5 62t61 43t51.5 40
t21 42.5q0 19 -14 40q-8 12 -8 22q0 15 10.5 24t22.5 9q14 0 24 -10zM256 681q47 0 47 -47q0 -48 -47 -48t-47 48q0 47 47 47z" />
    <glyph glyph-name="exclamdown.case" horiz-adv-x="208" 
d="M104 -8q-36 0 -35 35l15 471q0 18 20 18t20 -18l15 -471q1 -35 -35 -35zM104 681q47 0 47 -47q0 -48 -47 -48t-47 48q0 47 47 47z" />
    <glyph glyph-name="bullet.case" horiz-adv-x="418" 
d="M209 207q-130 0 -130 130q0 136 130 136t130 -136q0 -130 -130 -130z" />
    <glyph glyph-name="dollar.onum" horiz-adv-x="473" 
d="M363 463q-46 62 -130 62q-59 0 -88.5 -23.5t-29.5 -60.5q0 -32 23.5 -55t58.5 -35t76 -28.5t76 -34t58.5 -53t23.5 -83.5q0 -70 -46.5 -114.5t-125.5 -48.5v-77q0 -10 -7.5 -18t-18.5 -8t-18.5 8t-7.5 18v76q-115 11 -175 102q-6 10 -6 18q0 13 9 22t22 9q17 0 27 -16
q48 -75 143 -75q140 0 140 104q0 35 -23.5 60t-58.5 38l-76.5 29t-76.5 32.5t-58.5 50t-23.5 79.5q0 67 46.5 102t110.5 41v61q0 11 7.5 18.5t18.5 7.5t18.5 -7.5t7.5 -18.5v-61q107 -12 156 -87q5 -8 5 -17q0 -13 -9 -22t-22 -9q-16 0 -26 14z" />
    <glyph glyph-name="cent.onum" horiz-adv-x="502" 
d="M35 268q0 130 55 197.5t153 77.5v69q0 10 7.5 18t18.5 8t18.5 -8t7.5 -18v-68q45 -3 82 -20t51 -29.5t22 -24.5q7 -10 7 -21q0 -12 -9 -21t-21 -9q-14 0 -23 10q-49 55 -131 55q-173 0 -173 -216q0 -220 173 -220q86 0 129 50q10 13 25 13q12 0 21 -8.5t9 -20.5
q0 -11 -7 -21q-7 -11 -22 -24t-51.5 -28.5t-81.5 -20.5v-76q0 -10 -7.5 -18t-18.5 -8t-18.5 8t-7.5 18v77q-94 5 -151 76t-57 203z" />
    <glyph glyph-name="sterling.onum" horiz-adv-x="501" 
d="M280 252h-104q12 -31 12 -71q0 -29 -12.5 -60.5t-32.5 -51.5q24 12 54 12q25 0 75.5 -17.5t73.5 -17.5q43 0 73 39q9 12 24 12q13 0 21.5 -8.5t8.5 -21.5q0 -7 -4 -17q-33 -65 -123 -65q-29 0 -83 19t-84 19q-41 0 -88 -28q-10 -6 -20 -6q-13 0 -21 9t-8 20q0 16 14 25
q31 20 50 55t19 70q0 46 -16 84h-44q-13 0 -21.5 8.5t-8.5 21.5t8.5 21.5t21.5 8.5h13q-32 57 -32 110q0 67 51.5 115.5t144.5 48.5q74 0 123.5 -32.5t69.5 -82.5q3 -7 3 -16q0 -13 -8.5 -21.5t-21.5 -8.5q-19 0 -28 19q-37 82 -138 82q-61 0 -96 -29t-35 -75q0 -49 36 -110
h133q13 0 21.5 -8.5t8.5 -21.5t-8.5 -21.5t-21.5 -8.5z" />
    <glyph glyph-name="yen.onum" horiz-adv-x="485" 
d="M386 178h-112v-154q0 -14 -9 -23t-23 -9q-13 0 -22.5 9.5t-9.5 22.5v154h-111q-13 0 -21.5 8.5t-8.5 21.5t8.5 21.5t21.5 8.5h111v36h-111q-13 0 -21.5 8.5t-8.5 21.5t8.5 21.5t21.5 8.5h81l-147 190q-9 12 -9 22q0 13 10 22.5t23 9.5q15 0 25 -13l161 -211l159 211
q10 13 26 13q13 0 22.5 -9.5t9.5 -22.5t-8 -22l-147 -190h81q13 0 21.5 -8.5t8.5 -21.5t-8.5 -21.5t-21.5 -8.5h-112v-36h112q13 0 21.5 -8.5t8.5 -21.5t-8.5 -21.5t-21.5 -8.5z" />
    <glyph glyph-name="florin.onum" horiz-adv-x="410" 
d="M422 633q0 -11 -7 -18t-18 -7q-5 0 -17 5q-31 13 -59 13q-44 0 -67.5 -28t-33.5 -84l-20 -116h97q11 0 19 -8t8 -19t-8 -19t-19 -8h-106l-62 -344q-17 -95 -69 -148t-139 -53q-38 0 -65 11q-22 8 -22 27q0 11 8 19t19 8q5 0 11 -2q31 -9 54 -9q57 0 92 37t47 101l63 353
h-65q-11 0 -19 8t-8 19t8 19t19 8h74l19 108q31 174 165 174q52 0 86 -22q15 -10 15 -25z" />
    <glyph glyph-name="Euro.onum" horiz-adv-x="550" 
d="M255 312h-142q-1 -11 -1 -25q0 -12 1 -28h142q11 0 19 -8t8 -19t-8 -19t-19 -8h-136q17 -79 67.5 -118t123.5 -39q82 0 131 60q12 15 26 15t22.5 -8t8.5 -21q0 -11 -8 -22q-67 -85 -180 -85q-105 0 -170.5 60.5t-85.5 157.5h-24q-11 0 -19 8t-8 19t8 19t19 8h18
q-1 16 -1 28l1 25h-18q-11 0 -19 8t-8 19t8 19t19 8h24q21 110 92 164.5t164 54.5q65 0 113.5 -23.5t67.5 -53.5q7 -12 7 -21q0 -13 -9 -21.5t-22 -8.5q-14 0 -25 12q-50 56 -132 56q-160 0 -191 -159h136q11 0 19 -8t8 -19t-8 -19t-19 -8z" />
    <glyph glyph-name="ampersand.salt1" horiz-adv-x="571" 
d="M527 220q0 -99 -73 -164q11 -31 11 -69q0 -67 -38.5 -117t-110.5 -50q-45 0 -74 19q-16 8 -16 27q0 13 9 22t22 9q7 0 19 -6q18 -10 39 -10q41 0 63.5 32t22.5 74q0 21 -2 30q-59 -31 -134 -31q-94 0 -157.5 53t-63.5 144q0 111 119 187q-49 78 -49 163q0 67 38 110.5
t104 43.5q59 0 96.5 -36t37.5 -98q0 -108 -145 -203q25 -37 90 -109.5t94 -118.5q35 39 35 98q0 36 -18 61.5t-61 56.5q-15 11 -15 26q0 13 9 22t22 9q8 0 17 -5q49 -26 79 -71.5t30 -98.5zM178 533q0 -58 40 -130q54 34 81 69t27 81q0 36 -20 56t-50 20q-38 0 -58 -26.5
t-20 -69.5zM265 44q64 0 118 32q-27 51 -98.5 130.5t-93.5 111.5q-83 -53 -83 -135q0 -65 46 -102t111 -37z" />
    <glyph glyph-name="ornament.B" horiz-adv-x="732" 
d="M591 681q39 0 66 -27t27 -65q0 -61 -58 -92t-127 -31l-19 1q2 -19 2 -45q0 -108 -68 -198t-146 -123q-6 -3 -6 -11q0 -10 11 -10q3 0 9 2q76 32 134 97t85 151q43 0 72.5 -30t29.5 -85q0 -93 -80.5 -158t-213.5 -65q-112 0 -186.5 55.5t-74.5 155.5q0 71 59 71
q43 0 43 -45q0 -19 -18 -36.5t-18 -30.5q0 -18 15 -32.5t34 -14.5q21 0 36.5 16t15.5 38q0 18 -18 73.5t-18 89.5q0 50 32 80t79 30q85 0 129 -78q8 22 8 68l-2 41q-68 13 -136.5 56t-92.5 102q-31 -2 -51.5 -20t-20.5 -45q0 -23 14.5 -35.5t38.5 -12.5q12 0 20 -8t8 -20
q0 -11 -8 -19.5t-20 -8.5q-44 0 -76.5 28t-32.5 76q0 57 45 89t108 32q77 0 148 -46.5t101 -120.5q14 -2 29 -2q57 0 93 21.5t36 49.5q0 15 -10.5 25.5t-26.5 10.5q-15 0 -25.5 -10.5t-10.5 -25.5q0 -11 -8 -19t-19 -8t-19 8t-8 19q0 38 25.5 65t64.5 27zM252 634
q29 -42 63.5 -63.5t89.5 -39.5q-23 38 -64 67.5t-89 35.5z" />
    <glyph glyph-name="slash.case" horiz-adv-x="407" 
d="M41 -41l264 779q7 23 31 23q14 0 23 -9.5t9 -22.5q0 -6 -3 -15l-264 -779q-7 -23 -31 -23q-14 0 -23 9t-9 23q0 6 3 15z" />
    <glyph glyph-name="backslash.case" horiz-adv-x="407" 
d="M102 738l264 -779q3 -9 3 -15q0 -14 -9.5 -23t-22.5 -9q-24 0 -31 23l-264 779q-3 9 -3 15q0 13 9.5 22.5t22.5 9.5q24 0 31 -23z" />
    <glyph glyph-name="bar.case" horiz-adv-x="218" 
d="M141 788v-902q0 -14 -9.5 -23.5t-23.5 -9.5t-23.5 9.5t-9.5 23.5v902q0 14 9.5 23.5t23.5 9.5t23.5 -9.5t9.5 -23.5z" />
    <glyph glyph-name="zero.numerator" horiz-adv-x="298" 
d="M149 423q71 0 71 108q0 109 -71 109t-71 -109q0 -108 71 -108zM149 376q-124 0 -124 155q0 156 124 156t124 -156q0 -155 -124 -155z" />
    <glyph glyph-name="one.numerator" horiz-adv-x="196" 
d="M99 613l-30 -21q-9 -7 -18 -7q-10 0 -17.5 7.5t-7.5 17.5q0 13 12 21l72 48q7 5 15 5q11 0 18.5 -8t7.5 -18v-253q0 -11 -7.5 -18.5t-18.5 -7.5t-18.5 7.5t-7.5 18.5v208z" />
    <glyph glyph-name="two.numerator" horiz-adv-x="266" 
d="M35 634q22 53 97 53q50 0 79 -23.5t29 -65.5q0 -32 -25 -59t-55.5 -41.5t-55.5 -32.5t-25 -35h135q10 0 17 -7t7 -17t-7 -17t-17 -7h-167q-10 0 -17 7t-7 17q0 39 26 68.5t56.5 43.5t56.5 34.5t26 45.5q0 18 -14.5 30t-41.5 12q-37 0 -57 -29q-8 -10 -19 -10
q-10 0 -16.5 6.5t-6.5 16.5q0 5 2 10z" />
    <glyph glyph-name="three.numerator" horiz-adv-x="259" 
d="M212 638l-68 -70q46 0 68 -27t22 -65q0 -46 -29 -73t-87 -27q-70 0 -101 58q-4 8 -4 14q0 10 6.5 16.5t16.5 6.5q13 0 21 -13q20 -34 61 -34q63 0 63 52q0 48 -60 48h-22q-10 0 -17 7t-7 17q0 8 6 16l62 67h-93q-10 0 -17.5 7.5t-7.5 17.5t7.5 17.5t17.5 7.5h144
q10 0 17.5 -7.5t7.5 -17.5q0 -12 -7 -18z" />
    <glyph glyph-name="four.numerator" horiz-adv-x="260" 
d="M204 494h16q10 0 17 -7t7 -17t-7 -17t-17 -7h-16v-41q0 -11 -8 -18.5t-18 -7.5t-18 7.5t-8 18.5v41h-111q-10 0 -17 7t-7 17q0 9 6 16l134 187q9 11 21 11q10 0 18 -8t8 -18v-164zM85 494h67v96z" />
    <glyph glyph-name="five.numerator" horiz-adv-x="262" 
d="M125 579q49 0 80.5 -24.5t31.5 -76.5q0 -49 -30.5 -75.5t-81.5 -26.5q-73 0 -107 57q-5 8 -5 15q0 10 6.5 16.5t16.5 6.5q13 0 22 -14q21 -33 67 -33q28 0 43.5 15t15.5 39q0 25 -15.5 40t-43.5 15t-58 -14q-14 -6 -19 -6q-10 0 -16.5 6.5t-6.5 16.5q0 5 2 14l19 108
q4 22 25 22h133q10 0 17.5 -7t7.5 -18t-7.5 -18t-17.5 -7h-114l-10 -59q18 8 45 8z" />
    <glyph glyph-name="six.numerator" horiz-adv-x="275" 
d="M146 576q46 0 75 -25t29 -71q0 -52 -30.5 -78t-79.5 -26q-115 0 -115 149q0 82 33 122t89 40q49 0 74 -21q9 -8 9 -19q0 -10 -6.5 -16.5t-16.5 -6.5q-6 0 -16 5q-22 11 -44 11q-29 0 -50.5 -24t-21.5 -71q24 31 71 31zM140 423q29 0 44.5 15t15.5 42q0 23 -17 37t-43 14
q-19 0 -36 -11t-24 -31q0 -27 14 -46.5t46 -19.5z" />
    <glyph glyph-name="seven.numerator" horiz-adv-x="234" 
d="M50 406q0 44 18 82.5t40 60.5t40 44.5t18 37.5h-131q-11 0 -18 7.5t-7 17.5t7 17.5t18 7.5h161q10 0 17.5 -7.5t7.5 -17.5q0 -31 -12.5 -56t-29.5 -44l-34.5 -38.5t-30 -48t-12.5 -63.5q0 -11 -7.5 -19t-17.5 -8q-11 0 -19 8t-8 19z" />
    <glyph glyph-name="eight.numerator" horiz-adv-x="271" 
d="M135 376q-113 0 -113 95q0 52 48 73q-37 16 -37 59q0 41 27.5 62.5t74.5 21.5t74.5 -21.5t27.5 -62.5q0 -43 -37 -59q48 -21 48 -73q0 -95 -113 -95zM135 640q-51 0 -51 -37q0 -38 51 -38t51 38q0 37 -51 37zM135 520q-60 0 -60 -49q0 -48 60 -48t60 48q0 49 -60 49z" />
    <glyph glyph-name="nine.numerator" horiz-adv-x="275" 
d="M129 487q-46 0 -75 25t-29 71q0 52 30.5 78t79.5 26q115 0 115 -149q0 -82 -33 -122t-89 -40q-49 0 -74 21q-9 7 -9 19q0 10 6.5 16.5t16.5 6.5q6 0 16 -5q22 -11 44 -11q29 0 50.5 24t21.5 71q-24 -31 -71 -31zM135 640q-29 0 -44.5 -15t-15.5 -42q0 -23 17 -37t43 -14
q19 0 36 11t24 31q0 27 -14 46.5t-46 19.5z" />
    <glyph glyph-name="zero.denominator" horiz-adv-x="298" 
d="M149 34q71 0 71 108q0 109 -71 109t-71 -109q0 -108 71 -108zM149 -13q-124 0 -124 155q0 156 124 156t124 -156q0 -155 -124 -155z" />
    <glyph glyph-name="one.denominator" horiz-adv-x="196" 
d="M99 226l-30 -21q-9 -7 -18 -7q-10 0 -17.5 7.5t-7.5 17.5q0 13 12 21l72 48q7 5 15 5q11 0 18.5 -7.5t7.5 -18.5v-253q0 -10 -7.5 -18t-18.5 -8t-18.5 8t-7.5 18v208z" />
    <glyph glyph-name="two.denominator" horiz-adv-x="266" 
d="M35 252q22 53 97 53q50 0 79 -23.5t29 -65.5q0 -32 -25 -59t-55.5 -41.5t-55.5 -32.5t-25 -35h135q10 0 17 -7t7 -17t-7 -17t-17 -7h-167q-10 0 -17 7t-7 17q0 39 26 68.5t56.5 43.5t56.5 34.5t26 45.5q0 18 -14.5 30t-41.5 12q-37 0 -57 -29q-8 -10 -19 -10
q-10 0 -16.5 6.5t-6.5 16.5q0 5 2 10z" />
    <glyph glyph-name="three.denominator" horiz-adv-x="259" 
d="M212 249l-68 -70q46 0 68 -27t22 -65q0 -46 -29 -73t-87 -27q-70 0 -101 58q-4 8 -4 14q0 10 6.5 16.5t16.5 6.5q13 0 21 -13q20 -34 61 -34q63 0 63 52q0 48 -60 48h-22q-10 0 -17 7t-7 17q0 9 6 16l62 67h-93q-10 0 -17.5 7t-7.5 18t7.5 18t17.5 7h144q10 0 17.5 -7
t7.5 -18q0 -12 -7 -18z" />
    <glyph glyph-name="four.denominator" horiz-adv-x="260" 
d="M204 107h16q10 0 17 -7t7 -17t-7 -17t-17 -7h-16v-41q0 -10 -8 -18t-18 -8t-18 8t-8 18v41h-111q-10 0 -17 7t-7 17q0 9 6 16l134 187q9 11 21 11q10 0 18 -7.5t8 -18.5v-164zM85 107h67v96z" />
    <glyph glyph-name="five.denominator" horiz-adv-x="262" 
d="M125 189q49 0 80.5 -24.5t31.5 -76.5q0 -49 -30.5 -75.5t-81.5 -26.5q-73 0 -107 57q-5 8 -5 15q0 10 6.5 16.5t16.5 6.5q13 0 22 -14q21 -33 67 -33q28 0 43.5 15t15.5 39q0 25 -15.5 40t-43.5 15t-58 -14q-14 -6 -19 -6q-10 0 -16.5 6.5t-6.5 16.5q0 5 2 14l19 108
q4 22 25 22h133q10 0 17.5 -7t7.5 -18t-7.5 -18t-17.5 -7h-114l-10 -59q18 8 45 8z" />
    <glyph glyph-name="six.denominator" horiz-adv-x="275" 
d="M146 186q46 0 75 -25t29 -71q0 -52 -30.5 -78t-79.5 -26q-115 0 -115 149q0 82 33 122t89 40q49 0 74 -21q9 -8 9 -19q0 -10 -6.5 -16.5t-16.5 -6.5q-6 0 -16 5q-22 11 -44 11q-29 0 -50.5 -24t-21.5 -71q24 31 71 31zM140 33q29 0 44.5 15t15.5 42q0 23 -17 37t-43 14
q-19 0 -36 -11t-24 -31q0 -27 14 -46.5t46 -19.5z" />
    <glyph glyph-name="seven.denominator" horiz-adv-x="234" 
d="M50 17q0 44 18 82.5t40 60.5t40 44.5t18 37.5h-131q-11 0 -18 7t-7 18t7 18t18 7h161q10 0 17.5 -7t7.5 -18q0 -31 -12.5 -56t-29.5 -44l-34.5 -38.5t-30 -48t-12.5 -63.5q0 -11 -7.5 -19t-17.5 -8q-11 0 -19 8t-8 19z" />
    <glyph glyph-name="eight.denominator" horiz-adv-x="271" 
d="M135 -14q-113 0 -113 95q0 52 48 73q-37 16 -37 59q0 41 27.5 62.5t74.5 21.5t74.5 -21.5t27.5 -62.5q0 -43 -37 -59q48 -21 48 -73q0 -95 -113 -95zM135 250q-51 0 -51 -37q0 -38 51 -38t51 38q0 37 -51 37zM135 130q-60 0 -60 -49q0 -48 60 -48t60 48q0 49 -60 49z" />
    <glyph glyph-name="nine.denominator" horiz-adv-x="275" 
d="M129 97q-46 0 -75 25t-29 71q0 52 30.5 78t79.5 26q115 0 115 -149q0 -82 -33 -122t-89 -40q-49 0 -74 21q-9 8 -9 19q0 10 6.5 16.5t16.5 6.5q6 0 16 -5q22 -11 44 -11q29 0 50.5 24t21.5 71q-24 -31 -71 -31zM135 250q-29 0 -44.5 -15t-15.5 -42q0 -23 17 -37t43 -14
q19 0 36 11t24 31q0 27 -14 46.5t-46 19.5z" />
    <glyph glyph-name="a.salt" horiz-adv-x="500" 
d="M445 430v-406q0 -14 -9.5 -23t-22.5 -9t-22.5 9t-9.5 23v28q-55 -65 -141 -65q-99 0 -152 60t-53 181t53 180.5t152 59.5q88 0 141 -62v24q0 14 9.5 23t22.5 9t22.5 -9t9.5 -23zM240 45q69 0 106 46.5t37 136.5q0 182 -143 182q-140 0 -140 -182q0 -183 140 -183z" />
    <glyph glyph-name="aacute.salt" horiz-adv-x="500" 
d="M445 430v-406q0 -14 -9.5 -23t-22.5 -9t-22.5 9t-9.5 23v28q-55 -65 -141 -65q-99 0 -152 60t-53 181t53 180.5t152 59.5q88 0 141 -62v24q0 14 9.5 23t22.5 9t22.5 -9t9.5 -23zM240 45q69 0 106 46.5t37 136.5q0 182 -143 182q-140 0 -140 -182q0 -183 140 -183z
M199 520q-16 13 -3 30l89 108q16 20 38 0q21 -20 3 -38l-97 -98q-15 -15 -30 -2z" />
    <glyph glyph-name="abreve.salt" horiz-adv-x="500" 
d="M445 430v-406q0 -14 -9.5 -23t-22.5 -9t-22.5 9t-9.5 23v28q-55 -65 -141 -65q-99 0 -152 60t-53 181t53 180.5t152 59.5q88 0 141 -62v24q0 14 9.5 23t22.5 9t22.5 -9t9.5 -23zM240 45q69 0 106 46.5t37 136.5q0 182 -143 182q-140 0 -140 -182q0 -183 140 -183z
M251 529q-49 0 -81 25t-32 76q0 10 7 17t17 7t17 -7t7 -17q0 -55 65 -55t65 55q0 10 7 17t17 7t17 -7t7 -17q0 -51 -32 -76t-81 -25z" />
    <glyph glyph-name="acircumflex.salt" horiz-adv-x="500" 
d="M445 430v-406q0 -14 -9.5 -23t-22.5 -9t-22.5 9t-9.5 23v28q-55 -65 -141 -65q-99 0 -152 60t-53 181t53 180.5t152 59.5q88 0 141 -62v24q0 14 9.5 23t22.5 9t22.5 -9t9.5 -23zM240 45q69 0 106 46.5t37 136.5q0 182 -143 182q-140 0 -140 -182q0 -183 140 -183z
M330 528l-81 68l-81 -68q-6 -6 -16 -6t-17 7t-7 17q0 12 9 19l96 79q8 6 16 6t16 -6l96 -79q9 -7 9 -19q0 -10 -7 -17t-17 -7t-16 6z" />
    <glyph glyph-name="adieresis.salt" horiz-adv-x="500" 
d="M445 430v-406q0 -14 -9.5 -23t-22.5 -9t-22.5 9t-9.5 23v28q-55 -65 -141 -65q-99 0 -152 60t-53 181t53 180.5t152 59.5q88 0 141 -62v24q0 14 9.5 23t22.5 9t22.5 -9t9.5 -23zM240 45q69 0 106 46.5t37 136.5q0 182 -143 182q-140 0 -140 -182q0 -183 140 -183z
M167 534q-36 0 -36 37q0 38 36 38t36 -38q0 -37 -36 -37zM324 534q-36 0 -36 37q0 38 36 38t36 -38q0 -37 -36 -37z" />
    <glyph glyph-name="agrave.salt" horiz-adv-x="500" 
d="M445 430v-406q0 -14 -9.5 -23t-22.5 -9t-22.5 9t-9.5 23v28q-55 -65 -141 -65q-99 0 -152 60t-53 181t53 180.5t152 59.5q88 0 141 -62v24q0 14 9.5 23t22.5 9t22.5 -9t9.5 -23zM240 45q69 0 106 46.5t37 136.5q0 182 -143 182q-140 0 -140 -182q0 -183 140 -183z
M295 520q-15 -13 -30 2l-97 98q-18 18 3 38q22 20 38 0l89 -108q13 -17 -3 -30z" />
    <glyph glyph-name="amacron.salt" horiz-adv-x="500" 
d="M445 430v-406q0 -14 -9.5 -23t-22.5 -9t-22.5 9t-9.5 23v28q-55 -65 -141 -65q-99 0 -152 60t-53 181t53 180.5t152 59.5q88 0 141 -62v24q0 14 9.5 23t22.5 9t22.5 -9t9.5 -23zM240 45q69 0 106 46.5t37 136.5q0 182 -143 182q-140 0 -140 -182q0 -183 140 -183z
M362 562q0 -10 -7 -17.5t-18 -7.5h-186q-11 0 -18 7.5t-7 17.5t7 17.5t18 7.5h186q11 0 18 -7.5t7 -17.5z" />
    <glyph glyph-name="aogonek.salt" horiz-adv-x="500" 
d="M483 -125q9 0 15.5 -6.5t6.5 -15.5q0 -12 -11 -19q-29 -17 -72 -17q-48 0 -75.5 22t-27.5 63q0 64 71 99q-9 9 -9 23v28q-55 -65 -141 -65q-99 0 -152 60t-53 181t53 180.5t152 59.5q88 0 141 -62v24q0 14 9.5 23t22.5 9t22.5 -9t9.5 -23v-406q0 -17 -20 -30
q-56 -35 -56 -78q0 -26 15 -39.5t40 -13.5q26 0 47 9q7 3 12 3zM240 45q69 0 106 46.5t37 136.5q0 182 -143 182q-140 0 -140 -182q0 -183 140 -183z" />
    <glyph glyph-name="aring.salt" horiz-adv-x="500" 
d="M445 430v-406q0 -14 -9.5 -23t-22.5 -9t-22.5 9t-9.5 23v28q-55 -65 -141 -65q-99 0 -152 60t-53 181t53 180.5t152 59.5q88 0 141 -62v24q0 14 9.5 23t22.5 9t22.5 -9t9.5 -23zM240 45q69 0 106 46.5t37 136.5q0 182 -143 182q-140 0 -140 -182q0 -183 140 -183z
M249 502q-104 0 -104 98t104 98t104 -98t-104 -98zM249 660q-34 0 -48 -14.5t-14 -45.5q0 -30 14.5 -45t47.5 -15t47.5 15t14.5 45q0 31 -14 45.5t-48 14.5z" />
    <glyph glyph-name="aringacute.salt" horiz-adv-x="500" 
d="M445 430v-406q0 -14 -9.5 -23t-22.5 -9t-22.5 9t-9.5 23v28q-55 -65 -141 -65q-99 0 -152 60t-53 181t53 180.5t152 59.5q88 0 141 -62v24q0 14 9.5 23t22.5 9t22.5 -9t9.5 -23zM240 45q69 0 106 46.5t37 136.5q0 182 -143 182q-140 0 -140 -182q0 -183 140 -183z
M191 724q-16 13 -3 30l89 108q16 20 38 0q21 -20 3 -38l-97 -98q-15 -15 -30 -2zM250 502q-104 0 -104 98t104 98t104 -98t-104 -98zM250 660q-34 0 -48 -14.5t-14 -45.5q0 -30 14.5 -45t47.5 -15t47.5 15t14.5 45q0 31 -14 45.5t-48 14.5z" />
    <glyph glyph-name="atilde.salt" horiz-adv-x="500" 
d="M445 430v-406q0 -14 -9.5 -23t-22.5 -9t-22.5 9t-9.5 23v28q-55 -65 -141 -65q-99 0 -152 60t-53 181t53 180.5t152 59.5q88 0 141 -62v24q0 14 9.5 23t22.5 9t22.5 -9t9.5 -23zM240 45q69 0 106 46.5t37 136.5q0 182 -143 182q-140 0 -140 -182q0 -183 140 -183z
M192 617q26 0 62 -19.5t56 -19.5q25 0 46 28q8 11 20 11q10 0 17 -7t7 -17q0 -6 -3 -12q-26 -52 -87 -52q-26 0 -62 19.5t-56 19.5q-25 0 -46 -28q-8 -11 -20 -11q-10 0 -17 7t-7 17q0 6 3 12q26 52 87 52z" />
    <glyph glyph-name="c_t" horiz-adv-x="711" 
d="M522 454v42q0 137 -115 137q-46 0 -72 -23t-26 -59q0 -19 4 -35t15 -33.5t18 -27t25 -29.5l24 -27q7 -8 7 -19q0 -13 -8.5 -21t-20.5 -8q-13 0 -24 12q-41 47 -108 47q-141 0 -141 -182q0 -183 141 -183q58 0 116 43q10 7 19 7q12 0 20.5 -8.5t8.5 -20.5q0 -13 -13 -25
q-66 -54 -151 -54q-99 0 -152.5 60t-53.5 181t53.5 180.5t152.5 59.5q47 0 84 -17q-57 52 -57 121q0 52 40 83.5t101 31.5q90 0 133.5 -51.5t43.5 -137.5v-44h65q13 0 21.5 -8.5t8.5 -21.5t-8.5 -21.5t-21.5 -8.5h-65v-276q0 -31 16 -48.5t42 -17.5q13 0 22 -8.5t9 -21.5
t-9 -21.5t-22 -8.5q-58 0 -90 35t-32 91v276h-39q-13 0 -21.5 8.5t-8.5 21.5t8.5 21.5t21.5 8.5h39z" />
    <glyph glyph-name="at.case" horiz-adv-x="802" 
d="M494 218q-39 -61 -119 -61q-58 0 -96 29t-38 80q0 50 34.5 79t95.5 29h116v25q0 37 -25.5 57t-67.5 20q-52 0 -88 -41q-9 -9 -20 -9q-10 0 -17 7t-7 17q0 8 5 15q43 58 127 58q69 0 105 -35t36 -94v-122q0 -40 16 -56.5t49 -16.5q56 0 83.5 36t27.5 124q0 150 -82.5 223
t-229.5 73q-150 0 -229.5 -75.5t-79.5 -243.5q0 -169 79.5 -243.5t229.5 -74.5q149 0 231 55q6 4 13 4q9 0 16 -6.5t7 -16.5q0 -12 -10 -19q-99 -61 -257 -61q-173 0 -266 90t-93 272t93 272.5t266 90.5q163 0 262.5 -87t99.5 -253q0 -29 -3.5 -54.5t-14 -53.5t-27.5 -48
t-47 -33t-69 -13q-80 0 -106 61zM379 201q43 0 75.5 25.5t32.5 71.5v33h-116q-80 0 -80 -65q0 -31 22.5 -48t65.5 -17z" />
    <glyph glyph-name="g.salt" horiz-adv-x="495" 
d="M377 126v144q0 68 -38 104t-97 36q-143 0 -143 -183q0 -182 143 -182q42 0 75.5 20.5t46.5 40.5zM237 -141q64 0 102 33t38 99v57q-47 -61 -135 -61q-100 0 -153.5 59.5t-53.5 180.5t53.5 181t153.5 60q89 0 144.5 -51t55.5 -147v-279q0 -97 -57.5 -144.5t-147.5 -47.5
q-110 0 -167 69q-6 8 -6 18q0 13 9 22t22 9t24 -11q47 -47 118 -47z" />
    <glyph glyph-name="gcircumflex.salt" horiz-adv-x="495" 
d="M377 126v144q0 68 -38 104t-97 36q-143 0 -143 -183q0 -182 143 -182q42 0 75.5 20.5t46.5 40.5zM237 -141q64 0 102 33t38 99v57q-47 -61 -135 -61q-100 0 -153.5 59.5t-53.5 180.5t53.5 181t153.5 60q89 0 144.5 -51t55.5 -147v-279q0 -97 -57.5 -144.5t-147.5 -47.5
q-110 0 -167 69q-6 8 -6 18q0 13 9 22t22 9t24 -11q47 -47 118 -47zM324 528l-81 68l-81 -68q-6 -6 -16 -6t-17 7t-7 17q0 12 9 19l96 79q8 6 16 6t16 -6l96 -79q9 -7 9 -19q0 -10 -7 -17t-17 -7t-16 6z" />
    <glyph glyph-name="gbreve.salt" horiz-adv-x="495" 
d="M377 126v144q0 68 -38 104t-97 36q-143 0 -143 -183q0 -182 143 -182q42 0 75.5 20.5t46.5 40.5zM237 -141q64 0 102 33t38 99v57q-47 -61 -135 -61q-100 0 -153.5 59.5t-53.5 180.5t53.5 181t153.5 60q89 0 144.5 -51t55.5 -147v-279q0 -97 -57.5 -144.5t-147.5 -47.5
q-110 0 -167 69q-6 8 -6 18q0 13 9 22t22 9t24 -11q47 -47 118 -47zM242 529q-49 0 -81 25t-32 76q0 10 7 17t17 7t17 -7t7 -17q0 -55 65 -55t65 55q0 10 7 17t17 7t17 -7t7 -17q0 -51 -32 -76t-81 -25z" />
    <glyph glyph-name="gdotaccent.salt" horiz-adv-x="495" 
d="M377 126v144q0 68 -38 104t-97 36q-143 0 -143 -183q0 -182 143 -182q42 0 75.5 20.5t46.5 40.5zM237 -141q64 0 102 33t38 99v57q-47 -61 -135 -61q-100 0 -153.5 59.5t-53.5 180.5t53.5 181t153.5 60q89 0 144.5 -51t55.5 -147v-279q0 -97 -57.5 -144.5t-147.5 -47.5
q-110 0 -167 69q-6 8 -6 18q0 13 9 22t22 9t24 -11q47 -47 118 -47zM242 544q-38 0 -38 39q0 40 38 40t38 -40q0 -39 -38 -39z" />
    <glyph glyph-name="gcommaaccent.salt" horiz-adv-x="495" 
d="M377 126v144q0 68 -38 104t-97 36q-143 0 -143 -183q0 -182 143 -182q42 0 75.5 20.5t46.5 40.5zM237 -141q64 0 102 33t38 99v57q-47 -61 -135 -61q-100 0 -153.5 59.5t-53.5 180.5t53.5 181t153.5 60q89 0 144.5 -51t55.5 -147v-279q0 -97 -57.5 -144.5t-147.5 -47.5
q-110 0 -167 69q-6 8 -6 18q0 13 9 22t22 9t24 -11q47 -47 118 -47zM191 566q0 96 64 163q6 6 13 6q15 0 15 -15q0 -4 -3 -9q-29 -40 -29 -70q0 -19 18 -44.5t18 -46.5q0 -48 -47 -48q-49 0 -49 64z" />
    </font>
</defs>
</svg>
